<?xml version="1.0" encoding="UTF-8"?>
<svg id="Layer_1" data-name="Layer 1" xmlns="http://www.w3.org/2000/svg" width="845" height="193.87" viewBox="0 0 845 193.87">
  <g>
    <path d="M117.61,115.03c-.52,0-1.05-.15-1.51-.47-1.21-.84-1.51-2.49-.67-3.7,5.93-8.57,9.17-18.63,9.38-29.1.03-1.47,1.25-2.62,2.71-2.61,1.47.03,2.64,1.24,2.61,2.71-.22,11.51-3.79,22.59-10.32,32.02-.52.75-1.35,1.15-2.19,1.15Z" fill="#231f20"/>
    <path d="M71.8,139.06c-5.74,0-11.41-.83-16.87-2.48-1.41-.42-2.2-1.91-1.78-3.31.42-1.41,1.91-2.2,3.31-1.78,4.96,1.49,10.11,2.25,15.33,2.25s10.37-.76,15.33-2.25c1.41-.42,2.89.37,3.31,1.78.42,1.41-.37,2.89-1.78,3.31-5.45,1.65-11.13,2.48-16.87,2.48Z" fill="#231f20"/>
    <path d="M27.55,49.57c-.56,0-1.13-.18-1.61-.55-1.17-.89-1.39-2.56-.5-3.73,6.97-9.11,16.36-15.92,27.13-19.68,1.39-.48,2.9.25,3.39,1.63.48,1.39-.25,2.9-1.63,3.39-9.79,3.42-18.32,9.6-24.66,17.89-.52.68-1.31,1.04-2.11,1.04Z" fill="#231f20"/>
    <path d="M25.98,115.03c-.84,0-1.67-.4-2.19-1.15-6.53-9.43-10.1-20.5-10.32-32.02-.03-1.47,1.14-2.68,2.61-2.71,1.46,0,2.68,1.14,2.71,2.61.2,10.47,3.45,20.53,9.38,29.1.84,1.21.53,2.86-.67,3.7-.46.32-.99.47-1.51.47Z" fill="#231f20"/>
    <path d="M116.05,49.57c-.8,0-1.59-.36-2.11-1.04-6.34-8.29-14.87-14.47-24.66-17.89-1.39-.48-2.12-2-1.63-3.39.48-1.39,2-2.12,3.39-1.63,10.78,3.76,20.16,10.57,27.13,19.68.89,1.17.67,2.84-.5,3.73-.48.37-1.05.55-1.61.55Z" fill="#231f20"/>
    <path d="M71.8,6.07c-9.55,0-17.45,7.07-18.76,16.26.14,0,.27-.02.41-.02h0c2.47,0,4.68,1.57,5.49,3.9,1.06,3.03-.55,6.35-3.58,7.41-.13.05-.26.1-.39.14,3.16,6.07,9.5,10.22,16.82,10.22s13.66-4.15,16.82-10.22c-.13-.05-.26-.1-.39-.14-3.03-1.06-4.63-4.38-3.58-7.41.81-2.33,3.02-3.9,5.49-3.9h0c.14,0,.27,0,.41.02-1.31-9.19-9.21-16.26-18.76-16.26ZM71.8,29.76c-2.62,0-4.74-2.12-4.74-4.74s2.12-4.74,4.74-4.74,4.74,2.12,4.74,4.74-2.12,4.74-4.74,4.74Z" fill="#231f20"/>
    <path d="M39.34,106.58c-3.11,0-6.05.76-8.64,2.08.09.13.17.27.26.4.88,1.28,1.22,2.82.94,4.35-.28,1.53-1.13,2.86-2.41,3.74-.98.68-2.12,1.03-3.31,1.03-1.37,0-2.67-.48-3.7-1.33-1.34,2.6-2.1,5.55-2.1,8.67,0,10.47,8.49,18.96,18.96,18.96,5.24,0,9.98-2.13,13.42-5.56-2.13-1.37-3.19-4.03-2.43-6.57.75-2.48,2.98-4.14,5.57-4.14.57,0,1.13.08,1.68.25.16.05.31.09.47.13.16-1,.25-2.02.25-3.06,0-10.47-8.49-18.96-18.96-18.96ZM39.14,130.27c-2.62,0-4.74-2.12-4.74-4.74s2.12-4.74,4.74-4.74,4.74,2.12,4.74,4.74-2.12,4.74-4.74,4.74Z" fill="#231f20"/>
    <path d="M32.45,50.1c-.09.12-.19.23-.28.35-1.11,1.45-2.8,2.28-4.62,2.28-1.29,0-2.51-.41-3.53-1.2-2.12-1.62-2.81-4.43-1.85-6.8-1.04-.18-2.11-.27-3.2-.27C8.49,44.46,0,52.94,0,63.41c0,7.43,4.27,13.85,10.5,16.96.63-2.47,2.85-4.33,5.52-4.39h.02s.02,0,.02,0h.02s0,0,0,0c3.17,0,5.79,2.56,5.85,5.71,0,.15.01.29.02.43,9.04-1.44,15.95-9.27,15.95-18.72,0-5.19-2.09-9.89-5.47-13.32ZM18.96,68.15c-2.62,0-4.74-2.12-4.74-4.74s2.12-4.74,4.74-4.74,4.74,2.12,4.74,4.74-2.12,4.74-4.74,4.74Z" fill="#231f20"/>
    <path d="M121.31,116.86c-1.03.85-2.33,1.33-3.7,1.33-1.19,0-2.33-.36-3.31-1.03-1.28-.88-2.14-2.21-2.41-3.74-.28-1.53.06-3.07.94-4.35.09-.13.17-.27.26-.4-2.59-1.33-5.53-2.08-8.64-2.08-10.47,0-18.96,8.49-18.96,18.96,0,1.04.09,2.07.25,3.06.16-.05.31-.08.47-.13.55-.17,1.11-.25,1.68-.25h0c2.58,0,4.82,1.66,5.57,4.14.45,1.49.29,3.06-.44,4.43-.48.89-1.16,1.61-1.98,2.14,3.43,3.44,8.17,5.56,13.41,5.56,10.47,0,18.96-8.49,18.96-18.96,0-3.13-.76-6.07-2.1-8.67ZM104.46,130.27c-2.62,0-4.74-2.12-4.74-4.74s2.12-4.74,4.74-4.74,4.74,2.12,4.74,4.74-2.12,4.74-4.74,4.74Z" fill="#231f20"/>
    <path d="M124.64,44.46c-1.09,0-2.16.1-3.2.27.37.92.51,1.93.38,2.95-.2,1.54-1,2.91-2.23,3.85-1.02.78-2.25,1.2-3.53,1.2-1.83,0-3.51-.83-4.62-2.28-.09-.12-.18-.23-.28-.35-3.38,3.42-5.47,8.13-5.47,13.32,0,9.45,6.91,17.27,15.95,18.72,0-.14.01-.29.02-.43.06-3.15,2.68-5.71,5.84-5.71h.06s.01,0,.01,0h.01c1.55.03,3,.66,4.08,1.78.71.74,1.2,1.63,1.44,2.6,6.22-3.11,10.5-9.54,10.5-16.96,0-10.47-8.49-18.96-18.96-18.96ZM124.64,68.15c-2.62,0-4.74-2.12-4.74-4.74s2.12-4.74,4.74-4.74,4.74,2.12,4.74,4.74-2.12,4.74-4.74,4.74Z" fill="#231f20"/>
  </g>
  <g>
    <path d="M229.6,63.54c-4.86-2.17-10.58-3.26-17.15-3.26-5.74,0-10.95,1.02-15.62,3.05-4.67,2.04-8.42,4.86-11.25,8.47-2.82,3.61-4.47,7.96-4.93,13.05h18.19c.56-3.24,2.06-5.6,4.51-7.08,2.45-1.48,5.44-2.22,8.96-2.22,3.24,0,5.85.56,7.84,1.67,1.99,1.11,3.42,2.78,4.31,5,.88,2.22,1.32,5.09,1.32,8.61h-17.08c-6.85,0-12.5.9-16.94,2.71-4.44,1.81-7.75,4.33-9.93,7.57-2.18,3.24-3.26,7.04-3.26,11.38,0,3.89.95,7.43,2.85,10.62,1.9,3.19,4.74,5.74,8.54,7.64,3.79,1.9,8.56,2.85,14.3,2.85,2.87,0,5.42-.3,7.64-.9,2.22-.6,4.28-1.46,6.18-2.57,1.9-1.11,3.56-2.41,5-3.89,1.43-1.48,2.66-3.14,3.68-5l2.08,10.69h15.69v-43.46c0-6.02-1.27-11.13-3.82-15.34-2.55-4.21-6.25-7.4-11.11-9.58ZM225.09,102.49c-.28,2.32-.83,4.44-1.67,6.39-.83,1.94-1.94,3.7-3.33,5.28-1.39,1.58-3.03,2.8-4.93,3.68-1.9.88-4,1.32-6.32,1.32-2.04,0-3.87-.32-5.48-.97-1.62-.65-2.85-1.6-3.68-2.85-.83-1.25-1.25-2.75-1.25-4.51,0-1.67.42-3.14,1.25-4.44.83-1.3,2.15-2.29,3.96-2.99s4.19-1.04,7.15-1.04h14.3v.14Z" fill="#231f20"/>
    <path d="M314.14,65.07c-5-3.19-10.83-4.79-17.49-4.79-3.7,0-6.97.53-9.79,1.6-2.83,1.06-5.28,2.45-7.36,4.17-2.08,1.71-3.82,3.54-5.21,5.48l-2.08-9.58h-16.66v100.52h18.74v-39.57c2.41,3.33,5.48,5.95,9.23,7.85,3.75,1.9,8.17,2.85,13.26,2.85,6.48,0,12.22-1.57,17.22-4.72,5-3.14,8.98-7.47,11.94-12.98,2.96-5.51,4.44-11.78,4.44-18.81s-1.46-13.33-4.37-18.88c-2.92-5.55-6.87-9.93-11.87-13.12ZM308.79,107.7c-1.62,3.01-3.84,5.35-6.66,7.01-2.82,1.67-6.04,2.5-9.65,2.5s-6.83-.85-9.65-2.57c-2.83-1.71-5.02-4.07-6.59-7.08-1.58-3.01-2.36-6.5-2.36-10.48s.78-7.64,2.36-10.69c1.57-3.05,3.77-5.44,6.59-7.15,2.82-1.71,6.04-2.57,9.65-2.57s6.83.86,9.65,2.57c2.82,1.71,5.04,4.12,6.66,7.22,1.62,3.1,2.43,6.69,2.43,10.76s-.81,7.48-2.43,10.48Z" fill="#231f20"/>
    <path d="M363.8,67.02c-2.55,2.18-4.7,4.74-6.46,7.71l-1.67-12.77h-16.66v69.98h18.74v-32.35c0-3.79.46-6.92,1.39-9.37.92-2.45,2.27-4.44,4.03-5.97,1.76-1.53,3.82-2.59,6.18-3.19,2.36-.6,4.93-.9,7.71-.9h6.39v-19.85c-3.98,0-7.61.58-10.9,1.74-3.29,1.16-6.2,2.82-8.75,5Z" fill="#231f20"/>
    <path d="M439.81,64.86c-5.18-3.05-11.25-4.58-18.19-4.58s-13.38,1.62-18.74,4.86c-5.37,3.24-9.56,7.64-12.56,13.19-3.01,5.55-4.51,11.99-4.51,19.3s1.5,13.26,4.51,18.67c3.01,5.42,7.22,9.65,12.63,12.7s11.64,4.58,18.67,4.58c5.46,0,10.39-1,14.79-2.99,4.4-1.99,8.14-4.77,11.25-8.33,3.1-3.56,5.25-7.52,6.46-11.87h-19.02c-1.2,2.41-2.89,4.33-5.07,5.76-2.18,1.44-5.02,2.15-8.54,2.15s-6.43-.79-9.02-2.36c-2.59-1.57-4.61-3.77-6.04-6.59-1.17-2.29-1.85-4.91-2.07-7.85h51.56c.09-1.2.16-2.38.21-3.54.05-1.16.07-2.2.07-3.12,0-6.66-1.44-12.56-4.3-17.7-2.87-5.14-6.9-9.23-12.08-12.29ZM404.73,89.99c.39-2.11,1.01-3.99,1.89-5.62,1.57-2.92,3.68-5.14,6.32-6.66,2.64-1.53,5.57-2.29,8.82-2.29,4.26,0,7.84,1.34,10.76,4.03,2.92,2.69,4.51,6.2,4.79,10.55h-32.58Z" fill="#231f20"/>
    <path d="M520.43,63.96c-3.98-2.45-8.89-3.68-14.72-3.68-5,0-9.44,1.09-13.33,3.26-3.89,2.18-6.99,5.07-9.3,8.68V31.96h-18.74v99.97h18.74v-36.93c0-4.07.72-7.5,2.15-10.27,1.43-2.78,3.4-4.91,5.9-6.39,2.5-1.48,5.32-2.22,8.47-2.22,4.91,0,8.51,1.51,10.83,4.51,2.31,3.01,3.47,7.34,3.47,12.98v38.32h18.6v-40.13c0-6.76-1.02-12.47-3.05-17.15-2.04-4.67-5.05-8.24-9.02-10.69Z" fill="#231f20"/>
    <path d="M594.41,64.86c-5.18-3.05-11.25-4.58-18.19-4.58s-13.38,1.62-18.74,4.86c-5.37,3.24-9.56,7.64-12.56,13.19-3.01,5.55-4.51,11.99-4.51,19.3s1.5,13.26,4.51,18.67c3.01,5.42,7.22,9.65,12.63,12.7s11.64,4.58,18.67,4.58c5.46,0,10.39-1,14.79-2.99,4.4-1.99,8.14-4.77,11.25-8.33,3.1-3.56,5.25-7.52,6.46-11.87h-19.02c-1.2,2.41-2.89,4.33-5.07,5.76-2.18,1.44-5.02,2.15-8.54,2.15s-6.43-.79-9.02-2.36c-2.59-1.57-4.61-3.77-6.04-6.59-1.17-2.29-1.85-4.91-2.07-7.85h51.56c.09-1.2.16-2.38.21-3.54.05-1.16.07-2.2.07-3.12,0-6.66-1.44-12.56-4.3-17.7-2.87-5.14-6.9-9.23-12.08-12.29ZM559.33,89.99c.39-2.11,1.01-3.99,1.89-5.62,1.57-2.92,3.68-5.14,6.32-6.66,2.64-1.53,5.57-2.29,8.82-2.29,4.26,0,7.84,1.34,10.76,4.03,2.92,2.69,4.51,6.2,4.79,10.55h-32.58Z" fill="#231f20"/>
    <path d="M674.75,63.96c-3.98-2.45-8.89-3.68-14.72-3.68-5.46,0-10.16,1.18-14.09,3.54-3.94,2.36-7.01,5.58-9.23,9.65l-1.25-11.52h-16.52v69.98h18.74v-37.21c0-3.98.69-7.34,2.08-10.07,1.39-2.73,3.31-4.84,5.76-6.32,2.45-1.48,5.21-2.22,8.26-2.22,4.91,0,8.56,1.48,10.97,4.44,2.41,2.96,3.61,7.17,3.61,12.63v38.74h18.74v-40.4c0-6.66-1.06-12.31-3.19-16.94-2.13-4.63-5.18-8.17-9.16-10.62Z" fill="#231f20"/>
    <path d="M751.3,70.97c-2.31-3.42-5.35-6.06-9.09-7.91-3.75-1.85-8.17-2.78-13.26-2.78-6.39,0-12.17,1.6-17.36,4.79-5.18,3.19-9.21,7.55-12.08,13.05-2.87,5.51-4.3,11.83-4.3,18.95s1.43,13.19,4.3,18.74c2.87,5.55,6.83,9.91,11.87,13.05,5.04,3.15,10.76,4.72,17.15,4.72,3.89,0,7.24-.51,10.07-1.53,2.82-1.02,5.28-2.38,7.36-4.1,2.08-1.71,3.86-3.63,5.35-5.76l2.08,9.72h16.66V31.96h-18.74v39.01ZM749.35,107.49c-1.57,3.05-3.75,5.44-6.53,7.15-2.78,1.71-6.06,2.57-9.86,2.57s-6.83-.88-9.65-2.64c-2.82-1.76-5.02-4.14-6.59-7.15-1.57-3.01-2.36-6.55-2.36-10.62s.79-7.36,2.36-10.41c1.57-3.05,3.77-5.44,6.59-7.15,2.82-1.71,5.99-2.57,9.51-2.57,3.79,0,7.1.83,9.93,2.5,2.82,1.67,5.02,4.03,6.59,7.08,1.57,3.05,2.36,6.57,2.36,10.55s-.79,7.64-2.36,10.69Z" fill="#231f20"/>
    <path d="M841.18,73.12c-2.55-4.21-6.25-7.4-11.11-9.58-4.86-2.17-10.58-3.26-17.15-3.26-5.74,0-10.95,1.02-15.62,3.05-4.67,2.04-8.42,4.86-11.25,8.47-2.83,3.61-4.47,7.96-4.93,13.05h18.19c.56-3.24,2.06-5.6,4.51-7.08,2.45-1.48,5.44-2.22,8.96-2.22,3.24,0,5.85.56,7.84,1.67,1.99,1.11,3.42,2.78,4.3,5,.88,2.22,1.32,5.09,1.32,8.61h-17.08c-6.85,0-12.5.9-16.94,2.71-4.44,1.81-7.75,4.33-9.93,7.57-2.18,3.24-3.26,7.04-3.26,11.38,0,3.89.95,7.43,2.85,10.62,1.9,3.19,4.74,5.74,8.54,7.64,3.79,1.9,8.56,2.85,14.3,2.85,2.87,0,5.42-.3,7.64-.9,2.22-.6,4.28-1.46,6.18-2.57,1.9-1.11,3.56-2.41,5-3.89,1.43-1.48,2.66-3.14,3.68-5l2.08,10.69h15.69v-43.46c0-6.02-1.27-11.13-3.82-15.34ZM825.56,102.49c-.28,2.32-.83,4.44-1.67,6.39-.83,1.94-1.94,3.7-3.33,5.28-1.39,1.58-3.03,2.8-4.93,3.68-1.9.88-4,1.32-6.32,1.32-2.04,0-3.87-.32-5.48-.97-1.62-.65-2.85-1.6-3.68-2.85-.83-1.25-1.25-2.75-1.25-4.51,0-1.67.42-3.14,1.25-4.44.83-1.3,2.15-2.29,3.96-2.99,1.8-.69,4.19-1.04,7.15-1.04h14.3v.14Z" fill="#231f20"/>
  </g>
</svg>