<?xml version="1.0" encoding="UTF-8"?>
<svg id="Layer_1" data-name="Layer 1" xmlns="http://www.w3.org/2000/svg" width="630.8" height="212.27" viewBox="0 0 630.8 212.27">
  <path d="M601.96,111.71c-1.05-.95-2.32-1.58-3.68-1.85,1.56-1.15,2.68-2.84,3.07-4.78l.17-.84-.82-.25c-.71-.22-1.46-.33-2.21-.33-.15,0-.31.02-.46.03.84-1.02,1.46-2.24,1.71-3.58l.16-.85-.83-.23c-.69-.2-1.4-.3-2.12-.3-.78,0-1.54.13-2.27.36.47-1.06.74-2.21.72-3.39v-.87l-.88-.06c-.19-.02-.38-.02-.56-.02h-.13c1.44-1.5,2.24-3.53,2.21-5.64l-.02-.86-.87-.06c-.17-.01-.34-.02-.52-.02-.4,0-.79.05-1.18.11.54-.6,1.02-1.27,1.35-2.02.88-1.99.9-4.29.05-6.31l-.34-.81-.83.28c-1.79.61-3.26,1.88-4.21,3.51-.45-1.28-1.21-2.45-2.26-3.33l-.18-.15c.05-.09.11-.16.16-.26.94-1.95,1.04-4.25.26-6.3l-.31-.81-.84.24c-1.29.37-2.42,1.11-3.34,2.07.48-.85.82-1.79.95-2.78l.12-.84-.83-.21c-.6-.15-1.22-.21-1.83-.21-1.15,0-2.26.26-3.28.74.26-.64.48-1.31.58-2.02l.11-.85-.84-.19c-.56-.13-1.13-.2-1.7-.2-1.57,0-3.1.49-4.41,1.42-.05.04-.09.09-.14.12.12-.45.23-.91.27-1.39.19-2.18-.54-4.35-1.99-5.97l-.59-.65-.7.54c-1.72,1.33-2.81,3.34-3,5.52-.03.34,0,.68.02,1.02-.25-.28-.49-.56-.78-.8l-.67-.57-.61.64c-.34.34-.62.73-.88,1.12-.1-1.11-.42-2.21-.98-3.2l-.42-.76-.8.37c-.68.31-1.28.75-1.83,1.24.03-.73,0-1.47-.17-2.19-.52-2.13-1.89-3.96-3.79-5.01l-.77-.43-.49.74c-.6.9-.99,1.92-1.17,2.97-.29-.88-.69-1.73-1.28-2.47l-.54-.69-.73.48c-1.07.7-1.9,1.68-2.5,2.79-.47-1.77-1.5-3.34-2.99-4.4l-.71-.51-.56.68c-1.16,1.41-1.76,3.18-1.77,4.99-.78-.93-1.75-1.69-2.88-2.17l-.81-.35-.4.79c-.52,1.01-.8,2.11-.85,3.23-.18-.86-.45-1.7-.91-2.47l-.45-.76-.79.39c-1.94.96-3.41,2.71-4.01,4.8-.07.26-.09.53-.14.79-.16-1.07-.54-2.09-1.14-3.01l-.47-.73-.77.4c-1.94,1.02-3.39,2.8-3.96,4.89-.2.74-.24,1.5-.22,2.25-.86-1.4-2.14-2.51-3.67-3.13l-.82-.33-.39.78c-.78,1.57-.99,3.33-.67,5.02-.1-.07-.19-.15-.3-.21l-.77-.44-.49.74c-.27.4-.49.83-.67,1.27-.49-.86-1.12-1.64-1.9-2.28l-.69-.55-.6.64c-1.49,1.58-2.24,3.74-2.07,5.92.06.84.3,1.65.61,2.41-.64-.59-1.35-1.1-2.17-1.45l-.81-.35-.41.78c-.9,1.74-1.08,3.77-.57,5.65-.37-.81-.85-1.57-1.48-2.22l-.61-.62-.67.57c-1.67,1.4-2.67,3.46-2.76,5.63-.01.38.03.75.07,1.12-.64-.9-1.46-1.66-2.42-2.22l-.76-.44-.49.73c-1.23,1.82-1.67,4.07-1.2,6.19.19.89.58,1.71,1.06,2.47-.8-.47-1.67-.82-2.6-.97l-.86-.14-.2.85c-.53,2.13-.16,4.4,1.03,6.21.75,1.16,1.8,2.04,3,2.65-.4-.07-.79-.1-1.19-.1-1.26,0-2.52.32-3.65.93l-.75.4.33.78c.83,2.03,2.46,3.61,4.49,4.34.22.08.44.12.67.18-.27-.03-.54-.09-.81-.09-.96,0-1.91.18-2.81.54l-.8.32.23.83c.6,2.11,2.04,3.89,3.95,4.86.84.42,1.74.63,2.66.73-1.27.47-2.42,1.22-3.32,2.27l-.56.66.6.62c1.45,1.49,3.39,2.31,5.46,2.31h.33c1.35-.07,2.63-.52,3.76-1.22-1.11.94-1.97,2.17-2.41,3.6l-.25.81.78.34c.98.42,2.01.64,3.05.64,1.11,0,2.17-.23,3.16-.7.96-.45,1.81-1.09,2.51-1.88-.14.82-.19,1.66-.06,2.5l.13.85.87-.05c2.17-.13,4.18-1.18,5.53-2.88,1.23-1.55,1.79-3.54,1.63-5.52.89,1.18,2.08,2.06,3.42,2.58h-.03s.07.02.13.04c.08.03.15.06.23.09,2.42.93,17.6,7.52,17.65,21.83.02,4.51-.42,11.58-3.74,14.96-6.32.63-11.92,1.8-15.84,3.42-.18.08-.27.28-.2.45.03.09.31.23.43.23h.02c3.27-1.09,6.74-1.64,10.34-1.64,4.88.02,9.98,1.62,15.58,4.9.03.02.14.05.18.05l.18-.05c5.61-3.22,10.72-4.78,15.61-4.78,3.54,0,7.01.59,10.41,1.71.14,0,.28-.09.33-.23.04-.11-.09-.41-.19-.46-3.73-1.62-9.07-2.83-15.19-3.51-3.39-3.35-3.82-10.51-3.81-15.06,0-14.37,14.28-20.94,16.94-21.91,1.18-.36,2.28-.98,3.18-1.88l.07-.06c.53,1.28,1.36,2.43,2.47,3.27,1.32,1,2.9,1.53,4.55,1.53.51,0,1.02-.05,1.51-.15l.84-.17-.09-.86c-.07-.73-.28-1.43-.55-2.1.3.31.62.61.98.87,1.32.95,2.9,1.46,4.56,1.46.53,0,1.06-.05,1.59-.15l.85-.17-.09-.86c-.16-1.56-.82-3.02-1.83-4.19.56.46,1.15.87,1.81,1.16.97.42,2,.64,3.05.64s2.19-.24,3.18-.7l.79-.36-.29-.81c-.72-2.06-2.28-3.74-4.27-4.62-.14-.06-.29-.09-.44-.14.22,0,.44-.01.67-.03,2.14-.23,4.1-1.36,5.4-3.13l.5-.68-.63-.58v-.03ZM523.7,112.11l-1.68,4.27-1.68-4.27-4.27-1.68,4.27-1.68,1.68-4.27,1.68,4.27,4.28,1.68-4.28,1.68ZM538.62,78.06l1.67-4.23,1.67,4.23,4.24,1.67-4.24,1.67-1.67,4.24-1.67-4.24-4.24-1.67,4.24-1.67ZM549.93,132.67c-2.54-4.14-10.69-8.94-16.32-11.91,1.71-.14,3.32-.82,4.58-2,.05,1.46.46,2.9,1.28,4.13l.48.74.77-.43c1.37-.77,2.45-1.94,3.14-3.32.06.37.12.73.24,1.09.7,2.05,2.23,3.74,4.22,4.62l.81.35.41-.78c1.04-1.96,1.23-4.19.53-6.28-.05-.14-.14-.27-.19-.41.49.65,1.04,1.26,1.71,1.73l.71.51.56-.67c.15-.18.26-.39.4-.59.9.34,1.82.52,2.77.52,1.04,0,2.03-.24,2.98-.65-.16.32-.33.63-.44.97l-.28.83.8.34c.97.41,1.99.62,3.03.62s2-.22,2.93-.61c-5.23,2.66-12.36,6.66-15.13,11.2M568.03,104.3l-1.67,4.23-1.67-4.23-4.23-1.67,4.23-1.67,1.67-4.24,1.67,4.24,4.23,1.67-4.23,1.67ZM572.07,81.95l-1.67,4.24-1.67-4.24-4.23-1.67,4.23-1.67,1.67-4.24,1.67,4.24,4.24,1.67-4.24,1.67Z" fill="#b2aead"/>
  <path d="M498.12,44.71c.68,1.08,1.3,2.09,1.88,3.03.16.27.28.5.37.69s.14.38.14.57c0,.18-.04.37-.14.57-.09.19-.24.44-.43.72l.49.39,2.99-3.83-.5-.39-.8.84c-.23.23-.41.34-.55.31-.14-.02-.3-.16-.49-.43-.41-.56-.82-1.14-1.23-1.74-.41-.6-.85-1.24-1.32-1.95l3.04-3.9,4.25,1.42c.32.11.52.24.59.39.07.15,0,.38-.19.69l-.55.85.5.39,3.5-4.49-.5-.39c-.23.23-.42.42-.56.56-.15.14-.3.25-.45.3-.16.06-.33.07-.52.03-.19-.03-.43-.11-.72-.21l-13.41-4.48-1,1.29,3.73,5.87c.57.85,1.19,1.83,1.87,2.91M494.4,37.17l.05-.07,6.33,2.16-2.7,3.47c-.66-.95-1.3-1.9-1.91-2.85-.6-.95-1.19-1.85-1.76-2.71" fill="#b2aead"/>
  <path d="M499.76,28.1c.16-.12.32-.2.49-.24.17-.04.34-.03.53.03.19.06.42.15.71.27.91.41,1.89.87,2.92,1.36s2.07,1,3.12,1.53l6.73,3.3,1.13-1.11-3.33-7.43c-.53-1.2-1.02-2.32-1.46-3.36s-.77-1.86-.98-2.46c-.11-.27-.17-.49-.2-.67-.02-.18-.02-.34.02-.49.04-.15.12-.3.24-.46s.28-.35.48-.58l-.44-.45-3.5,3.41.45.46.94-.76c.23-.18.4-.24.51-.2.11.04.22.16.32.35.27.44.61,1.09,1.01,1.96.41.87.87,1.84,1.35,2.92l2.8,6.15-.06-.03-5.46-2.62c-.93-.46-1.84-.9-2.74-1.34-.9-.43-1.76-.87-2.6-1.32-.26-.13-.4-.25-.44-.37s.02-.29.19-.5l.74-.89-.44-.45-4.09,4,.44.45c.23-.2.44-.36.6-.48" fill="#b2aead"/>
  <path d="M514.47,18.76c.34.47.72.82,1.17,1.05.44.24.92.38,1.43.46.51.07,1.05.05,1.62-.04s1.15-.22,1.74-.39l.39-.1c.26-.07.58-.13.96-.19.39-.05.79-.07,1.21-.04.42.03.84.12,1.24.29.41.17.76.45,1.05.86.58.79.79,1.57.64,2.34-.14.77-.61,1.43-1.4,2.01-.85.62-1.77.82-2.76.61-.99-.2-1.96-.73-2.9-1.59l-.56.41,2.24,2.75c.68.08,1.41-.03,2.19-.33.79-.3,1.5-.68,2.14-1.14.79-.57,1.39-1.16,1.79-1.78.41-.61.67-1.22.78-1.82.11-.6.09-1.18-.07-1.73-.15-.55-.39-1.06-.73-1.53-.38-.53-.81-.93-1.27-1.21-.47-.28-.96-.46-1.49-.54-.53-.08-1.09-.08-1.69,0-.61.08-1.24.22-1.9.41l-.71.2c-.76.22-1.5.29-2.21.22-.71-.07-1.27-.38-1.66-.92-.47-.65-.67-1.33-.59-2.04.08-.71.49-1.34,1.26-1.89,1.5-1.09,3.04-.84,4.61.74l.56-.41-1.84-2.53c-.48,0-1.05.12-1.71.38-.66.27-1.29.61-1.9,1.06-.54.39-1.01.84-1.41,1.34-.39.49-.68,1.02-.86,1.58-.18.55-.22,1.13-.13,1.73.09.6.34,1.19.77,1.78" fill="#b2aead"/>
  <path d="M537.76,17.09c-.31.1-.55.14-.73.12-.17-.02-.32-.1-.43-.25s-.23-.36-.35-.65l-5.13-11.37,1.2-.54c.6-.27,1.09-.45,1.49-.54.4-.09.75-.09,1.04,0,.3.1.57.29.83.59.26.29.54.7.84,1.24l.6-.27-1.51-3.36-11.64,5.24,1.51,3.36.61-.27c-.2-.58-.32-1.07-.37-1.46s-.01-.73.12-1.01c.13-.3.37-.56.7-.79.34-.24.8-.49,1.4-.76l1.18-.53,5.13,11.37c.12.28.21.51.26.68.06.18.02.34-.09.49-.12.15-.31.31-.59.47-.28.17-.68.39-1.21.67l.26.58,6.45-2.9-.26-.57c-.55.2-.99.36-1.31.46" fill="#b2aead"/>
  <path d="M555.4,14.23c-.28-.17-.51-.38-.68-.64-.17-.25-.29-.55-.38-.89-.08-.34-.16-.7-.23-1.06-.07-.49-.16-.96-.28-1.37-.11-.42-.28-.8-.5-1.14-.22-.33-.52-.63-.9-.88s-.87-.43-1.46-.55v-.06c1.04-.24,1.9-.7,2.56-1.38.66-.67.98-1.54.96-2.59-.01-.54-.12-1.03-.31-1.49s-.49-.85-.91-1.18c-.41-.33-.94-.59-1.61-.77-.67-.17-1.49-.25-2.46-.22l-6.43.16v.63c.51.02.89.05,1.15.09.26.03.46.09.6.19.13.09.22.22.24.39.03.17.04.41.05.72l.28,11.17v.73c-.02.18-.09.32-.22.41-.13.09-.33.16-.59.2-.26.05-.63.09-1.13.14l.02.64,6.18-.16-.02-.63c-.48-.03-.86-.06-1.12-.09-.27-.03-.47-.09-.61-.17s-.22-.21-.25-.4c-.03-.18-.06-.43-.06-.73l-.13-5.14,1.55-.04c.67-.02,1.24.1,1.72.36.47.26.82.76,1.03,1.49.04.16.09.37.15.65.05.28.11.57.18.88.06.32.14.64.21.96s.14.62.21.89c.17.7.46,1.19.88,1.46s.96.39,1.63.38l1.78-.04v-.63c-.44-.03-.79-.13-1.07-.29M548.86,7.34l-1.75.04-.14-5.43c0-.23,0-.42.03-.57.02-.16.09-.27.21-.35.11-.08.28-.14.49-.17.22-.03.51-.05.88-.06.41,0,.82.02,1.24.1.43.07.8.23,1.14.46.33.23.61.55.83.97.22.42.34.95.35,1.6.03,1.17-.24,2.02-.8,2.57-.56.54-1.39.83-2.48.85" fill="#b2aead"/>
  <path d="M562.89,17.81l-.97-.63c-.28-.18-.41-.34-.42-.48,0-.14.11-.33.33-.56.48-.51.97-1.02,1.48-1.53.51-.51,1.07-1.06,1.68-1.66l4.4,2.26-.6,4.44c-.04.34-.14.56-.27.65-.14.09-.37.07-.71-.06l-.94-.38-.29.56,5.06,2.6.29-.56c-.27-.18-.49-.33-.66-.45-.16-.12-.29-.24-.38-.39-.09-.14-.14-.3-.14-.5s.02-.44.07-.74l1.9-14.02-1.46-.75-5.06,4.77c-.74.72-1.57,1.51-2.51,2.37s-1.82,1.67-2.63,2.42c-.24.2-.44.37-.61.49-.18.13-.35.21-.53.24-.18.04-.38.03-.59-.02s-.47-.15-.79-.29l-.29.56,4.32,2.22.29-.56h.03ZM568.08,9.93c.82-.77,1.6-1.52,2.33-2.24l.08.04-.95,6.62-3.92-2c.82-.83,1.63-1.63,2.45-2.41" fill="#b2aead"/>
  <path d="M585.46,29.49l-.5-.42c-.56.48-1.05.81-1.49,1-.43.19-.84.26-1.24.22-.39-.04-.77-.18-1.16-.43-.38-.24-.79-.55-1.23-.93-.43-.36-.78-.67-1.06-.95-.28-.28-.48-.53-.59-.75-.11-.22-.12-.44-.03-.67.09-.22.31-.54.65-.95l6.83-8.11c.2-.24.36-.41.5-.52.13-.12.29-.16.46-.14.17.02.38.1.61.25.24.15.56.38.99.68l.41-.48-4.82-4.05-.41.48c.36.35.62.62.8.82.18.19.28.38.32.54s.01.31-.08.45c-.09.14-.24.34-.44.57l-7.19,8.56c-.2.23-.37.41-.49.54-.13.13-.28.18-.44.16s-.35-.1-.57-.24c-.22-.13-.53-.35-.94-.64l-.41.48,8.8,7.4,2.75-2.87h-.03Z" fill="#b2aead"/>
  <path d="M597.06,26.72c.02.16-.03.31-.14.44-.11.13-.28.29-.51.5l-8.26,7.52c-.23.21-.42.37-.56.47-.15.11-.3.14-.45.1s-.33-.15-.53-.31c-.21-.17-.49-.42-.85-.76l-.47.42,4.16,4.57.47-.43c-.3-.38-.52-.68-.67-.9-.15-.23-.24-.42-.27-.57-.03-.16.02-.31.13-.45.12-.14.29-.32.51-.52l8.26-7.52c.23-.21.42-.35.56-.45.15-.09.3-.13.46-.09.16.04.34.14.56.31.21.17.49.42.84.75l.46-.43-4.16-4.56-.46.42c.3.4.53.7.68.92.15.21.23.4.25.57" fill="#b2aead"/>
  <path d="M600.22,39.28c-.07.51-.06,1.05.03,1.62s.22,1.15.39,1.74l.1.39c.07.26.13.58.18.97s.07.79.04,1.21-.12.83-.29,1.24-.45.75-.86,1.05c-.79.57-1.57.78-2.34.64-.77-.15-1.43-.62-2-1.41-.62-.86-.82-1.78-.61-2.77.2-.99.74-1.95,1.59-2.9l-.41-.56-2.75,2.23c-.08.67.02,1.4.32,2.19.3.79.67,1.51,1.14,2.14.57.79,1.16,1.39,1.78,1.8.61.41,1.22.67,1.82.78.6.11,1.18.09,1.72-.06.55-.15,1.07-.4,1.53-.73.53-.38.94-.8,1.21-1.26.28-.46.46-.96.54-1.49.08-.53.08-1.09,0-1.7-.08-.6-.22-1.24-.41-1.9l-.19-.71c-.22-.76-.29-1.5-.21-2.22.07-.72.38-1.27.93-1.66.65-.47,1.33-.66,2.04-.58.71.08,1.33.5,1.88,1.27,1.09,1.5.84,3.04-.75,4.61l.4.57,2.54-1.83c0-.48-.12-1.05-.38-1.71-.27-.66-.62-1.29-1.05-1.9-.4-.55-.84-1.02-1.34-1.41s-1.02-.69-1.58-.87c-.55-.18-1.13-.22-1.73-.13s-1.2.35-1.78.77c-.47.34-.82.72-1.05,1.17-.24.45-.39.92-.46,1.43" fill="#b2aead"/>
  <rect x="608.44" y="54.73" width="1.55" height="5.43" transform="translate(39.77 281.45) rotate(-26.86)" fill="#b2aead"/>
  <rect x="486.43" y="56.71" width="5.43" height="1.55" transform="translate(216.5 467.65) rotate(-63.09)" fill="#b2aead"/>
  <path d="M532.68,196.61c-.86-.45-1.66-.73-2.39-.83-.73-.1-1.39-.06-1.98.1-.59.17-1.1.44-1.52.82-.43.38-.78.82-1.05,1.33-.31.58-.48,1.13-.53,1.67-.04.54.02,1.06.18,1.57.16.51.41,1.02.75,1.52.34.51.74,1.01,1.21,1.52l.49.55c.53.59.92,1.22,1.17,1.9.25.67.22,1.3-.1,1.9-.38.71-.9,1.18-1.57,1.42s-1.42.14-2.25-.3c-1.64-.87-2.1-2.36-1.37-4.47l-.61-.33-1.47,2.77c.21.43.56.89,1.09,1.36.53.48,1.12.89,1.79,1.24.59.31,1.2.54,1.82.67s1.22.16,1.8.08,1.11-.3,1.61-.64c.5-.35.91-.84,1.26-1.48.27-.51.41-1.01.43-1.52.02-.5-.06-.99-.22-1.48-.16-.49-.41-.97-.75-1.43-.34-.47-.71-.94-1.12-1.39l-.26-.3c-.18-.2-.37-.46-.59-.79-.22-.32-.41-.68-.57-1.07-.16-.39-.26-.8-.28-1.24-.03-.44.07-.88.31-1.32.46-.86,1.06-1.4,1.81-1.61s1.56-.08,2.42.37c.93.5,1.52,1.23,1.77,2.21.25.97.2,2.08-.15,3.3l.61.32,1.48-3.22c-.23-.64-.65-1.25-1.26-1.82s-1.27-1.05-1.96-1.42" fill="#b2aead"/>
  <path d="M522.06,190.17l-5.39-4.57-.41.48c.43.41.75.74.98.98.22.24.36.44.42.61s.05.33-.04.49c-.09.17-.23.36-.43.6l-8.06,9.51-1.01-.85c-.5-.42-.88-.79-1.13-1.11-.26-.32-.41-.63-.45-.94s.02-.64.17-1c.16-.36.41-.79.76-1.3l-.5-.43-2.38,2.81,9.73,8.25,2.38-2.8-.5-.43c-.44.43-.82.75-1.16.96-.33.21-.65.32-.97.33-.32,0-.66-.09-1.01-.3-.36-.2-.79-.51-1.28-.93l-.99-.84,8.06-9.51c.2-.24.37-.41.51-.53s.3-.16.48-.12c.18.03.41.14.68.33.27.18.65.45,1.13.8l.41-.48h0Z" fill="#b2aead"/>
  <path d="M506.96,175.27l-7.66,2.77c-1.23.44-2.39.84-3.46,1.21-1.07.36-1.91.63-2.53.79-.28.09-.5.13-.69.15-.17,0-.34,0-.48-.06-.14-.05-.29-.15-.43-.28-.14-.12-.32-.3-.54-.52l-.48.41,3.15,3.74.48-.41-.69-1c-.16-.24-.2-.42-.16-.52.05-.1.17-.2.37-.29.46-.23,1.13-.53,2.03-.87.9-.35,1.91-.72,3.01-1.13l6.34-2.34-.02.06-3.02,5.25c-.52.89-1.04,1.77-1.54,2.63s-1,1.69-1.51,2.49c-.14.24-.28.38-.41.41-.12.03-.29-.04-.49-.23l-.83-.8-.49.41,3.69,4.37.49-.41c-.19-.25-.33-.46-.44-.63-.1-.17-.17-.34-.2-.51-.03-.16,0-.34.06-.52.07-.19.18-.41.32-.69.48-.88,1.01-1.82,1.57-2.81.57-.99,1.15-1.99,1.76-3l3.79-6.47-1.01-1.21h.02Z" fill="#b2aead"/>
  <path d="M488.42,172.65l9.62-5.7c.27-.15.48-.27.65-.35.17-.07.32-.07.46,0,.15.07.3.21.46.41.17.21.39.51.67.92l.54-.32-3.52-5.93c-.51-.86-1.09-1.65-1.75-2.39-.66-.73-1.44-1.31-2.33-1.74-.92-.41-1.96-.59-3.15-.52-1.19.07-2.5.53-3.93,1.38-.96.57-1.75,1.23-2.38,1.98-.64.75-1.07,1.59-1.31,2.51-.21.97-.18,1.96.07,2.97s.71,2.09,1.36,3.23l3.75,6.33.54-.32c-.22-.45-.38-.79-.48-1.03s-.14-.45-.13-.61.09-.3.23-.4c.14-.1.34-.24.6-.39M487.29,170.79c-.25.15-.46.24-.63.29-.17.05-.34.02-.5-.09-.16-.1-.34-.3-.53-.58-.19-.29-.44-.69-.74-1.2-.59-1.03-.93-1.98-1.03-2.84-.1-.87-.02-1.65.25-2.36s.7-1.35,1.29-1.94c.59-.58,1.29-1.11,2.1-1.59,1.2-.71,2.28-1.16,3.23-1.34.95-.19,1.8-.17,2.55.05s1.42.62,2,1.18c.58.57,1.11,1.25,1.58,2.04.24.41.43.76.55,1.05.12.28.17.53.13.75s-.15.42-.34.61c-.19.18-.48.39-.86.61l-9.05,5.36h0Z" fill="#b2aead"/>
  <path d="M478.14,153.28l10.31-4.32c.28-.12.51-.21.69-.26.17-.06.32-.03.46.06.13.09.26.25.4.47.14.22.32.55.54,1l.59-.24-2.39-5.7-.58.24c.15.45.26.81.32,1.08.07.26.09.47.06.63s-.12.29-.28.38c-.15.1-.37.21-.66.33l-10.31,4.32c-.28.12-.51.2-.68.24-.17.04-.33.02-.47-.07-.13-.09-.28-.24-.42-.48-.14-.23-.32-.57-.54-.99l-.58.24,2.39,5.7.58-.24c-.16-.47-.27-.83-.33-1.09-.06-.25-.08-.46-.04-.62.04-.16.13-.28.28-.37s.37-.19.65-.3" fill="#b2aead"/>
  <path d="M479.51,141.81c1.21-.31,2.25-.74,3.12-1.3.88-.57,1.56-1.22,2.06-1.96.51-.79.83-1.67.97-2.64s.05-2.05-.24-3.22c-.31-1.2-.76-2.2-1.35-2.98s-1.29-1.38-2.11-1.8c-.8-.42-1.72-.67-2.76-.74s-2.15.05-3.36.36c-2.47.64-4.2,1.73-5.2,3.3-.52.77-.84,1.63-.97,2.59-.12.96-.03,2.05.28,3.25.3,1.17.74,2.15,1.32,2.93.58.8,1.28,1.41,2.1,1.85.8.41,1.72.65,2.75.71,1.04.07,2.17-.05,3.39-.37M473.96,139.67c-.77-.17-1.44-.5-2.02-1.01-.58-.5-1-1.23-1.24-2.17-.24-.95-.23-1.78.04-2.51.27-.72.7-1.35,1.29-1.87.59-.53,1.27-.97,2.06-1.32s1.58-.64,2.37-.87c.78-.18,1.61-.31,2.47-.38.86-.08,1.68-.02,2.44.15.77.18,1.45.52,2.04,1.01.59.51,1.01,1.23,1.26,2.17.24.95.22,1.78-.06,2.51-.27.72-.71,1.34-1.3,1.86s-1.28.95-2.07,1.3-1.57.64-2.35.86c-.8.19-1.64.32-2.5.39-.86.07-1.67.03-2.44-.15" fill="#b2aead"/>
  <path d="M481.14,119.06c.18.01.32.08.41.21s.17.32.23.58c.05.26.12.63.19,1.13l.63-.04-.39-6.16-.63.04c0,.48-.02.86-.05,1.13-.02.27-.07.48-.14.61-.08.14-.2.23-.39.27-.18.04-.42.07-.73.09l-5.13.33-.1-1.55c-.04-.67.06-1.25.29-1.73.24-.48.72-.85,1.46-1.09.15-.05.37-.11.64-.17.27-.07.57-.14.88-.22.31-.07.63-.16.94-.25.32-.08.62-.17.88-.24.7-.2,1.17-.51,1.42-.94s.36-.98.32-1.65l-.11-1.78-.63.04c-.01.42-.09.78-.25,1.07s-.36.52-.61.7-.54.32-.88.42-.68.18-1.05.27c-.5.09-.94.2-1.36.33-.41.13-.78.32-1.11.55-.33.24-.61.54-.85.93-.23.39-.4.89-.49,1.49h-.05c-.28-1.03-.77-1.87-1.47-2.51s-1.58-.92-2.63-.86c-.54.04-1.03.16-1.47.37-.45.21-.83.53-1.15.95s-.55.97-.7,1.64c-.15.67-.19,1.5-.13,2.47l.41,6.42.63-.04c0-.5.02-.88.04-1.14.02-.26.08-.46.16-.6.09-.14.22-.22.39-.26.17-.03.41-.05.71-.07l11.16-.72c.31-.02.55-.02.73-.02M468.94,117.63c-.23.02-.42.01-.57,0-.16-.02-.28-.08-.36-.19-.09-.11-.15-.27-.19-.49s-.07-.51-.1-.87c-.02-.4,0-.82.05-1.24.06-.43.2-.81.42-1.15.22-.34.53-.63.94-.87.41-.24.94-.38,1.59-.42,1.17-.08,2.03.16,2.59.7.56.54.88,1.35.95,2.44l.11,1.75-5.42.34h0Z" fill="#b2aead"/>
  <path d="M467.33,102.57c.05-.19.13-.36.23-.49s.24-.24.42-.31c.18-.07.42-.16.72-.24.97-.26,2.02-.52,3.13-.79,1.11-.27,2.24-.54,3.38-.79l7.3-1.7.18-1.57-7.28-3.65c-1.17-.59-2.25-1.15-3.26-1.68-1-.52-1.77-.95-2.31-1.28-.25-.14-.45-.28-.58-.4-.13-.12-.23-.25-.29-.39s-.09-.31-.1-.5c0-.19,0-.44.01-.75l-.63-.07-.54,4.86.63.07.25-1.18c.07-.28.16-.44.27-.48.11-.03.27-.02.47.07.48.17,1.16.46,2.03.88s1.83.89,2.89,1.41l6.06,2.99-.06.02-5.89,1.42c-1.01.23-2,.47-2.96.69-.97.23-1.92.44-2.85.63-.28.06-.47.06-.57,0-.11-.07-.17-.24-.18-.51v-1.16l-.62-.07-.64,5.68.63.07c.05-.3.1-.55.16-.75" fill="#b2aead"/>
  <path d="M470.41,81.47c.12-.24.24-.41.37-.5s.28-.12.45-.09c.17.02.41.09.7.18l8.33,2.72c.55.18,1.03.35,1.43.52.41.17.78.33,1.11.5.44.2.67.46.69.77s-.05.74-.18,1.3l.6.2,1.63-5-.6-.19c-.28.67-.52,1.14-.71,1.4-.2.26-.53.34-1,.25-.36-.06-.76-.14-1.19-.25s-.92-.25-1.46-.43l-8.36-2.73.02-.05,14.14-1.38.19-.57-10.59-9.53.02-.05,10.65,3.47c.29.1.53.18.69.26.17.07.27.19.31.34.04.15.04.36,0,.62-.05.26-.12.63-.24,1.11l.6.2,1.91-5.85-.6-.19c-.18.44-.34.78-.46,1.03-.12.24-.24.41-.36.5s-.27.12-.45.09c-.18-.03-.42-.09-.71-.19l-10.63-3.46c-.29-.1-.51-.18-.67-.26s-.26-.2-.31-.34c-.05-.15-.06-.36,0-.62.05-.26.13-.63.24-1.1l-.61-.2-1.37,4.21c.83.67,1.64,1.37,2.42,2.07.79.71,1.57,1.43,2.37,2.15l4.83,4.39v.03l-6.45.65c-1.08.11-2.16.23-3.21.36-1.06.12-2.12.22-3.19.27l-1.4,4.29.6.2c.19-.46.34-.81.47-1.06" fill="#b2aead"/>
  <path d="M610.45,77.91l8.14.24c1.31.05,2.53.1,3.66.15,1.13.06,2.01.12,2.64.19.29.03.52.06.69.12.17.05.31.13.42.23.11.1.22.24.31.42.09.17.19.4.31.68l.6-.2-1.56-4.63-.6.2.27,1.18c.06.28.04.46-.04.54-.08.08-.24.12-.45.14-.51.05-1.25.07-2.21.06-.96,0-2.04-.03-3.22-.06l-6.75-.16.04-.05,4.73-3.77c.82-.64,1.62-1.26,2.4-1.88.79-.62,1.56-1.21,2.32-1.76.22-.18.4-.26.53-.24.12.02.25.15.37.39l.48,1.05.6-.2-1.82-5.42-.6.2c.08.3.14.54.17.74.04.2.04.38,0,.54-.03.16-.12.32-.25.46-.14.15-.32.32-.55.52-.77.65-1.61,1.33-2.5,2.04-.9.72-1.8,1.43-2.74,2.15l-5.91,4.62.5,1.5h.02Z" fill="#b2aead"/>
  <path d="M627.03,85.32c-.16.05-.4.09-.7.14l-8.66,1.36c-.57.09-1.07.16-1.51.21-.44.05-.84.07-1.2.07-.49,0-.81-.13-.97-.39s-.3-.67-.43-1.23l-.62.1.81,5.14.63-.1c-.05-.73-.05-1.25,0-1.56.06-.31.32-.54.78-.69.34-.11.74-.22,1.17-.3.43-.09.93-.17,1.5-.26l8.74-1.38v.03c-1.96,1.94-3.91,3.85-5.84,5.74-1.94,1.89-3.89,3.77-5.86,5.65l.23,1.45,10.7-1.69c1.1-.17,2-.26,2.72-.26.46-.01.78.11.93.38.16.27.31.68.46,1.24l.62-.1-.82-5.2-.62.1c.06.73.05,1.25-.02,1.57-.06.32-.32.54-.76.67-.68.22-1.57.42-2.67.6l-7.69,1.21.05-.06c1.78-1.76,3.56-3.5,5.34-5.22,1.78-1.73,3.58-3.46,5.37-5.2l-.66-4.17-.62.1c.04.5.06.88.06,1.14s-.03.47-.1.62c-.08.14-.2.24-.36.29" fill="#b2aead"/>
  <path d="M629.85,104.7c-.04.26-.1.46-.19.6-.1.14-.23.21-.4.24-.17.02-.41.04-.72.04l-11.18.18c-.31,0-.55,0-.73-.02-.19-.02-.32-.09-.41-.22-.09-.14-.16-.33-.2-.59-.04-.26-.09-.64-.14-1.13h-.63l.1,6.19h.63c.03-.49.06-.87.1-1.13.03-.27.09-.47.18-.61.08-.14.21-.22.4-.25.18-.04.42-.05.73-.06l11.18-.19c.31,0,.55,0,.72.03s.3.1.4.24c.1.13.17.33.21.6.04.27.09.64.13,1.12h.63l-.1-6.19h-.63c-.03.51-.06.89-.09,1.15" fill="#b2aead"/>
  <path d="M630.18,118.98l.62-5.69-.63-.07c-.05.3-.1.55-.15.75-.06.2-.13.36-.23.5-.1.13-.24.24-.42.31-.19.08-.43.16-.72.24-.97.26-2.02.53-3.12.8-1.11.27-2.24.54-3.38.8l-7.3,1.72-.17,1.57,7.29,3.63c1.17.59,2.26,1.14,3.26,1.67,1,.52,1.78.95,2.32,1.28.26.14.45.28.58.4s.23.25.29.39.1.31.11.5c0,.2,0,.44-.01.75l.63.07.53-4.86-.63-.07-.25,1.18c-.07.28-.16.44-.27.48-.11.03-.27.01-.47-.06-.48-.17-1.15-.46-2.03-.87-.87-.41-1.84-.88-2.89-1.4l-6.06-2.98.06-.02,5.88-1.44c1.01-.24,2-.47,2.97-.7.97-.23,1.92-.44,2.84-.63.28-.07.47-.07.58,0,.11.07.17.24.18.51v1.15l.62.07-.03.02Z" fill="#b2aead"/>
  <path d="M627.33,132.74c-.11.24-.22.41-.35.52-.12.11-.28.15-.45.12-.18-.03-.41-.08-.7-.16l-10.81-2.87c-.29-.08-.53-.15-.7-.22-.17-.06-.28-.17-.33-.33-.05-.15-.06-.36-.03-.62.03-.26.09-.64.18-1.13l-.61-.16-3.02,11.33,3.63,1.23.17-.64c-.61-.3-1.09-.6-1.43-.9-.34-.3-.56-.63-.68-1s-.15-.8-.08-1.29c.06-.49.18-1.06.35-1.73.14-.5.26-.94.4-1.31.12-.37.26-.65.42-.85.15-.2.35-.3.59-.32.24-.02.62.05,1.14.19l4.75,1.26-.8,3c-.12.46-.26.81-.39,1.06-.13.24-.3.41-.49.51-.2.09-.42.13-.66.12-.24-.02-.54-.04-.89-.07l-.17.64,4.5,1.2.18-.64c-.32-.14-.59-.27-.81-.37-.22-.11-.38-.25-.49-.43s-.16-.41-.16-.68.07-.64.19-1.11l.8-3,5.16,1.38c.35.09.56.2.61.31.06.11.04.35-.05.7l-.56,2.08c-.16.61-.34,1.1-.51,1.47-.18.37-.41.64-.68.82-.28.17-.6.28-.99.3-.38.03-.86,0-1.44-.07l-.17.64,3.5.93,2.87-10.8-.61-.16c-.17.47-.3.83-.4,1.07" fill="#b2aead"/>
  <path d="M622.54,148.79c-.14.23-.27.38-.42.46-.14.09-.3.11-.46.05-.17-.05-.39-.13-.67-.25l-10.28-4.39c-.28-.12-.5-.22-.66-.31s-.26-.21-.28-.37c-.02-.16,0-.36.06-.62.06-.25.18-.62.34-1.09l-.58-.25-2.43,5.68.59.25c.22-.42.4-.76.55-.99.14-.23.27-.39.41-.48.13-.09.28-.11.47-.07.18.05.41.13.69.25l4.73,2.02-.61,1.43c-.26.62-.61,1.08-1.04,1.41-.43.32-1.03.43-1.79.31-.16-.02-.36-.07-.64-.14-.27-.06-.57-.13-.88-.2-.31-.07-.64-.14-.95-.21-.33-.06-.62-.12-.9-.18-.71-.14-1.27-.07-1.69.2s-.76.71-1.02,1.33l-.7,1.64.58.25c.2-.37.43-.65.7-.84.28-.19.56-.3.86-.35s.63-.04.98.02c.34.07.7.14,1.05.24.48.14.93.25,1.36.32s.84.07,1.24.02c.4-.06.79-.21,1.18-.45.38-.24.75-.61,1.11-1.1l.05.02c-.22,1.05-.16,2.02.18,2.9.34.88.99,1.54,1.96,1.95.5.21.98.32,1.48.34.49,0,.98-.1,1.45-.33.48-.23.93-.62,1.36-1.15.44-.53.85-1.25,1.23-2.15l2.53-5.92-.58-.25c-.23.44-.42.78-.56,1M620.98,152.25c-.06.21-.16.49-.3.82-.16.37-.36.73-.61,1.09-.25.35-.54.63-.89.84-.34.21-.76.32-1.22.35-.47.03-1.01-.09-1.6-.34-1.07-.46-1.74-1.05-2-1.79-.26-.74-.17-1.61.26-2.61l.69-1.62,5,2.13c.21.09.38.18.51.26.13.09.21.2.23.34.02.13,0,.31-.06.52" fill="#b2aead"/>
  <path d="M612.78,162.43c-.5-.29-.99-.46-1.49-.49-.5-.04-.99,0-1.49.15-.49.14-.99.37-1.47.68s-.97.67-1.44,1.06l-.31.25c-.21.16-.48.35-.81.55s-.7.38-1.09.52c-.4.14-.82.22-1.26.23-.44,0-.87-.12-1.3-.36-.84-.5-1.35-1.13-1.53-1.89-.18-.76-.02-1.56.48-2.4.54-.91,1.3-1.46,2.29-1.67.99-.21,2.09-.11,3.3.29l.35-.59-3.15-1.62c-.65.2-1.28.59-1.88,1.18s-1.1,1.22-1.5,1.9c-.5.84-.81,1.62-.94,2.35-.13.72-.12,1.38.02,1.98.14.59.39,1.11.75,1.56.36.44.79.81,1.28,1.1.56.33,1.11.53,1.65.61.53.07,1.06.04,1.58-.1s1.04-.37,1.56-.68c.52-.32,1.04-.7,1.57-1.14l.57-.46c.61-.51,1.26-.87,1.94-1.09s1.32-.16,1.89.18c.69.41,1.15.95,1.35,1.64.21.68.08,1.43-.4,2.23-.94,1.61-2.45,1.99-4.52,1.17l-.35.6,2.7,1.59c.44-.18.91-.53,1.41-1.04s.93-1.08,1.32-1.73c.34-.58.59-1.17.75-1.79s.21-1.22.16-1.79c-.06-.58-.25-1.12-.57-1.64-.32-.51-.8-.95-1.42-1.32" fill="#b2aead"/>
  <path d="M607.46,176.92c-.19.19-.36.3-.51.36-.16.05-.31.03-.46-.05s-.35-.22-.6-.4l-9.03-6.59c-.24-.18-.44-.33-.57-.46-.14-.12-.2-.26-.19-.42.02-.16.08-.36.2-.58.12-.24.31-.57.57-.99l-.51-.37-3.64,4.99.51.37c.32-.36.57-.64.76-.84.19-.19.36-.32.51-.38s.31-.05.47.04c.16.08.37.22.62.4l9.03,6.59c.24.18.43.33.55.46.12.12.18.27.18.44s-.07.36-.19.6-.32.57-.57.98l.51.37,3.64-4.99-.51-.37c-.33.37-.58.66-.76.85" fill="#b2aead"/>
  <path d="M599.43,182.79c.41.45.72.86.92,1.19.2.34.29.66.29.98s-.11.65-.33,1c-.21.35-.54.76-.98,1.24l-.87.96-9.22-8.4c-.22-.21-.39-.38-.51-.53s-.15-.31-.1-.49c.04-.18.16-.39.36-.67.19-.27.47-.63.85-1.1l-.47-.43-4.77,5.22.47.43c.43-.41.76-.73,1.01-.94.25-.22.46-.36.62-.41.17-.06.33-.04.49.06.16.1.36.24.58.45l9.21,8.41-.89.98c-.44.48-.82.84-1.15,1.09-.33.24-.65.38-.95.41-.32.02-.65-.04-1-.21-.35-.17-.77-.44-1.26-.81l-.44.49,2.71,2.48,8.6-9.42-2.72-2.48-.45.49h0Z" fill="#b2aead"/>
  <path d="M582.83,191.09c-.4-1.21-.77-2.34-1.12-3.39-.09-.29-.16-.55-.2-.76-.04-.21-.04-.4,0-.59.04-.18.13-.35.26-.52s.33-.36.59-.59l-.4-.5-3.79,3.03.4.49.97-.63c.28-.17.49-.23.61-.17.13.05.26.23.37.53.27.64.53,1.31.79,1.98.26.67.53,1.41.82,2.21l-3.86,3.08-3.81-2.37c-.29-.18-.45-.35-.48-.51-.03-.16.09-.37.35-.63l.73-.7-.4-.49-4.44,3.55.4.5c.28-.17.51-.31.68-.42.18-.1.35-.17.52-.19.16-.02.34,0,.51.09.18.08.39.21.64.37l12.01,7.48,1.28-1.03-2.27-6.57c-.35-.97-.73-2.05-1.14-3.26M584.64,199.34l-5.65-3.57,3.43-2.75c.43,1.09.83,2.16,1.2,3.22.37,1.07.74,2.08,1.09,3.05l-.07.05Z" fill="#b2aead"/>
  <path d="M572.51,204.05c-.4-.3-.85-.52-1.34-.67-.49-.15-1.03-.22-1.61-.21-.58,0-1.17.04-1.78.11l-.4.04c-.26.03-.59.04-.98.04s-.79-.06-1.2-.15c-.41-.09-.81-.25-1.18-.48-.38-.23-.68-.57-.9-1.01-.45-.87-.54-1.67-.28-2.41.26-.73.83-1.33,1.7-1.77.94-.48,1.88-.54,2.82-.18.95.36,1.82,1.03,2.62,2.01l.62-.31-1.78-3.06c-.65-.19-1.4-.19-2.22-.02-.83.17-1.59.44-2.29.79-.87.44-1.56.94-2.05,1.48-.5.54-.84,1.1-1.05,1.68-.2.57-.27,1.15-.21,1.71.06.57.23,1.11.48,1.62.3.58.65,1.04,1.06,1.4.41.35.88.6,1.39.76.51.16,1.07.24,1.68.25s1.26-.03,1.94-.11l.73-.08c.79-.1,1.53-.06,2.22.12.7.18,1.19.57,1.5,1.17.37.72.45,1.42.27,2.11-.19.68-.7,1.24-1.54,1.67-1.66.84-3.14.36-4.44-1.45l-.61.32,1.42,2.79c.47.08,1.06.05,1.75-.11s1.37-.41,2.04-.75c.59-.31,1.13-.67,1.59-1.1.47-.43.84-.91,1.1-1.43.26-.52.4-1.08.4-1.69s-.16-1.23-.49-1.88c-.26-.51-.59-.92-.99-1.22" fill="#b2aead"/>
  <polygon points="546.27 207.85 551.69 207.9 551.71 206.35 546.28 206.3 546.27 207.85" fill="#b2aead"/>
  <path d="M48.49,163.36c.86-.34,1.32-.9,1.37-1.67.06-.77-.17-1.72-.68-2.87l-6.84-15.9c-1.88-.17-3.92-.29-6.12-.34-2.2-.06-4.23-.09-6.11-.09-2,0-4.07.03-6.2.09-2.14.05-4.24.17-6.29.34l-5.81,14.2c-.81,1.94-1.23,3.31-1.28,4.1-.06.8.37,1.51,1.28,2.14H0c1.71-1.08,3.11-2.96,4.19-5.65l20.27-50.72c.52-1.26.85-2.17.98-2.73.14-.57.22-.97.22-1.2,0-.46-.22-1.1-.64-1.92-.43-.83-1.04-1.3-1.84-1.42h13.68l24.38,57.91c.63,1.48,1.34,2.74,2.14,3.76.8,1.03,1.57,1.68,2.31,1.97h-17.2,0ZM29.68,112.54l-9.75,24.47c1.65.11,3.3.19,4.96.26,1.66.05,3.25.09,4.79.09s3.15-.03,5-.09,3.58-.14,5.17-.26l-10.18-24.47h.01Z" fill="#b2aead"/>
  <path d="M112.14,163.36l-.09-5.64c-2.34,2.51-5.07,4.42-8.21,5.73s-6.39,1.97-9.75,1.97c-3.65,0-6.88-.54-9.71-1.62-2.83-1.09-5.2-2.66-7.14-4.71s-3.4-4.53-4.4-7.44-1.5-6.16-1.5-9.75v-35.92c0-1.83-.25-3.16-.73-4.02-.48-.86-1.15-1.6-2.01-2.23h17.96c-.82.51-1.51,1.23-2.07,2.14-.56.92-.84,2.28-.84,4.11v32.33c0,2.28.17,4.59.52,6.93.34,2.33,1,4.42,1.98,6.24.97,1.82,2.35,3.32,4.12,4.49,1.78,1.18,4.08,1.76,6.89,1.76,2.18,0,4.18-.4,6.02-1.2s3.42-1.81,4.74-3.04,2.35-2.58,3.1-4.07c.74-1.48,1.11-2.93,1.11-4.37v-39c0-.46-.02-.94-.09-1.46-.05-.51-.17-1.05-.35-1.62s-.45-1.12-.84-1.67c-.38-.54-.9-1.07-1.54-1.58h17.79c-1.14.74-1.86,1.68-2.17,2.82s-.47,2.25-.47,3.33v50.98c0,1.37.18,2.64.56,3.81.37,1.17,1.09,2.07,2.18,2.69h-15.06Z" fill="#b2aead"/>
  <path d="M178.85,145.91c0,3.36-.67,6.28-2.01,8.72-1.34,2.45-3.12,4.48-5.34,6.08-2.22,1.59-4.76,2.78-7.61,3.55s-5.79,1.15-8.81,1.15c-1.32,0-2.92-.08-4.84-.25-1.91-.17-3.82-.46-5.73-.86-1.92-.39-3.72-.92-5.43-1.58-1.71-.66-3.02-1.5-3.93-2.53-.34-.45-.58-1.21-.73-2.27-.14-1.05-.23-2.21-.25-3.47-.03-1.25-.03-2.49,0-3.72s.07-2.21.13-2.95c1.31,1.88,2.68,3.54,4.11,4.96,1.42,1.42,2.95,2.64,4.57,3.64,1.63,1,3.4,1.74,5.3,2.22,1.91.49,4.01.73,6.29.73,1.59,0,3.15-.17,4.66-.52,1.51-.34,2.86-.89,4.06-1.67,1.2-.77,2.15-1.78,2.86-3.03.71-1.26,1.07-2.77,1.07-4.53,0-2.17-.76-4.19-2.27-6.07-1.51-1.88-3.42-3.72-5.73-5.52-2.31-1.79-4.79-3.59-7.44-5.39-2.65-1.79-5.13-3.68-7.44-5.64-2.31-1.97-4.22-4.06-5.73-6.29s-2.27-4.68-2.27-7.35c0-2.96.7-5.45,2.09-7.45,1.4-1.99,3.18-3.6,5.35-4.83,2.17-1.22,4.56-2.1,7.18-2.61,2.62-.52,5.16-.77,7.61-.77,1.2,0,2.54.07,4.02.21,1.48.14,2.98.34,4.49.6,1.51.26,2.96.57,4.36.94s2.55.78,3.47,1.24l.94,10.26c-1.66-1.99-3.95-3.69-6.89-5.09s-6.2-2.1-9.79-2.1c-1.26,0-2.52.11-3.81.35-1.28.22-2.44.61-3.46,1.15-1.03.54-1.87,1.29-2.53,2.22-.66.94-.98,2.1-.98,3.47,0,1.99.75,3.84,2.27,5.52,1.51,1.68,3.39,3.32,5.64,4.91,2.25,1.6,4.69,3.21,7.32,4.83,2.62,1.63,5.06,3.41,7.31,5.35s4.13,4.08,5.65,6.42c1.51,2.34,2.27,4.99,2.27,7.95" fill="#b2aead"/>
  <path d="M243.35,99.12c-.51.85-1.16,1.74-1.93,2.65-.77.92-1.61,1.74-2.52,2.48-.91.74-1.82,1.36-2.73,1.84-.92.48-1.71.72-2.4.72-.34,0-1.18-.01-2.52-.04-1.34-.03-2.81-.06-4.41-.09s-3.14-.05-4.62-.08-2.51-.05-3.08-.05v50.47c0,1.31.21,2.52.64,3.64.42,1.11,1.15,2.01,2.17,2.69h-17.87c1.14-.8,1.88-1.71,2.22-2.74.34-1.02.52-2.16.52-3.42v-50.64h-16.42c-1.31,0-2.64.12-3.98.34-1.34.23-2.58.66-3.72,1.28l2.82-8.47h44.39c2.22,0,4.46-.07,6.72-.21,2.25-.14,4.48-.27,6.71-.38" fill="#b2aead"/>
  <path d="M310.15,163.38c-3.08-.02-11.13,0-13.41,0-3.33,0-5.78-.55-7.4-1.77-.95-.71-2.49-2.45-4.94-5.76-2.46-3.3-5.71-8.29-9.75-14.97-.69-1.19-1.39-2.22-2.11-3.08-.72-.85-1.52-1.58-2.41-2.18-.89-.6-1.9-1.04-3.02-1.32-1.11-.29-2.42-.43-3.92-.43v23.35c0,1.14.24,2.26.7,3.37.47,1.12,1.21,2.04,2.2,2.78h-17.96c1.83-1.37,2.74-3.13,2.74-5.3v-52.18c0-1.31-.17-2.46-.51-3.46-.34-.99-1.08-1.89-2.22-2.69h22.75c3.08,0,5.99.32,8.73.94,2.73.63,5.13,1.58,7.18,2.86,2.05,1.29,3.67,2.9,4.84,4.83,1.16,1.94,1.75,4.19,1.75,6.76s-.59,4.58-1.75,6.37c-1.17,1.79-2.67,3.32-4.5,4.57-1.82,1.26-3.84,2.27-6.03,3.04-2.2.77-4.29,1.32-6.28,1.67,1.82-.11,3.59.36,5.3,1.41,1.71,1.06,3.38,2.47,5,4.23,1.62,1.77,3.22,3.78,4.79,6.03s3.12,4.55,4.66,6.89c1.37,2.05,2.67,3.82,3.9,5.31,1.22,1.48,2.42,2.74,3.59,3.76,1.17,1.03,6.1,4.97,8.09,4.98M280.3,116.31c0-1.99-.4-3.69-1.2-5.09-.81-1.39-1.87-2.52-3.22-3.38s-2.87-1.48-4.56-1.89c-1.69-.4-3.45-.59-5.28-.59-.92,0-1.87.08-2.84.25v22.67c1.03.17,2.09.25,3.18.25,1.72,0,3.41-.27,5.07-.81,1.66-.54,3.15-1.33,4.47-2.35,1.32-1.03,2.38-2.31,3.18-3.85s1.2-3.28,1.2-5.22" fill="#b2aead"/>
  <path d="M356.33,163.36c.86-.34,1.32-.9,1.37-1.67.06-.77-.17-1.72-.67-2.87l-6.85-15.9c-1.88-.17-3.92-.29-6.11-.34-2.19-.06-4.23-.09-6.11-.09-1.99,0-4.06.03-6.2.09-2.14.05-4.23.17-6.29.34l-5.81,14.2c-.8,1.94-1.23,3.31-1.29,4.1-.05.8.37,1.51,1.29,2.14h-11.8c1.71-1.08,3.11-2.96,4.19-5.65l20.27-50.72c.51-1.26.84-2.17.98-2.73.14-.57.22-.97.22-1.2,0-.46-.22-1.1-.64-1.92-.43-.83-1.04-1.3-1.84-1.42h13.69l24.38,57.91c.62,1.48,1.34,2.74,2.14,3.76.8,1.03,1.57,1.68,2.31,1.97h-17.23ZM337.52,112.54l-9.75,24.47c1.65.11,3.31.19,4.96.26,1.65.05,3.26.09,4.79.09s3.16-.03,5-.09c1.86-.06,3.58-.14,5.18-.26,0,0-10.18-24.47-10.18-24.47Z" fill="#b2aead"/>
  <path d="M423.05,163.36h-45.59c.97-.86,1.64-1.7,2.01-2.52s.56-1.98.56-3.46v-51.49c0-1.2-.14-2.28-.43-3.25-.28-.97-1.05-1.94-2.3-2.91h17.79c-1.2.8-1.95,1.76-2.27,2.87-.31,1.11-.47,2.21-.47,3.29v50.98c1.43.17,3.11.3,5.05.38,1.94.09,3.54.13,4.79.13,1.94,0,3.9,0,5.9-.04s3.96-.14,5.9-.34c1.94-.21,3.82-.5,5.65-.9,1.82-.4,3.51-.97,5.05-1.71l-1.63,8.98h-.01Z" fill="#b2aead"/>
  <path d="M85.22,80.94v-13.56c0-.28.04-.58.12-.89.09-.3.28-.55.58-.75h-4.73c.17.14.31.28.41.43.1.14.17.29.23.44.04.16.07.3.09.43.02.14.02.27.02.39v10.37c0,.38-.09.77-.29,1.16-.2.39-.48.76-.82,1.08-.35.33-.78.6-1.26.81-.49.21-1.03.32-1.61.32-.75,0-1.36-.15-1.83-.46-.48-.32-.84-.71-1.1-1.2s-.43-1.04-.53-1.66c-.09-.62-.14-1.23-.14-1.84v-8.6c0-.48.08-.85.22-1.09.15-.24.33-.43.55-.57h-4.78c.23.17.41.37.54.59.13.23.19.59.19,1.07v9.55c0,.96.14,1.82.4,2.59s.66,1.43,1.17,1.98c.51.55,1.15.96,1.9,1.25s1.61.44,2.58.44c.89,0,1.76-.18,2.59-.53.83-.35,1.56-.86,2.18-1.53l.02,1.5h4.01c-.28-.16-.48-.41-.58-.72s-.15-.64-.15-1.01" fill="#b2aead"/>
  <path d="M112.3,66.35c.12.22.19.48.19.78v10.26l-9.83-11.65h-3.23c.29.22.48.44.58.67.1.24.15.56.15.97v13.76c0,.31-.04.57-.14.81-.09.24-.29.48-.59.71h3.39c-.26-.18-.44-.41-.56-.68-.11-.28-.17-.55-.17-.82v-11.52l10.98,13.01h1.35v-15.44c0-.32.07-.62.2-.89.14-.27.31-.47.52-.59h-3.36c.21.18.39.39.52.61" fill="#b2aead"/>
  <path d="M132.8,66.46c.09-.28.3-.52.6-.72h-4.73c.3.25.5.49.58.74s.13.54.13.85v13.78c0,.3-.05.58-.14.82s-.27.48-.54.73h4.71c-.23-.17-.41-.39-.55-.65s-.2-.55-.2-.86v-13.8c0-.32.05-.62.15-.9" fill="#b2aead"/>
  <path d="M158.48,66.37c-.02.25-.14.66-.35,1.22l-3.83,9.78-3.84-9.49c-.26-.65-.41-1.14-.44-1.46-.04-.32.07-.54.33-.68h-4.66c.26.12.5.35.73.67.22.32.42.71.59,1.15l6.14,15.1h1.07l5.87-15.08c.17-.41.35-.78.56-1.12.2-.33.46-.57.76-.73h-3.21c.21.17.31.38.28.63" fill="#b2aead"/>
  <path d="M183.35,81.01c-.46.04-.92.06-1.4.06h-2.12c-.25,0-.51-.02-.76-.03-.26,0-.52-.02-.77-.04-.26-.02-.48-.05-.66-.08v-6.44h4.05c.14,0,.31,0,.52.01.22.01.43.03.65.06s.43.08.64.12c.2.06.37.13.49.22l-.32-2.14c-.46.06-.94.11-1.45.14s-1.02.05-1.55.06c-.52.01-1.04.02-1.55.02-.52.01-1.01.02-1.48.02v-5.65h5.16c.44,0,.85.01,1.25.03.39.03.74.12,1.05.29l-.25-1.91h-11.21c.31.21.5.45.59.71s.14.58.14.98v13.6c0,.39-.05.71-.14.94-.09.24-.28.47-.57.69h11.99l.3-2.36c-.41.23-.83.39-1.27.5-.43.11-.87.18-1.33.21" fill="#b2aead"/>
  <path d="M213.05,81.35c-.31-.27-.63-.61-.96-1-.32-.39-.67-.87-1.03-1.41-.41-.62-.82-1.24-1.24-1.84s-.84-1.13-1.27-1.6c-.44-.47-.88-.84-1.33-1.12-.46-.28-.92-.41-1.41-.38.53-.09,1.09-.24,1.67-.44.59-.21,1.12-.48,1.61-.81.48-.33.88-.74,1.19-1.22.31-.47.47-1.04.47-1.7s-.16-1.28-.47-1.8c-.31-.51-.74-.94-1.28-1.28s-1.18-.6-1.91-.76c-.73-.17-1.5-.25-2.32-.25h-6.05c.3.22.5.45.59.72.09.26.14.57.14.92v13.87c0,.58-.24,1.05-.72,1.41h4.77c-.26-.2-.45-.44-.58-.74-.12-.3-.18-.6-.18-.9v-6.21c.39,0,.74.04,1.04.12.29.07.57.19.8.35.24.16.45.36.64.58s.39.5.57.82c1.08,1.77,1.94,3.1,2.6,3.98.65.88,1.1,1.41,1.36,1.59.18.12.34.22.48.29s.28.12.42.16.3.06.48.07h.6c.61,0,1.14-.02,1.61-.08.46-.05.99-.13,1.6-.21-.32-.13-.63-.27-.93-.45-.31-.18-.61-.41-.92-.68M204.91,73.19c-.45.15-.89.22-1.35.22-.29,0-.57-.02-.85-.07v-6.03c.26-.05.51-.07.75-.07.49,0,.96.05,1.41.16s.85.27,1.21.5c.36.22.65.52.86.89.22.38.32.83.32,1.36s-.11.97-.32,1.38c-.21.41-.49.75-.85,1.03-.35.27-.75.48-1.18.63" fill="#b2aead"/>
  <path d="M236.23,74.2c-.6-.51-1.25-.98-1.94-1.42-.7-.43-1.35-.86-1.95-1.28-.6-.42-1.1-.86-1.5-1.31s-.61-.94-.61-1.47c0-.37.09-.67.26-.92s.4-.45.67-.59c.28-.14.58-.24.92-.31.34-.06.68-.09,1.01-.09.96,0,1.82.19,2.6.55.78.38,1.39.83,1.83,1.36l-.24-2.73c-.24-.12-.56-.23-.92-.33-.38-.1-.77-.18-1.16-.25-.41-.07-.8-.12-1.2-.16-.39-.03-.75-.06-1.07-.06-.65,0-1.33.07-2.03.21s-1.33.37-1.91.69c-.58.33-1.05.76-1.42,1.28-.37.53-.55,1.19-.55,1.98,0,.71.2,1.36.6,1.96.4.59.91,1.15,1.52,1.67s1.27,1.02,1.98,1.5c.7.48,1.36.96,1.98,1.43.61.48,1.12.97,1.52,1.47.4.5.6,1.04.6,1.62,0,.47-.09.87-.29,1.2-.19.33-.44.6-.76.8-.32.21-.68.35-1.08.45-.41.09-.82.14-1.24.14-.61,0-1.17-.07-1.67-.19-.51-.12-.98-.33-1.41-.59-.43-.26-.84-.59-1.22-.97-.38-.38-.75-.83-1.1-1.32,0,.2-.02.46-.03.79v.98c0,.34.03.64.07.92.03.28.1.48.19.6.24.28.59.5,1.05.67.45.18.93.32,1.44.42.51.11,1.02.18,1.52.23.51.04.94.07,1.29.07.8,0,1.58-.1,2.34-.31.75-.21,1.43-.52,2.02-.95.59-.43,1.06-.97,1.42-1.61.35-.65.54-1.43.54-2.32,0-.79-.2-1.49-.6-2.12-.4-.62-.91-1.19-1.5-1.71" fill="#b2aead"/>
  <path d="M255.79,66.46c.1-.28.3-.52.6-.72h-4.73c.3.25.49.49.58.74.08.25.13.54.13.85v13.78c0,.3-.05.58-.14.82s-.28.48-.54.73h4.71c-.23-.17-.41-.39-.55-.65-.13-.26-.21-.55-.21-.86v-13.8c0-.32.05-.62.15-.9" fill="#b2aead"/>
  <path d="M283.35,67.96c-.91-.73-1.97-1.29-3.18-1.66s-2.51-.56-3.87-.56h-6.26c.26.18.45.4.56.64s.16.58.16,1.03v13.74c0,.35-.05.64-.15.88-.11.23-.29.45-.55.65h7.69c1.24,0,2.39-.18,3.42-.56,1.04-.37,1.93-.91,2.7-1.62.76-.7,1.35-1.56,1.77-2.56.42-1,.64-2.14.64-3.41,0-1.46-.26-2.73-.78-3.82s-1.24-2.01-2.15-2.74M282.48,76.81c-.19.81-.5,1.54-.92,2.19-.41.65-.96,1.17-1.63,1.57s-1.48.6-2.44.6c-.28,0-.57,0-.89-.01s-.64-.02-.95-.04c-.32-.01-.61-.04-.88-.06-.28-.03-.52-.06-.73-.09v-13.61c.27-.05.54-.08.81-.09.27-.02.53-.03.81-.03,1.12,0,2.13.17,3.01.5.88.34,1.63.81,2.23,1.43s1.07,1.37,1.38,2.25c.32.88.47,1.86.47,2.93,0,.82-.09,1.64-.28,2.44" fill="#b2aead"/>
  <path d="M314.35,81.14l-6.48-15.4h-3.64c.21.03.37.15.49.38.11.22.17.39.17.51,0,.06-.02.17-.06.32s-.12.39-.26.73l-5.39,13.49c-.29.71-.66,1.21-1.12,1.49h3.15c-.25-.16-.36-.36-.35-.57.02-.21.13-.58.35-1.09l1.54-3.78c.55-.05,1.1-.08,1.67-.09.57-.01,1.12-.02,1.65-.02.5,0,1.04,0,1.63.02.58.02,1.12.04,1.63.09l1.82,4.23c.13.3.19.56.18.76-.02.2-.14.35-.36.44h4.57c-.19-.07-.4-.25-.61-.52s-.4-.61-.57-1M307.3,75.73c-.5,0-.94.02-1.34.02s-.83-.01-1.27-.02c-.44-.02-.88-.04-1.32-.07l2.59-6.51,2.71,6.51c-.42.03-.88.05-1.37.07" fill="#b2aead"/>
  <path d="M343.11,70.7c-.53-1.09-1.24-2.01-2.15-2.74-.91-.73-1.98-1.29-3.19-1.66s-2.51-.56-3.86-.56h-6.26c.26.18.45.4.57.64.11.24.16.58.16,1.03v13.74c0,.35-.05.64-.16.88-.11.23-.29.45-.55.65h7.69c1.25,0,2.38-.18,3.42-.56,1.04-.37,1.94-.91,2.7-1.62.76-.7,1.35-1.56,1.77-2.56.43-1,.64-2.14.64-3.41,0-1.46-.26-2.73-.79-3.82M340.08,76.81c-.19.81-.5,1.54-.91,2.19s-.96,1.17-1.63,1.57-1.48.6-2.44.6c-.27,0-.57,0-.89-.01s-.64-.02-.95-.04c-.32-.01-.61-.04-.88-.06-.28-.03-.52-.06-.73-.09v-13.61c.27-.05.54-.08.81-.09.26-.02.53-.03.81-.03,1.12,0,2.13.17,3.01.5.88.34,1.63.81,2.23,1.43.61.62,1.07,1.37,1.38,2.25s.47,1.86.47,2.93c0,.82-.1,1.64-.29,2.44" fill="#b2aead"/>
</svg>