<?xml version="1.0" encoding="UTF-8"?>
<svg id="svg2" xmlns="http://www.w3.org/2000/svg" width="256" height="256" viewBox="0 0 256 256">
  <path d="M220.04,182.59c-2.26,0-2.29,2.96-2.29,4.59,0,4.56,1.1,4.89,2.29,4.89s2.29-.33,2.29-4.89c0-1.63-.03-4.59-2.29-4.59Z" fill="#b2aead"/>
  <path d="M63.06,228.19c-1.73,0-2.43,1.36-2.36,2.93h4.76c0-1.66-.53-2.93-2.4-2.93Z" fill="#b2aead"/>
  <path d="M195.31,228.19c-1.73,0-2.43,1.36-2.36,2.93h4.76c0-1.66-.53-2.93-2.4-2.93Z" fill="#b2aead"/>
  <path d="M0,0v256h256V0H0ZM109.02,14.12c11.4-1.36,25.97,8.94,34.52,8.73,8.55-.21,18.3-8.81,18.3-8.81l10.21,15.84s-10.8,14.21-23.76,15c-16.77,1.02-28.47-10.29-37.36-8.52-8.97,1.79-15.38,6.86-15.38,6.86l-10.29-17.16s12.07-10.55,23.76-11.95ZM122.33,177.13v-4.53h6.59v4.53h-6.59ZM128.92,178.76v16.99h-6.59v-16.99h6.59ZM25.95,93.67h59.32v-29.15h28.12v87.43h-28.12v-29.15H25.95v-29.14ZM109.79,191.13c.63,0,1.26-.13,1.9-.3v4.76l-3.89.5c-1.76.23-3.46-.33-4.76-1.73-1.3-1.4-1.26-3.03-1.26-4.86v-6.42h-2.46v-4.32h2.76l.5-5.42,5.72-.2v5.62h3.39v4.32h-3.33v5.85c0,1.23-.13,2.2,1.43,2.2ZM35.8,172.94v22.82h-7.05v-22.82h7.05ZM37.35,223.6c-3.1,0-3.23,4.76-3.23,6.92,0,2.29.13,6.19,3.29,6.19,2.16,0,2.99-1.9,3.09-3.79l6.39.4c-.43,5.25-4.26,8.65-9.51,8.65-6.85,0-10.44-4.96-10.44-11.44s3.16-12.04,10.34-12.04c5.82,0,9.14,3.45,9.61,9.14l-6.52.33c.07-1.93-.66-4.36-3.02-4.36ZM53.62,195.75h-6.59v-16.99h6.22v2.4h.07c.8-1.93,2.76-2.73,4.82-2.73,1.6,0,3.43.47,4.42,1.76,1.06,1.4,1.06,3.33,1.06,5.09v10.47h-6.58v-10.31c0-1.03,0-2.46-1.43-2.46-1.83,0-1.99,1.57-1.99,2.96v9.81ZM72.1,234.44h-11.37c-.1,1.83.56,3.16,2.56,3.16,1.5,0,2.33-.6,2.6-2.06l6.22.4c-1.03,4.12-4.69,6.02-8.71,6.02-2.49,0-4.92-.53-6.85-2.23-1.83-1.63-2.79-3.95-2.79-6.39,0-2.29.9-4.79,2.49-6.42,1.73-1.8,4.32-2.63,6.75-2.63,5.66,0,9.11,3.66,9.11,9.24v.9ZM90.06,230.32c-.4-.1-.83-.16-1.27-.16-1.06,0-2.16.2-2.69,1.16-.46.83-.46,1.93-.46,2.93v7.38h-6.58v-17h5.62v3.49h.07c.57-2.36,1.8-4.03,4.42-3.83l.9.07v5.95ZM82.16,196.09c-3.79,0-7.28-1.23-8.55-5.15l5.29-.7c.37,1.63,2.2,1.83,3.63,1.83.66,0,2.52-.07,2.52-1.06,0-.86-2.26-1.03-2.86-1.1-3.56-.5-7.78-1.2-7.78-5.72,0-1.93,1.03-3.46,2.63-4.46,1.67-1.03,3.56-1.3,5.46-1.3,3.19,0,6.55,1.23,7.68,4.42l-5.02.97c-.5-1.16-1.8-1.5-2.96-1.5-.53,0-2.13.16-2.13.9,0,.53.57.76,1,.86.73.2,2.06.3,2.86.4,1.53.2,3.26.43,4.62,1.26,1.56,1,2.4,2.49,2.4,4.32,0,4.69-4.96,6.02-8.78,6.02ZM107.75,241.63h-4.99l-6.35-17h6.89l2.93,8.98.6-1.8,2.39-7.18h4.76l-6.22,17ZM131.23,241.63c-.17-.77-.23-1.56-.23-2.36-1.33,1.96-3.22,2.69-5.55,2.69-3.16,0-5.92-1.73-5.92-5.12,0-2.69,2.09-4.49,4.46-5.22,2.17-.66,4.46-.93,6.69-1.06v-.13c0-1.53-.4-2.13-2-2.13-1.29,0-2.39.47-2.59,1.9l-6.05-.56c1-4.22,5.02-5.32,8.84-5.32,2,0,4.56.27,6.22,1.46,2.23,1.56,1.96,3.76,1.96,6.19v5.96c0,1.26.03,2.52.53,3.72h-6.35ZM141.42,189.5v-6.42h-2.46v-4.32h2.76l.5-5.42,5.72-.2v5.62h3.39v4.32h-3.33v5.85c0,1.23-.13,2.2,1.43,2.2.63,0,1.26-.13,1.9-.3v4.76l-3.89.5c-1.76.23-3.46-.33-4.76-1.73-1.3-1.4-1.26-3.03-1.26-4.86ZM160.93,241.63h-6.58v-10.31c0-1.03,0-2.46-1.43-2.46-1.83,0-1.99,1.56-1.99,2.96v9.81h-6.58v-17h6.22v2.4h.07c.8-1.93,2.76-2.73,4.82-2.73,1.59,0,3.43.47,4.42,1.76,1.06,1.4,1.06,3.33,1.06,5.09v10.48ZM163.1,194.79c-1.2-1.2-1.33-2.69-1.33-4.29v-11.74h6.58v10.27c0,1.1-.03,2.26,1.47,2.26.66,0,1.29-.37,1.59-.97.3-.57.33-1.16.33-1.8v-9.77h6.58v16.99h-6.22v-2.79h-.07c-.7,2.2-2.96,3.13-5.15,3.13-1.4,0-2.76-.33-3.79-1.3ZM179.49,228.95h-3.33v5.85c0,1.23-.14,2.19,1.43,2.19.63,0,1.26-.13,1.9-.3v4.76l-3.89.5c-1.76.23-3.46-.33-4.76-1.73-1.3-1.4-1.26-3.03-1.26-4.86v-6.42h-2.46v-4.33h2.76l.5-5.42,5.72-.2v5.62h3.39v4.33ZM204.36,234.44h-11.37c-.1,1.83.56,3.16,2.56,3.16,1.5,0,2.33-.6,2.59-2.06l6.22.4c-1.03,4.12-4.69,6.02-8.71,6.02-2.5,0-4.92-.53-6.85-2.23-1.83-1.63-2.79-3.95-2.79-6.39,0-2.29.9-4.79,2.5-6.42,1.73-1.8,4.32-2.63,6.75-2.63,5.65,0,9.11,3.66,9.11,9.24v.9ZM200.95,178.76v4.32h-3.33v5.85c0,1.23-.13,2.2,1.43,2.2.63,0,1.26-.13,1.9-.3v4.76l-3.89.5c-1.76.23-3.46-.33-4.76-1.73-1.3-1.4-1.26-3.03-1.26-4.86v-6.42h-2.46v-4.32h2.76l.5-5.42,5.72-.2v5.62h3.39ZM218.99,241.96c-3.79,0-7.28-1.23-8.55-5.16l5.29-.7c.37,1.63,2.2,1.83,3.63,1.83.66,0,2.53-.07,2.53-1.06,0-.86-2.26-1.03-2.86-1.1-3.56-.5-7.78-1.2-7.78-5.72,0-1.93,1.03-3.46,2.63-4.46,1.66-1.03,3.56-1.3,5.45-1.3,3.19,0,6.55,1.23,7.68,4.42l-5.02.96c-.5-1.16-1.8-1.49-2.96-1.49-.53,0-2.13.16-2.13.89,0,.53.57.77,1,.86.73.2,2.06.3,2.86.4,1.53.2,3.26.43,4.62,1.26,1.56,1,2.4,2.49,2.4,4.32,0,4.69-4.96,6.02-8.78,6.02ZM220.04,196.09c-5.19,0-9.34-3.53-9.34-8.68,0-5.46,4.03-8.98,9.34-8.98s9.35,3.53,9.35,8.98c0,5.15-4.16,8.68-9.35,8.68ZM230.05,122.82h-59.32v29.15h-28.12v-87.43h28.12v29.15h59.32v29.14Z" fill="#b2aead"/>
  <path d="M126.41,236.41c0,1.1.7,1.56,1.73,1.56,2.5,0,2.53-2.09,2.53-3.96v-.33c-1.6.16-4.26.66-4.26,2.73Z" fill="#b2aead"/>
</svg>