<?xml version="1.0" encoding="UTF-8"?>
<svg id="Layer_1" data-name="Layer 1" xmlns="http://www.w3.org/2000/svg" width="169" height="28" viewBox="0 0 169 28">
  <path d="M15.25,20.67H3.97c.54,2.09,2.03,3.16,4.4,3.16,1.63,0,3.57-.62,4.85-1.49l1.54,2.71c-1.91,1.35-4.08,2.06-6.57,2.06-2.66,0-4.65-.76-6.08-2.26-1.4-1.49-2.11-3.36-2.11-5.5,0-2.26.71-4.12,2.17-5.58,1.46-1.47,3.34-2.2,5.65-2.2,2.17,0,4,.68,5.43,2.03,1.4,1.33,2.11,3.13,2.11,5.44.03.48-.03,1.04-.11,1.64ZM3.97,17.82h7.65c-.37-1.95-1.77-3.1-3.77-3.1-1.94-.03-3.43,1.16-3.88,3.1Z" fill="#b2aead"/>
  <path d="M28.21,6.03h3.88v20.73h-3.8v-1.83c-1.23,1.44-2.77,2.17-4.65,2.17-2.11,0-3.91-.73-5.34-2.2-1.4-1.5-2.11-3.36-2.11-5.58s.71-4.06,2.11-5.56c1.43-1.49,3.2-2.23,5.34-2.23,1.83,0,3.34.71,4.6,2.09v-7.59h-.03ZM27.24,16.27c-.77-.85-1.77-1.24-3-1.24s-2.23.42-3.03,1.24c-.8.82-1.17,1.83-1.17,3.05s.4,2.23,1.17,3.07c.8.82,1.8,1.24,3.03,1.24s2.23-.42,3-1.24c.77-.85,1.17-1.86,1.17-3.07s-.4-2.23-1.17-3.05Z" fill="#b2aead"/>
  <path d="M34.35,20.47v-8.57h3.88v8.6c0,1.89,1.14,3.1,3,3.1s3-1.24,3-3.1v-8.6h3.88v8.6c0,4.17-2.6,6.63-6.91,6.63-4.23-.03-6.85-2.48-6.85-6.66Z" fill="#b2aead"/>
  <path d="M51.83,24.9c-1.49-1.44-2.23-3.33-2.23-5.58s.74-4.15,2.26-5.58c1.51-1.47,3.46-2.2,5.83-2.2,3.06,0,5.77,1.49,7.03,4.15l-3.11,1.69c-.91-1.49-2.2-2.26-3.83-2.26-1.26,0-2.26.42-3.06,1.24-.8.79-1.23,1.81-1.23,2.99s.4,2.23,1.2,3.05c.8.79,1.83,1.21,3,1.21,1.57,0,3.17-.93,3.83-2.23l3.14,1.83c-1.29,2.4-3.97,3.92-7.08,3.92-2.34-.06-4.25-.79-5.74-2.23Z" fill="#b2aead"/>
  <path d="M77.33,11.9h3.71v14.86h-3.71v-1.72c-1.29,1.38-2.91,2.09-4.8,2.09-2.14,0-3.94-.73-5.37-2.23-1.43-1.49-2.11-3.38-2.11-5.61s.71-4.09,2.11-5.53c1.4-1.47,3.2-2.2,5.34-2.2,1.88,0,3.48.71,4.8,2.14v-1.81h.03ZM76.19,16.27c-.8-.85-1.8-1.24-3-1.24s-2.23.42-3.03,1.24c-.77.85-1.17,1.86-1.17,3.02,0,1.21.4,2.2,1.2,3.05.8.85,1.8,1.24,3,1.24s2.2-.42,3-1.24c.8-.85,1.23-1.86,1.23-3.05-.03-1.16-.43-2.17-1.23-3.02Z" fill="#b2aead"/>
  <path d="M84.87,24.9c-1.49-1.44-2.23-3.33-2.23-5.58s.74-4.15,2.26-5.58c1.51-1.47,3.46-2.2,5.83-2.2,3.06,0,5.77,1.49,7.03,4.15l-3.11,1.69c-.91-1.49-2.2-2.26-3.83-2.26-1.26,0-2.26.42-3.06,1.24-.8.79-1.23,1.81-1.23,2.99s.4,2.23,1.2,3.05c.8.79,1.83,1.21,3,1.21,1.57,0,3.17-.93,3.83-2.23l3.14,1.83c-1.29,2.4-3.97,3.92-7.08,3.92-2.34-.06-4.23-.79-5.74-2.23Z" fill="#b2aead"/>
  <path d="M99.29,9.56c-.91-.9-.91-2.48,0-3.36.91-.9,2.51-.9,3.43,0,.91.87.91,2.45,0,3.36-.91.87-2.51.87-3.43,0ZM102.95,26.76h-3.88v-14.86h3.88v14.86Z" fill="#b2aead"/>
  <path d="M106.77,13.76c1.51-1.52,3.45-2.28,5.8-2.28s4.28.76,5.8,2.28c1.51,1.49,2.26,3.36,2.26,5.53s-.74,4.06-2.26,5.56c-1.51,1.5-3.46,2.26-5.8,2.26s-4.28-.76-5.8-2.26c-1.51-1.49-2.26-3.36-2.26-5.56s.74-4.01,2.26-5.53ZM112.57,23.58c1.2,0,2.14-.42,2.94-1.24.8-.85,1.23-1.86,1.23-3.02s-.43-2.17-1.23-2.99c-.8-.82-1.77-1.24-2.94-1.24s-2.17.42-2.97,1.24c-.8.82-1.2,1.83-1.2,2.99s.4,2.17,1.2,3.02c.8.82,1.8,1.24,2.97,1.24ZM110.63,9.67l1.71-4.8h4.34l-2.6,4.8h-3.46Z" fill="#b2aead"/>
  <path d="M122.28,26.76v-14.86h3.8v2.06c.8-1.44,2.6-2.48,4.71-2.48,1.63,0,3.03.54,4.17,1.61,1.14,1.07,1.71,2.59,1.71,4.57v9.08h-3.88v-8.01c0-2.37-1.26-3.7-3.17-3.7-2.09,0-3.46,1.55-3.46,3.75v7.95h-3.88v.03Z" fill="#b2aead"/>
  <path d="M163.68.87h-17.23c-2.58,0-4.69,2.09-4.69,4.64v19.14c0,1.37,1.13,2.52,2.55,2.52h14.13c7.33,0,9.93-5.9,9.93-9.13V5.51c0-2.58-2.08-4.64-4.69-4.64ZM150.36,22.02h-3.47V5.96h3.47v16.05ZM164.6,9.28h-4.52v12.76h-3.47v-12.76h-4.49v-3.32h12.51v3.32h-.03Z" fill="#b2aead"/>
</svg>