<?xml version="1.0" encoding="UTF-8"?>
<svg id="Open-English_Image" data-name="Open-English Image" xmlns="http://www.w3.org/2000/svg" width="264.26" height="100.71" viewBox="0 0 264.26 100.71">
  <rect x="211.09" y="31.82" width="6.99" height="6.19" fill="#b3aead"/>
  <rect x="210.59" y="41.66" width="8" height="22.78" fill="#b3aead"/>
  <path d="M12.28,40.63C5,40.63,0,45.41,0,53.37s4.96,12.44,11.95,12.44c5.83,0,12.06-3.53,12.06-12.79,0-7.27-4.53-12.39-11.72-12.39ZM12.15,59.71c-2.46,0-3.49-2.73-3.49-6.52,0-3.17.83-6.48,3.44-6.48,2.34,0,3.25,3.18,3.25,6.48,0,3.75-1.06,6.52-3.2,6.52Z" fill="#b3aead"/>
  <path d="M36.5,74.95v-11.41h.1c.84,1.19,2.74,2.27,5.2,2.27,4.95,0,10.1-4.06,10.1-12.8,0-7.36-4.01-12.38-9.27-12.38-3.05,0-5.47,1.27-7,3.46h-.1l-.39-2.96h-7.31c.1,2.35.2,5.06.2,8.08v25.75h8.47ZM36.5,51.19c0-.46.05-.92.19-1.31.3-1.41,1.56-2.5,2.99-2.5,2.38,0,3.67,2.21,3.67,5.94,0,3.45-1.36,5.91-3.77,5.91-1.41,0-2.5-1.02-2.87-2.3-.14-.44-.21-1.02-.21-1.65v-4.08Z" fill="#b3aead"/>
  <path d="M77.55,52.36c0-7.08-3.64-12.19-11.22-12.19-8.53,0-12.74,6.52-12.74,12.95,0,7.65,4.86,12.19,13.49,12.19,3.1,0,6.36-.39,9.12-1.39l-1.14-5.77c-2.06.6-4.22.89-6.55.89-3.28,0-5.98-1.15-6.22-3.15h14.95c.16-.63.32-1.87.32-3.52ZM62.2,50.11c.11-1.7,1.1-4.24,3.68-4.24,2.72,0,3.34,2.56,3.34,4.24h-7.02Z" fill="#b3aead"/>
  <path d="M130.96,40.18c-8.53,0-12.74,6.52-12.74,12.95,0,7.65,4.86,12.19,13.49,12.19,3.1,0,6.36-.39,9.12-1.39l-1.14-5.77c-2.06.6-4.22.89-6.55.89-3.28,0-5.98-1.15-6.22-3.15h14.95c.16-.63.32-1.87.32-3.52,0-7.08-3.64-12.19-11.22-12.19ZM126.83,50.11c.11-1.7,1.1-4.24,3.68-4.24,2.72,0,3.34,2.56,3.34,4.24h-7.02Z" fill="#b3aead"/>
  <path d="M103.08,65.31v-14.54c0-6.19-2.63-10.14-8.1-10.14-3.59,0-5.86,2.03-6.87,3.48h-.15l-.39-2.99h-7.31c.1,2.3.2,5.06.2,8.08v16.11h8.5v-13.93c0-.75.09-1.48.29-1.93.42-.93,1.16-1.92,2.61-1.92,1.94,0,2.74,1.63,2.74,4.07v13.71h8.5Z" fill="#b3aead"/>
  <path d="M158.88,41.2c-3.58,0-5.83,2.02-6.84,3.47h-.15l-.39-2.97h-7.28c.1,2.29.2,5.03.2,8.04v16.03h8.45v-13.87c0-.75.09-1.48.29-1.92.41-.93,1.15-1.91,2.6-1.91,1.93,0,2.73,1.62,2.73,4.05v13.64h8.45v-14.47c0-6.16-2.62-10.09-8.06-10.09Z" fill="#b3aead"/>
  <path d="M185.97,44.3h-.1c-1.25-2.05-3.23-3.1-5.86-3.1-5.89,0-10.5,5.24-10.5,13.12,0,6.67,3.63,12.06,9.74,12.06,2.25,0,4.35-.86,5.66-2.63h.1v1.09c0,3.63-2.1,5.56-5.41,5.56-2.56,0-4.99-.8-6.46-1.57l-1.61,6.62c2.22,1.08,5.33,1.64,8.42,1.64,3.92,0,7.4-.77,9.99-3,2.76-2.45,3.69-6.26,3.69-10.78v-13.83c0-3.59.1-5.93.23-7.77h-7.56l-.33,2.59ZM184.9,55.97c0,.61-.05,1.37-.22,1.88-.33,1.14-1.34,2.05-2.71,2.05-2.28,0-3.67-2.31-3.67-5.74,0-3.82,1.53-6.19,3.71-6.19,1.35,0,2.36.88,2.72,2.38.1.38.17.9.17,1.37v4.25Z" fill="#b3aead"/>
  <rect x="198.55" y="31.82" width="8" height="32.63" fill="#b3aead"/>
  <path d="M232.8,49.19c-2.72-1.04-3.43-1.54-3.43-2.36,0-.95.83-1.46,2.36-1.46,1.79,0,3.76.69,4.86,1.24l1.36-5.96c-1.53-.7-3.93-1.31-6.69-1.31-6.13,0-10.03,3.57-10.03,8.38-.03,2.6,1.46,5.48,6.54,7.38,2.45.92,3.06,1.36,3.06,2.3s-.78,1.42-2.54,1.42c-2.06,0-4.88-.91-6.17-1.69l-1.43,6.12c1.7.95,4.61,1.64,7.65,1.64,6.96,0,10.63-3.32,10.63-8.13-.03-3.23-1.6-5.8-6.18-7.56Z" fill="#b3aead"/>
  <path d="M256.78,41.3c-1.17,0-2.42.3-3.38.82-.99.54-1.8,1.17-2.51,2.07h-.1v-12.37h-8.09v33h8.09v-13.7c0-.44.09-1.13.23-1.49.4-1,1.15-1.74,2.46-1.74,1.96,0,2.68,1.66,2.68,4.17v12.77h8.09v-13.34c0-6.32-2.42-10.17-7.49-10.17Z" fill="#b3aead"/>
  <polygon points="27.4 36.82 36.42 36.38 36.42 22.7 106.71 10.04 106.71 90.96 27.4 77.72 27.4 86.16 115.3 100.71 115.3 0 27.4 16.01 27.4 36.82" fill="#b3aead"/>
</svg>