<?xml version="1.0" encoding="UTF-8"?>
<svg id="Capa_1" data-name="Capa 1" xmlns="http://www.w3.org/2000/svg" width="490.65" height="191.3" viewBox="0 0 490.65 191.3">
  <path d="M485.43,37.32h-126.32v131.27h81.95l11.48-58.98-14.61,5.74,3.39-17.22,19.05-6.52h14.35l-15.14,76.99,25.84-131.27ZM429.32,100.48c-3.91,4.96-9.92,10.44-18.01,16.18l-13.31,9.4h30.27l-3.13,16.18h-50.37l3.91-19.83,10.18-7.31c9.92-7.05,16.7-12.27,19.83-15.66,3.39-3.39,4.96-7.05,4.96-10.7,0-2.61-1.04-4.7-2.61-6.52-1.57-1.83-4.44-2.61-8.09-2.61s-7.05.52-9.92,1.3c-2.09.78-4.44,1.83-7.05,3.13l3.39-16.96c2.09-.78,4.18-1.3,6.52-1.83,4.44-.78,8.61-1.3,12.79-1.3,8.87,0,15.66,1.83,19.83,5.48,4.44,3.65,6.52,8.35,6.52,14.35s-1.83,11.74-5.74,16.7Z" fill="#b2aead"/>
  <polygon points="486.73 37.32 461.16 168.59 490.65 168.59 490.65 37.32 486.73 37.32" fill="#b2aead"/>
  <path d="M17.22,34.97c8.61,0,13.83-3.65,13.83-12.79V.52h-6.79v19.57c0,6-1.83,9.66-7.05,9.66s-7.05-3.91-7.05-9.66V.52H3.39v21.66c0,9.13,5.22,12.79,13.83,12.79Z" fill="#b2aead"/>
  <polygon points="44.89 8.87 57.94 34.19 66.29 34.19 66.29 .52 59.77 .52 59.77 25.84 46.98 .52 38.63 .52 38.36 .52 38.36 34.19 44.89 34.19 44.89 8.87" fill="#b2aead"/>
  <rect x="73.34" y=".52" width="6.79" height="33.67" fill="#b2aead"/>
  <polygon points="104.13 34.19 115.62 .52 108.83 .52 100.22 27.14 91.6 .52 84.3 .52 95.78 34.19 104.13 34.19" fill="#b2aead"/>
  <polygon points="140.41 28.71 127.1 28.71 127.1 19.31 139.1 19.31 139.1 14.09 127.1 14.09 127.1 5.74 140.15 5.74 140.15 .52 120.31 .52 120.31 33.93 140.41 33.93 140.41 28.71" fill="#b2aead"/>
  <path d="M153.72,20.36h2.09c2.87,0,3.65.78,4.7,3.39l4.18,10.44h7.57l-5.48-13.31c-.78-1.3-1.83-3.13-3.65-3.39,4.44-.52,7.05-3.91,7.05-7.83,0-9.4-8.61-9.13-15.92-9.13h-7.31v33.93h6.79v-14.09ZM153.46,5.74h2.35c3.39,0,7.05.26,7.05,4.44s-3.65,4.7-7.05,4.7h-2.35V5.74Z" fill="#b2aead"/>
  <path d="M184.78,29.49c-2.61,0-5.22-.78-7.57-2.09l-.52,6c3.39.78,4.96,1.3,8.61,1.3,7.05,0,12.79-2.87,12.79-10.18,0-11.22-14.88-8.87-14.88-14.62,0-3.65,2.87-4.7,5.22-4.7s4.7.52,6.79,1.57l.52-5.48C193.39.26,190.52,0,187.65,0,181.64,0,175.9,2.61,175.9,10.18c0,11.22,14.88,8.35,14.88,14.88,0,3.13-3.39,4.44-6,4.44Z" fill="#b2aead"/>
  <rect x="203.83" y=".52" width="6.79" height="33.67" fill="#b2aead"/>
  <path d="M246.63,17.49c0-13.57-9.13-16.96-19.57-16.96h-9.13v33.93h9.13c10.44,0,19.57-3.65,19.57-16.96ZM224.71,6h3.65c5.74,0,11.22,4.18,11.22,11.48s-5.48,11.48-11.22,11.48h-3.65V6Z" fill="#b2aead"/>
  <path d="M259.68,26.36h13.57l2.87,7.83h7.57L270.38.52h-7.57l-13.05,33.67h7.05l2.87-7.83ZM266.72,7.31l4.96,13.83h-9.92l4.96-13.83Z" fill="#b2aead"/>
  <path d="M317.09,17.49c0-13.57-9.13-16.96-19.57-16.96h-9.13v33.93h9.13c10.44,0,19.57-3.65,19.57-16.96ZM295.17,6h3.65c5.74,0,11.22,4.18,11.22,11.48s-5.48,11.48-11.22,11.48h-3.65V6Z" fill="#b2aead"/>
  <rect x="71.25" y="64.98" width="20.62" height="76.99" fill="#b2aead"/>
  <path d="M281.86,63.68c-25.32,0-38.63,15.14-38.63,39.93s13.57,39.93,38.63,39.93,38.63-15.4,38.63-39.93-13.31-39.93-38.63-39.93ZM281.86,128.14c-12.53,0-17.49-11.74-17.49-24.53s4.96-24.53,17.49-24.53,17.49,11.22,17.49,24.53c0,12.53-4.96,24.53-17.49,24.53Z" fill="#b2aead"/>
  <path d="M143.02,111.7h11.74v15.14c-1.83.78-4.44,1.3-7.31,1.3-14.88,0-21.4-9.13-21.4-24.27,0-18.01,9.4-25.05,26.1-25.05,4.44,0,11.22,1.04,17.22,4.18l3.13-15.92c-7.57-2.87-18.27-3.39-23.23-3.39-28.19,0-44.37,11.22-44.37,40.19s19.31,39.41,39.93,39.41c7.05,0,16.7-.26,29.75-3.65v-42.54h-28.71l-2.87,14.62Z" fill="#b2aead"/>
  <path d="M23.75,128.14c-8.61,0-15.92-2.09-21.14-4.96l-1.83,16.96c6.79,2.09,15.66,3.39,22.97,3.39,17.22,0,33.93-5.48,33.93-25.32,0-27.93-36.54-19.31-36.54-31.84,0-6.79,8.61-7.05,13.83-7.05s9.92.78,14.62,2.61l2.87-15.14c-4.96-2.09-11.74-3.13-18.79-3.13C18.27,63.68,0,68.64,0,87.17,0,115.09,36.54,106.22,36.54,120.57c0,6.26-6.26,7.57-12.79,7.57Z" fill="#b2aead"/>
  <polygon points="190 64.98 190 142.24 237.23 142.24 237.23 126.84 210.35 126.84 210.35 64.98 190 64.98" fill="#b2aead"/>
  <polygon points="6.79 171.47 2.87 171.47 2.87 190.78 14.35 190.78 14.35 187.65 6.79 187.65 6.79 171.47" fill="#b2aead"/>
  <path d="M28.45,183.99v-1.83c0-4.18-1.83-6-6.26-6-1.57,0-3.39.26-4.96,1.04,0,0,0,3.13,0,3.13,1.3-1.04,2.87-1.57,4.44-1.57,2.09,0,3.13.78,3.13,3.13h-2.09c-1.57,0-3.39,0-4.7.78-1.3.78-2.35,2.09-2.35,4.18,0,2.61,2.35,4.18,4.96,4.18,1.83,0,3.65-.78,4.44-2.35,0,.52,0,1.3.26,2.09h3.39c-.26-1.04-.26-2.09-.26-3.13v-3.65ZM24.01,187.12c-.52.78-1.57,1.3-2.61,1.3-1.3,0-2.35-.52-2.35-1.83,0-2.09,2.61-2.35,4.18-2.35h1.57c0,1.04-.26,2.09-.78,2.87Z" fill="#b2aead"/>
  <path d="M45.15,176.16c-4.44,0-6.52,3.39-6.52,7.57,0,4.7,2.87,7.31,7.57,7.31,2.09,0,3.65-.26,4.96-1.04h-.26v-3.13c-1.3.78-2.87,1.57-4.7,1.57-2.35,0-3.91-1.3-4.18-3.65h9.92c0-4.96-1.57-8.61-6.79-8.61ZM42.02,182.17c.26-1.83,1.3-3.39,3.39-3.39s3.13,1.57,3.13,3.39h-6.52Z" fill="#b2aead"/>
  <path d="M64.2,178.25c-1.04-1.57-2.35-2.09-4.18-2.09-4.44,0-6,3.39-6,7.31s1.57,7.57,6,7.57c1.68,0,3.14-.45,4.18-1.54v1.54h3.65v-20.88h-3.65v8.09ZM61.07,188.17c-2.35,0-3.13-2.61-3.13-4.7,0-1.83.78-4.44,3.13-4.44s3.39,2.35,3.39,4.44-1.04,4.7-3.39,4.7Z" fill="#b2aead"/>
  <path d="M81.43,183.47c0,1.83-.78,4.7-3.39,4.7-2.35,0-2.35-2.35-2.35-4.18v-7.57h-3.65v9.4c0,3.13,1.57,5.48,4.96,5.48,1.83,0,3.65-1.04,4.7-2.35v1.83h3.39s0-14.35,0-14.35h-3.65v7.05Z" fill="#b2aead"/>
  <path d="M95.78,188.17c-2.61,0-3.91-2.09-3.91-4.7s1.3-4.44,3.65-4.44c1.3,0,1.83.26,2.61.52h0s.52-2.87.52-2.87c-1.04-.26-2.09-.52-3.65-.52-4.44,0-6.79,3.13-6.79,7.31,0,4.44,2.35,7.57,7.05,7.57,1.57,0,2.61-.26,3.65-.52l-.26-3.13c-.78.52-1.83.78-2.87.78Z" fill="#b2aead"/>
  <path d="M113.01,183.99v-1.83c0-4.18-1.83-6-6.26-6-1.57,0-3.39.26-4.96,1.04v3.13c1.3-1.04,2.87-1.57,4.44-1.57,2.09,0,3.13.78,3.13,3.13h-2.09c-1.57,0-3.39,0-4.7.78-1.3.78-2.35,2.09-2.35,4.18,0,2.61,2.35,4.18,4.96,4.18,1.83,0,3.65-.78,4.44-2.35,0,.52,0,1.3.26,2.09h3.39c-.26-1.04-.26-2.09-.26-3.13v-3.65ZM108.83,187.12c-.52.78-1.57,1.3-2.61,1.3-1.3,0-2.35-.52-2.35-1.83,0-2.09,2.61-2.35,4.18-2.35h1.57c0,1.04-.26,2.09-.78,2.87Z" fill="#b2aead"/>
  <path d="M123.44,188.17c-2.61,0-3.91-2.09-3.91-4.7s1.3-4.44,3.65-4.44c1.3,0,1.83.26,2.61.52h0s.52-2.87.52-2.87c-1.04-.26-2.09-.52-3.65-.52-4.44,0-6.79,3.13-6.79,7.31,0,4.44,2.35,7.57,7.05,7.57,1.57,0,2.61-.26,3.65-.52l-.26-3.13c-.78.52-1.83.78-2.87.78Z" fill="#b2aead"/>
  <rect x="128.93" y="170.42" width="3.65" height="3.39" fill="#b2aead"/>
  <rect x="128.93" y="176.42" width="3.65" height="14.35" fill="#b2aead"/>
  <polygon points="147.19 170.42 143.28 170.42 140.93 174.34 143.28 174.34 147.19 170.42" fill="#b2aead"/>
  <path d="M143.02,176.16c-4.18,0-7.31,2.87-7.57,7.57,0,3.91,2.87,7.31,7.57,7.31s7.57-3.13,7.57-7.31c0-4.7-3.39-7.57-7.57-7.57ZM143.02,188.17c-2.61,0-3.39-2.61-3.65-4.96,0-2.09,1.3-4.18,3.65-4.18,2.61,0,3.65,2.09,3.65,4.18,0,2.35-.78,4.96-3.65,4.96Z" fill="#b2aead"/>
  <path d="M161.55,175.9c-1.83,0-3.65.78-4.7,2.35v-1.83h-3.39v14.09h3.65v-7.05c0-1.83.78-4.7,3.39-4.7,2.35,0,2.35,2.35,2.35,4.18v7.57h3.65v-9.13c0-3.13-1.57-5.48-4.96-5.48Z" fill="#b2aead"/>
  <path d="M183.47,176.16c-4.44,0-6.52,3.39-6.52,7.57,0,4.7,2.87,7.31,7.57,7.31,2.09,0,3.65-.26,4.96-1.04h-.26v-3.13c-1.3.78-2.87,1.57-4.7,1.57-2.35,0-3.91-1.3-4.18-3.65h9.92c0-4.96-1.57-8.61-6.79-8.61ZM180.6,182.17c.26-1.83,1.3-3.39,3.39-3.39s3.13,1.57,3.13,3.39h-6.52Z" fill="#b2aead"/>
  <polygon points="199.65 186.86 196 176.42 192.08 176.42 197.3 190.78 201.48 190.78 206.7 176.42 203.04 176.42 199.65 186.86" fill="#b2aead"/>
  <path d="M215.57,176.16c-4.18,0-7.57,2.87-7.57,7.57,0,3.91,2.87,7.31,7.57,7.31s7.57-3.13,7.57-7.31c0-4.7-3.39-7.57-7.57-7.57ZM215.57,188.17c-2.87,0-3.65-2.61-3.65-4.96,0-2.09,1.3-4.18,3.65-4.18,2.61,0,3.65,2.09,3.65,4.18,0,2.35-.78,4.96-3.65,4.96Z" fill="#b2aead"/>
  <rect x="226.01" y="169.9" width="3.65" height="20.88" fill="#b2aead"/>
  <path d="M242.97,183.47c0,1.83-.78,4.7-3.39,4.7-2.35,0-2.35-2.35-2.35-4.18v-7.57h-3.65v9.4c0,3.13,1.57,5.48,4.96,5.48,1.83,0,3.65-1.04,4.7-2.35v1.83h3.39v-14.35h-3.65v7.05Z" fill="#b2aead"/>
  <path d="M257.33,188.17c-2.61,0-3.91-2.09-3.91-4.7s1.3-4.44,3.65-4.44c1.3,0,1.83.26,2.61.52h0s.52-2.87.52-2.87c-1.04-.26-2.09-.52-3.65-.52-4.44,0-6.79,3.13-6.79,7.31,0,4.44,2.35,7.57,7.05,7.57,1.57,0,2.61-.26,3.65-.52l-.26-3.13c-.78.52-1.83.78-2.87.78Z" fill="#b2aead"/>
  <rect x="262.81" y="176.42" width="3.65" height="14.35" fill="#b2aead"/>
  <rect x="262.81" y="170.42" width="3.65" height="3.39" fill="#b2aead"/>
  <path d="M277.16,176.16c-4.18,0-7.57,2.87-7.57,7.57,0,3.91,2.87,7.31,7.57,7.31s7.57-3.13,7.57-7.31c0-4.7-3.39-7.57-7.57-7.57ZM277.16,188.17c-2.87,0-3.65-2.61-3.65-4.96,0-2.09,1.3-4.18,3.65-4.18,2.61,0,3.65,2.09,3.65,4.18,0,2.35-.78,4.96-3.65,4.96Z" fill="#b2aead"/>
  <path d="M295.69,175.9c-1.83,0-3.65.78-4.7,2.35v-1.83h-3.39v14.09h3.65v-7.05c0-1.83.78-4.7,3.39-4.7,2.35,0,2.35,2.35,2.35,4.18v7.57h3.65v-9.13c0-3.13-1.57-5.48-4.96-5.48Z" fill="#b2aead"/>
  <path d="M316.31,183.99v-1.83c0-4.18-1.83-6-6.26-6-1.57,0-3.39.26-4.96,1.04v3.13c1.3-1.04,2.87-1.57,4.44-1.57,2.09,0,3.13.78,3.13,3.13h-2.09c-1.57,0-3.39,0-4.7.78-1.3.78-2.35,2.09-2.35,4.18,0,2.61,2.35,4.18,4.96,4.18,1.83,0,3.65-.78,4.44-2.35,0,.52,0,1.3.26,2.09h3.39c-.26-1.04-.26-2.09-.26-3.13v-3.65ZM311.87,187.12c-.52.78-1.57,1.3-2.61,1.3-1.3,0-2.35-.52-2.35-1.83,0-2.09,2.61-2.35,4.18-2.35h1.57c0,1.04-.26,2.09-.78,2.87Z" fill="#b2aead"/>
</svg>