<?xml version="1.0" encoding="UTF-8"?>
<svg id="Layer_1" data-name="Layer 1" xmlns="http://www.w3.org/2000/svg" width="508.42" height="197.07" viewBox="0 0 508.42 197.07">
  <path d="M299.64,54.14h-39.04v76.47c0,24.02-10.01,33.63-26.42,33.63s-26.62-9.61-26.62-33.63V54.14h-39.64v77.67c0,41.84,24.42,65.26,65.86,65.26s65.86-23.42,65.86-65.26V54.14Z" fill="#b2aead"/>
  <path d="M356.49,54.14l-61.86,140.13h40.44l11.01-27.22h59.25l11.01,27.22h41.24l-62.06-140.13h-39.04,0ZM357.69,137.82l18.02-44.84,18.02,44.84h-36.04Z" fill="#b2aead"/>
  <rect x="468.78" y="54.14" width="39.64" height="140.13" fill="#b2aead"/>
  <path d="M9.31,22.44c5.4,0,8.59-3.2,8.59-8.99V2.44h-4.34v10.84c0,3.74-1.55,5.28-4.23,5.28s-4.23-1.54-4.23-5.28V2.44H.72v11.01c0,5.79,3.2,8.99,8.6,8.99h-.01Z" fill="#b2aead"/>
  <path d="M26.18,14.64c0-2.78,1.46-4.07,3.5-4.07,1.87,0,2.96,1.12,2.96,3.57v7.98h4.23v-8.65c0-4.61-2.6-6.69-6.05-6.69-1.98,0-3.69.7-4.83,1.99v-1.77h-4.04v15.11h4.23s0-7.47,0-7.47Z" fill="#b2aead"/>
  <path d="M42.8,4.89c1.57,0,2.63-1.07,2.63-2.53,0-1.35-1.06-2.36-2.63-2.36s-2.63,1.07-2.63,2.44,1.06,2.44,2.63,2.44h0Z" fill="#b2aead"/>
  <rect x="40.68" y="6.99" width="4.23" height="15.11" fill="#b2aead"/>
  <polygon points="57.17 22.11 63.33 6.99 59.26 6.99 55.08 17.28 51.04 6.99 46.68 6.99 52.8 22.11 57.17 22.11" fill="#b2aead"/>
  <path d="M71.92,22.33c2.63,0,4.66-.84,6.02-2.44l-2.25-2.53c-1,.98-2.12,1.46-3.66,1.46-2.22,0-3.77-1.15-4.18-3.03h11.04c.03-.36.08-.84.08-1.18,0-4.86-3.31-7.84-7.59-7.84s-7.78,3.26-7.78,7.78,3.28,7.78,8.32,7.78ZM71.41,10.08c1.9,0,3.28,1.24,3.58,3.15h-7.19c.3-1.94,1.68-3.15,3.61-3.15Z" fill="#b2aead"/>
  <path d="M86.02,14.97c0-2.89,1.54-4.21,3.88-4.21.33,0,.6.03.95.06v-4.04c-2.25,0-3.99.76-5.02,2.22v-1.99h-4.04v15.11h4.23v-7.14h0Z" fill="#b2aead"/>
  <path d="M98.49,19.02c-1.79,0-3.77-.59-5.07-1.46l-1.41,3.15c1.36.93,3.85,1.63,6.32,1.63,4.37,0,6.89-1.99,6.89-4.8,0-5.96-8.81-3.46-8.81-6.04,0-.79.81-1.4,2.71-1.4,1.33,0,2.77.28,4.2,1.12l1.41-3.12c-1.38-.84-3.61-1.32-5.61-1.32-4.26,0-6.75,2.02-6.75,4.89,0,6.04,8.81,3.51,8.81,5.98,0,.84-.73,1.38-2.68,1.38h0Z" fill="#b2aead"/>
  <path d="M109.94,4.89c1.57,0,2.63-1.07,2.63-2.53,0-1.35-1.06-2.36-2.63-2.36s-2.63,1.07-2.63,2.44,1.06,2.44,2.63,2.44h0Z" fill="#b2aead"/>
  <rect x="107.82" y="6.99" width="4.23" height="15.11" fill="#b2aead"/>
  <path d="M122.25,22.33c1.95,0,3.5-.65,4.56-1.97v1.74h4.04V1.26h-4.23v7.33c-1.06-1.24-2.58-1.83-4.37-1.83-4.12,0-7.29,3.03-7.29,7.78s3.17,7.78,7.29,7.78h0ZM122.98,10.37c2.09,0,3.71,1.57,3.71,4.19s-1.63,4.19-3.71,4.19-3.74-1.57-3.74-4.19,1.63-4.19,3.74-4.19Z" fill="#b2aead"/>
  <path d="M140.63,6.77c-2.33,0-4.69.65-6.29,1.83l1.52,3.06c1.06-.87,2.66-1.4,4.2-1.4,2.28,0,3.36,1.1,3.36,2.98h-3.36c-4.45,0-6.26,1.85-6.26,4.52s2.03,4.58,5.45,4.58c2.14,0,3.66-.73,4.45-2.11v1.88h3.96v-8.62c0-4.58-2.58-6.71-7.02-6.71h-.01ZM143.42,17.33c-.49,1.38-1.71,2.05-3.12,2.05-1.49,0-2.39-.73-2.39-1.83,0-1.01.62-1.77,2.6-1.77h2.9v1.55h0Z" fill="#b2aead"/>
  <path d="M162.27,8.6c-1.06-1.24-2.58-1.83-4.37-1.83-4.12,0-7.29,3.03-7.29,7.78s3.17,7.78,7.29,7.78c1.95,0,3.5-.65,4.56-1.97v1.74h4.04V1.26h-4.23v7.33h0ZM158.64,18.74c-2.12,0-3.74-1.57-3.74-4.19s1.63-4.19,3.74-4.19,3.71,1.57,3.71,4.19-1.63,4.19-3.71,4.19Z" fill="#b2aead"/>
  <path d="M182.06,17.89h8.81l1.68,4.21h4.61l-8.49-19.66h-4.34l-8.46,19.66h4.5l1.68-4.21h.01ZM186.48,6.91l3.01,7.53h-6.02l3.01-7.53h0Z" fill="#b2aead"/>
  <path d="M202.89,20.37c1.06,1.32,2.63,1.97,4.58,1.97,4.09,0,7.27-3.03,7.27-7.78s-3.17-7.78-7.27-7.78c-1.82,0-3.31.59-4.39,1.83V1.26h-4.23v20.84h4.04v-1.74h0ZM206.74,10.37c2.12,0,3.71,1.57,3.71,4.19s-1.6,4.19-3.71,4.19-3.71-1.57-3.71-4.19,1.6-4.19,3.71-4.19Z" fill="#b2aead"/>
  <path d="M219.67,4.89c1.57,0,2.63-1.07,2.63-2.53,0-1.35-1.06-2.36-2.63-2.36s-2.63,1.07-2.63,2.44,1.06,2.44,2.63,2.44h0Z" fill="#b2aead"/>
  <rect x="217.56" y="6.99" width="4.23" height="15.11" fill="#b2aead"/>
  <path d="M232.96,22.33c2.63,0,4.66-.84,6.02-2.44l-2.25-2.53c-1,.98-2.12,1.46-3.66,1.46-2.22,0-3.77-1.15-4.18-3.03h11.04c.03-.36.08-.84.08-1.18,0-4.86-3.31-7.84-7.59-7.84s-7.78,3.26-7.78,7.78,3.28,7.78,8.33,7.78h-.01ZM232.44,10.08c1.9,0,3.28,1.24,3.58,3.15h-7.19c.3-1.94,1.68-3.15,3.61-3.15Z" fill="#b2aead"/>
  <path d="M247.06,14.97c0-2.89,1.54-4.21,3.88-4.21.33,0,.6.03.95.06v-4.04c-2.25,0-3.99.76-5.02,2.22v-1.99h-4.04v15.11h4.23v-7.14h0Z" fill="#b2aead"/>
  <path d="M255.41,16.91c0,3.6,2.01,5.42,5.45,5.42,1.3,0,2.58-.31,3.44-.96l-1.14-3.09c-.46.37-1.08.56-1.71.56-1.14,0-1.82-.7-1.82-1.99v-6.15h3.63v-3.37h-3.63v-3.68h-4.23v3.68h-2.25v3.37h2.25v6.21h0Z" fill="#b2aead"/>
  <path d="M265.74,17.75c0,2.61,2.03,4.58,5.45,4.58,2.14,0,3.66-.73,4.45-2.11v1.88h3.96v-8.62c0-4.58-2.58-6.71-7.02-6.71-2.33,0-4.69.65-6.29,1.83l1.52,3.06c1.06-.87,2.66-1.4,4.2-1.4,2.28,0,3.36,1.1,3.36,2.98h-3.36c-4.45,0-6.26,1.85-6.26,4.52h-.01ZM275.37,15.79v1.55c-.49,1.38-1.71,2.05-3.12,2.05-1.49,0-2.39-.73-2.39-1.83,0-1.01.62-1.77,2.6-1.77h2.91Z" fill="#b2aead"/>
  <rect x="291.39" y="2.44" width="4.39" height="19.66" fill="#b2aead"/>
  <path d="M304.22,14.64c0-2.78,1.46-4.07,3.5-4.07,1.87,0,2.96,1.12,2.96,3.57v7.98h4.23v-8.65c0-4.61-2.6-6.69-6.05-6.69-1.98,0-3.69.7-4.83,1.99v-1.77h-4.04v15.11h4.23v-7.47h0Z" fill="#b2aead"/>
  <path d="M319.24,16.91c0,3.6,2.01,5.42,5.45,5.42,1.3,0,2.58-.31,3.44-.96l-1.14-3.09c-.46.37-1.08.56-1.71.56-1.14,0-1.82-.7-1.82-1.99v-6.15h3.63v-3.37h-3.63v-3.68h-4.23v3.68h-2.25v3.37h2.25v6.21h.01Z" fill="#b2aead"/>
  <path d="M337.33,22.33c2.63,0,4.66-.84,6.02-2.44l-2.25-2.53c-1,.98-2.12,1.46-3.66,1.46-2.22,0-3.77-1.15-4.18-3.03h11.04c.03-.36.08-.84.08-1.18,0-4.86-3.31-7.84-7.59-7.84s-7.78,3.26-7.78,7.78,3.28,7.78,8.33,7.78h0ZM336.81,10.08c1.9,0,3.28,1.24,3.58,3.15h-7.19c.3-1.94,1.68-3.15,3.61-3.15h0Z" fill="#b2aead"/>
  <path d="M351.43,14.97c0-2.89,1.54-4.21,3.88-4.21.33,0,.6.03.95.06v-4.04c-2.25,0-3.99.76-5.02,2.22v-1.99h-4.04v15.11h4.23v-7.14h0Z" fill="#b2aead"/>
  <path d="M357.77,17.75c0,2.61,2.03,4.58,5.45,4.58,2.14,0,3.66-.73,4.45-2.11v1.88h3.96v-8.62c0-4.58-2.58-6.71-7.02-6.71-2.33,0-4.69.65-6.29,1.83l1.52,3.06c1.06-.87,2.66-1.4,4.2-1.4,2.28,0,3.36,1.1,3.36,2.98h-3.36c-4.45,0-6.26,1.85-6.26,4.52h-.01ZM367.4,15.79v1.55c-.49,1.38-1.71,2.05-3.12,2.05-1.49,0-2.39-.73-2.39-1.83,0-1.01.62-1.77,2.6-1.77h2.91Z" fill="#b2aead"/>
  <path d="M379.68,14.52c0-2.7,1.33-3.96,3.2-3.96,1.76,0,2.77,1.12,2.77,3.57v7.98h4.23v-7.58c0-2.7,1.33-3.96,3.23-3.96,1.71,0,2.77,1.12,2.77,3.57v7.98h4.23v-8.65c0-4.61-2.49-6.69-5.96-6.69-2.2,0-4.09.93-5.26,2.47-1.03-1.66-2.77-2.47-4.8-2.47-1.87,0-3.5.67-4.58,1.97v-1.74h-4.04v15.11h4.23v-7.58l-.02-.02Z" fill="#b2aead"/>
  <path d="M411.3,22.33c2.63,0,4.66-.84,6.02-2.44l-2.25-2.53c-1,.98-2.12,1.46-3.66,1.46-2.22,0-3.77-1.15-4.18-3.03h11.04c.03-.36.08-.84.08-1.18,0-4.86-3.31-7.84-7.59-7.84s-7.78,3.26-7.78,7.78,3.28,7.78,8.33,7.78h0ZM410.78,10.08c1.9,0,3.28,1.24,3.58,3.15h-7.19c.3-1.94,1.68-3.15,3.61-3.15h0Z" fill="#b2aead"/>
  <path d="M425.4,14.97c0-2.89,1.54-4.21,3.88-4.21.33,0,.6.03.95.06v-4.04c-2.25,0-3.99.76-5.02,2.22v-1.99h-4.04v15.11h4.23v-7.14h0Z" fill="#b2aead"/>
  <path d="M434.89,4.89c1.57,0,2.63-1.07,2.63-2.53,0-1.35-1.06-2.36-2.63-2.36s-2.63,1.07-2.63,2.44,1.06,2.44,2.63,2.44h0Z" fill="#b2aead"/>
  <rect x="432.77" y="6.99" width="4.23" height="15.11" fill="#b2aead"/>
  <path d="M447.98,22.33c3.06,0,5.48-1.4,6.54-3.82l-3.28-1.85c-.79,1.46-1.95,2.08-3.28,2.08-2.14,0-3.82-1.54-3.82-4.19s1.68-4.19,3.82-4.19c1.33,0,2.5.65,3.28,2.08l3.28-1.83c-1.06-2.47-3.47-3.85-6.54-3.85-4.75,0-8.13,3.23-8.13,7.78s3.39,7.78,8.13,7.78h0Z" fill="#b2aead"/>
  <path d="M469.87,22.11v-8.62c0-4.58-2.58-6.71-7.02-6.71-2.33,0-4.69.65-6.29,1.83l1.52,3.06c1.06-.87,2.66-1.4,4.2-1.4,2.28,0,3.36,1.1,3.36,2.98h-3.36c-4.45,0-6.26,1.85-6.26,4.52s2.03,4.58,5.45,4.58c2.14,0,3.66-.73,4.45-2.11v1.88h3.96-.01ZM465.64,17.33c-.49,1.38-1.71,2.05-3.12,2.05-1.49,0-2.39-.73-2.39-1.83,0-1.01.62-1.77,2.6-1.77h2.9v1.55h.01Z" fill="#b2aead"/>
  <path d="M477.92,14.64c0-2.78,1.46-4.07,3.5-4.07,1.87,0,2.96,1.12,2.96,3.57v7.98h4.23v-8.65c0-4.61-2.6-6.69-6.05-6.69-1.98,0-3.69.7-4.83,1.99v-1.77h-4.04v15.11h4.23v-7.47h0Z" fill="#b2aead"/>
  <path d="M491.48,17.75c0,2.61,2.03,4.58,5.45,4.58,2.14,0,3.66-.73,4.45-2.11v1.88h3.96v-8.62c0-4.58-2.58-6.71-7.02-6.71-2.33,0-4.69.65-6.29,1.83l1.52,3.06c1.06-.87,2.66-1.4,4.2-1.4,2.28,0,3.36,1.1,3.36,2.98h-3.36c-4.45,0-6.26,1.85-6.26,4.52h-.01ZM501.1,15.79v1.55c-.49,1.38-1.71,2.05-3.12,2.05-1.49,0-2.39-.73-2.39-1.83,0-1.01.62-1.77,2.6-1.77h2.91Z" fill="#b2aead"/>
  <path d="M65.61,53.27H0v1.41c0,32.61,5.57,60.39,16.23,83.6,10.98,23.9,27.36,42.93,48.64,57.39l.75.51.75-.51c21.27-14.46,37.65-33.49,48.64-57.39,10.66-23.21,16.23-50.99,16.23-83.6v-1.41h-65.63ZM112.53,137.08c-10.64,23.14-26.43,41.63-46.92,55.74-20.49-14.1-36.29-32.59-46.92-55.74C8.36,114.59,2.89,87.67,2.73,56.09h125.76c-.16,31.59-5.62,58.5-15.96,81h0Z" fill="#b2aead"/>
  <path d="M107.64,77.81c-5.85-1.3-8.77,12.4-9.32,15.55h-1.32c0-2.65.83-7.27,2.7-12.62,2.7-7.61-2.09-12.62-3.86-14.48h-.11c-1.82,1.86-6.62,6.88-3.91,14.48,1.93,5.35,2.7,9.97,2.7,12.62h-1.32c-.55-3.16-3.47-16.85-9.32-15.55-3.2.68-4.52,4.68-3.75,7.21.66,2.14,1.88,3.61,1.82,4.79-.05.85.99,1.24.99,1.24,0,0,.16-.67.33-1.07,1.71-7.72,7.67-2.14,8.94,3.38-1.1,0-1.49,0-1.54,1.24,0,1.13.44,1.13,1.77,1.13v.22s-.06,3.55-1.99,4.4c-1.05.4-1.98,0-2.87-.96,0,1.64,1.16,3.21,2.7,2.93,2.21-.34,3.14-3.78,3.14-6.59h1.05c-.44,3.77-2.37,6.82,1.32,11.16,3.64-4.34,1.71-7.38,1.32-11.16h1.05c0,2.82.88,6.26,3.09,6.59,1.54.28,2.76-1.3,2.76-2.93-.94.96-1.82,1.35-2.87.96-1.98-.85-2.04-4.4-2.04-4.4v-.22c1.32,0,1.82,0,1.82-1.13-.06-1.24-.5-1.3-1.55-1.24,1.27-5.52,7.17-11.1,8.88-3.38.17.4.33,1.07.33,1.07,0,0,1.05-.39.99-1.24,0-1.18,1.16-2.65,1.82-4.79.77-2.54-.55-6.54-3.75-7.21h0Z" fill="#b2aead"/>
  <path d="M86.49,73.81c.69.93,1.06,1.49,3.72,5.69-2.27-4.44-2.56-5.04-3.01-6.11,2.1.22,1.81-1.3,2.71-1.87-1.34.42-1.75-1.35-3.38.93-.53-.78.57-2.15-1.65-2.3-.97,2.05.74,1.75,1.15,2.61-2.75.32-1.45,1.56-2.46,2.54.93-.52,2.07.49,2.93-1.49h-.01Z" fill="#b2aead"/>
  <path d="M105.03,73.81c.86,1.98,2,.96,2.93,1.49-1.02-.98.29-2.22-2.46-2.54.4-.86,2.11-.56,1.14-2.61-2.22.15-1.12,1.52-1.65,2.3-1.63-2.29-2.05-.51-3.38-.93.9.57.61,2.08,2.71,1.87-.45,1.07-.74,1.68-3.01,6.11,2.65-4.21,3.03-4.76,3.72-5.69Z" fill="#b2aead"/>
  <path d="M29.67,81.77c-.01-.86.24-1.83-1.38-3.43,1.27-.3,2.49.47,3.69,1.19.29-.76.81-1.54.09-3.39l-4.37-5.45,3.04,7.8c-.54-.35-1.04-.81-1.3-1.28-.94-1.63-1.86-2.15-2.8-2.04-1.08.14-2.67-1.56-2.67-1.56,0,0,.37,1.59,1.12,2.31.73.73,1.82.6,2.18,1.56.48,1.22.95,2.26,1.88,3.05l-8.73-3.5,5.76,4.77c1.01-.46,2.27-.23,3.49-.03Z" fill="#b2aead"/>
  <path d="M45.23,85.19c.61.6,1.14,1.44,3.4,1.44-.71,1.14-2.21,1.44-3.62,1.79.34.67.39,1.52,1.61,2.34.4.07.78.19,1.07.36,1.59.94,2.65.92,3.41.33.88-.67,3.75.12,3.75.12,0,0-1.77-1.31-2.77-1.56s-1.88.42-2.65-.23c-1.02-.82-1.92-1.46-3.09-1.68l10.09-1.45-9.71-1.24c.55-.29,1.18-.49,1.67-.49,1.86,0,2.76-.56,3.14-1.46.43-1.02,3.33-1.71,3.33-1.71,0,0-2.18-.33-3.18-.04s-1.43,1.31-2.43,1.17c-.55-.08-1.06-.14-1.57-.15-.39,1.04-1.44,1.75-2.45,2.46Z" fill="#b2aead"/>
  <path d="M35.05,78.43c.6-.72,1.64-1.08,1.64-3.58,1.13.7,1.44,2.15,1.78,3.53.65-.3,1.45-.41,2.22-1.54.06-.51.18-1,.38-1.35.94-1.65.92-2.73.35-3.5-.65-.9-.02-3.15-.02-3.15,0,0-1.14,1.12-1.39,2.15-.27,1.02.39,1.92-.22,2.73-.82,1.04-1.47,1.98-1.65,3.21h0l-1.41-8.72-1.2,8.32c-.3-.58-.51-1.24-.51-1.77,0-1.9-.53-2.82-1.41-3.19-1-.44-1.55-2.73-1.55-2.73,0,0-.45,1.56-.16,2.59.29,1,1.29,1.44,1.14,2.46-.11.83-.18,1.58-.12,2.31.83.49,1.48,1.39,2.13,2.24h0Z" fill="#b2aead"/>
  <path d="M41.56,79.66c.89-.03,1.88.3,3.56-1.37.31,1.32-.55,2.58-1.3,3.82.64.2,1.2.67,2.3.61l6.8-5.43-8.18,3.24c.34-.55.8-1.08,1.24-1.34,1.61-.94,2.12-1.88,2-2.86-.12-1.1,1.53-2.73,1.53-2.73,0,0-1.55.4-2.27,1.15-.71.77-.59,1.86-1.53,2.25-1.2.5-2.22.98-3,1.94h0l3.05-8.26-4.24,5.47c.47,1.01.23,2.28.04,3.5h0Z" fill="#b2aead"/>
  <path d="M43.79,91.57c0,.86-.24,1.83,1.38,3.44-1.27.3-2.49-.47-3.69-1.19-.29.75-.81,1.53-.11,3.35l4.39,5.49-3.03-7.81c.54.35,1.05.82,1.31,1.29.92,1.63,1.86,2.15,2.8,2.02,1.08-.12,2.67,1.57,2.67,1.57,0,0-.37-1.57-1.12-2.29-.73-.75-1.82-.6-2.18-1.56-.49-1.25-.98-2.29-1.92-3.07l-.02-.02,8.39,3.27-5.55-4.43c-.98.36-2.16.15-3.32-.04v-.02Z" fill="#b2aead"/>
  <path d="M38.4,94.9c-.6.72-1.64,1.09-1.64,3.59-1.14-.7-1.44-2.15-1.78-3.53-.65.3-1.44.41-2.21,1.53-.06.51-.18,1.01-.38,1.37-.94,1.65-.92,2.71-.35,3.5.65.88.02,3.13.02,3.13,0,0,1.14-1.11,1.39-2.13.27-1.04-.39-1.92.22-2.73.82-1.04,1.45-1.98,1.65-3.21h0l1.41,8.72,1.2-8.31c.3.57.51,1.23.51,1.76,0,1.9.53,2.82,1.41,3.19,1,.44,1.55,2.71,1.55,2.71,0,0,.45-1.54.16-2.57-.29-1.02-1.29-1.44-1.14-2.46.11-.82.18-1.57.12-2.3-.84-.49-1.5-1.4-2.16-2.26h.02Z" fill="#b2aead"/>
  <path d="M31.89,93.68c-.89.03-1.88-.3-3.56,1.37-.18-.75.03-1.48.37-2.2-.34.54-.78,1.04-1.21,1.3-1.61.94-2.12,1.88-2,2.86.12,1.09-1.53,2.71-1.53,2.71,0,0,1.53-.38,2.27-1.13.71-.77.59-1.88,1.51-2.25,1.21-.49,2.22-.97,2.99-1.91l-3.03,8.22,4.24-5.47c-.47-1.01-.24-2.28-.04-3.51h-.01Z" fill="#b2aead"/>
  <path d="M26.76,87.91c-.56.29-1.19.5-1.7.5-1.83,0-2.75.56-3.12,1.46-.43,1.02-3.35,1.71-3.35,1.71,0,0,2.2.31,3.2.02s1.43-1.29,2.43-1.15c.54.08,1.05.13,1.55.15.39-1.04,1.44-1.75,2.45-2.46-.61-.6-1.14-1.44-3.4-1.44.71-1.15,2.21-1.44,3.62-1.79-.34-.68-.39-1.53-1.64-2.36-.38-.07-.75-.18-1.02-.34-1.59-.94-2.65-.92-3.41-.33-.88.67-3.63-.12-3.63-.12,0,0,1.63,1.29,2.65,1.56,1,.25,1.86-.42,2.65.23,1.02.8,1.92,1.45,3.09,1.68l-10.1,1.43,9.73,1.26h0Z" fill="#b2aead"/>
  <path d="M27.37,90.61l-6.95,5.7,8.31-3.49c.26-.54.59-1.07.91-1.59-.63-.2-1.18-.66-2.27-.61h0Z" fill="#b2aead"/>
  <path d="M47.68,82.73c.05-.13.09-.27.12-.41-.68.27-1.22.37-1.67.4l-.35.28c.63-.23,1.26-.29,1.91-.27h-.01Z" fill="#b2aead"/>
  <path d="M41.52,76.15c-.07-.14-.14-.28-.24-.41-.19.45-.39.79-.58,1.09-.02.14-.03.28-.03.42,0,0,.85-1.1.85-1.1Z" fill="#b2aead"/>
  <path d="M33.19,77.5c-.16-.43-.23-.87-.27-1.31-.3-.17-.61-.3-.96-.35.05.11.07.2.11.3l1.13,1.41v-.04h-.01Z" fill="#b2aead"/>
  <path d="M36.73,94.92c4.56,0,8.25-3.69,8.25-8.25s-3.69-8.25-8.25-8.25-8.25,3.69-8.25,8.25,3.69,8.25,8.25,8.25ZM36.73,78.62c4.48,0,8.11,3.6,8.11,8.05s-3.63,8.05-8.11,8.05-8.12-3.6-8.12-8.05,3.64-8.05,8.12-8.05Z" fill="#b2aead"/>
  <path d="M26.18,81.79c-.13.06-.26.13-.39.22.42.18.74.36,1.01.55.13.02.25.06.38.07l-1.01-.83h.01Z" fill="#b2aead"/>
  <path d="M47.11,91.61c.19-.07.38-.16.56-.28-.43-.18-.76-.37-1.04-.56-.22-.04-.45-.07-.68-.08l1.16.93h0Z" fill="#b2aead"/>
  <path d="M31.94,97.18c.06.14.14.28.24.41.19-.46.39-.81.59-1.1.02-.14.03-.28.03-.42,0,0-.86,1.11-.86,1.11Z" fill="#b2aead"/>
  <path d="M40.29,95.81c.16.45.23.9.27,1.35.29.17.6.29.94.34-.05-.12-.08-.22-.13-.33l-1.08-1.36h0Z" fill="#b2aead"/>
  <path d="M28.72,92.82s0,.02-.01.02c0,0,.01-.02.02-.03h-.01Z" fill="#b2aead"/>
  <path d="M25.78,90.6c-.05.13-.09.27-.12.41.7-.27,1.25-.38,1.71-.4l.34-.28c-.64.23-1.27.29-1.93.27Z" fill="#b2aead"/>
  <path d="M35.77,84.9c-1.62-.95-3.1-.95-4.14,0,1.26.95,2.59,1.17,4.14,0Z" fill="#b2aead"/>
  <path d="M41.83,84.9c-1.63-.95-3.1-.95-4.14,0,1.26.95,2.59,1.17,4.14,0Z" fill="#b2aead"/>
  <path d="M35.32,83.43c-1.18-.95-2.44-.95-3.33,0,.74-.66,1.85-.51,3.33,0Z" fill="#b2aead"/>
  <path d="M41.38,83.43c-.89-.95-2.14-.95-3.33,0,1.48-.51,2.59-.66,3.33,0Z" fill="#b2aead"/>
  <path d="M40.13,90.54c-2.07-.25-4.13-.25-6.28,0,1.98.13,4.13.07,6.28,0Z" fill="#b2aead"/>
  <path d="M60.05,138s.66.04.89-.18c0,0,.08.13.48.13,0,0,.36-.18.48.04,0,0,.04.32-.31.36,0,0-.4-.19-.48.31,0,0,.27.15.09.45,0,0-.34.9-.04,1.14,0,0,.4-.06.44-.64l.09-.67.14-.09s.04-.5.21-.41c0,0,.44-.09.4.36l-.09.25s-.11.14,0,.14.14-.16.2-.09c.04.09.2.26.2.38,0,.13-.03.36-.04.41-.02.06-.07.22.11.19.18,0,.5.03.68-.03.2-.07.66-.48.64-.57-.02-.09-.04-.12.01-.19.04-.06.39-.2.64-.19.24,0,.41-.23.49-.35.04-.08.11-.15.19-.21-.08.06-.16.13-.23.21,0,0-.2-.06-.24-.09-.03-.03-.27-.04-.51-.04s-.4.35-.51.47c-.1.12.08.2.08.2-.06.03-.27-.02-.51-.02s-.24.17-.28.29c-.04.12-.33.35-.46.34-.13-.02,0-.03,0-.1.02-.06.06-.06.1-.07.03,0,.09-.12.03-.22-.04-.1-.1,0-.1,0,0,0-.06-.12-.04-.19s.23-.12.3-.15c.07-.04.11-.16.11-.29s-.09-.26-.09-.26l.17.13s.14.03.24.07c.1.06.26-.17.26-.17l-.06-.07s.03-.04.02-.12c-.02-.07-.34-.32-.54-.41s-.31-.04-.49,0c-.17.03-.47,0-.47,0-.04-.09-.08-.21-.13-.34,0,0,.27-.36-.39-.36,0,0-.36-.58-.97-.28,0,0-.19.23-.59.28h0c-.02.07-.08.21-.2.31-.17.15-.44.28.09.32v.02Z" fill="#b2aead"/>
  <polygon points="70.99 178.39 71.05 178.4 71.06 178.4 71.01 178.35 70.96 178.34 70.96 178.36 70.92 178.4 70.9 178.39 70.93 178.41 70.96 178.44 70.99 178.44 70.99 178.39" fill="#b2aead"/>
  <polygon points="71.02 178.5 71.05 178.54 71.05 178.5 71.02 178.5" fill="#b2aead"/>
  <polygon points="71.3 178.16 71.31 178.18 71.31 178.18 71.32 178.19 71.32 178.19 71.3 178.16" fill="#b2aead"/>
  <polygon points="71.8 178.58 71.79 178.59 71.8 178.6 71.8 178.58" fill="#b2aead"/>
  <polygon points="71.66 178.54 71.65 178.53 71.64 178.57 71.64 178.58 71.63 178.61 71.75 178.58 71.71 178.58 71.66 178.54" fill="#b2aead"/>
  <polygon points="72.34 178.19 72.33 178.2 72.3 178.22 72.29 178.23 72.24 178.23 72.19 178.29 72.16 178.3 72.13 178.3 72.12 178.32 72.04 178.33 71.99 178.33 71.97 178.32 71.93 178.32 71.91 178.31 71.89 178.34 71.88 178.33 71.86 178.3 71.85 178.3 71.85 178.32 71.87 178.34 71.88 178.35 71.88 178.35 71.89 178.37 71.91 178.4 71.93 178.41 71.94 178.44 71.96 178.45 71.96 178.49 71.94 178.49 71.93 178.47 71.93 178.46 71.88 178.45 71.87 178.45 71.85 178.45 71.81 178.45 71.78 178.44 71.77 178.44 71.77 178.45 71.77 178.46 71.75 178.52 71.75 178.54 71.77 178.56 71.78 178.56 71.8 178.58 71.8 178.58 71.85 178.56 71.87 178.52 71.87 178.51 71.87 178.49 71.89 178.49 71.92 178.51 71.95 178.51 71.97 178.51 72.04 178.48 72.04 178.47 72.02 178.46 72 178.44 71.95 178.4 71.95 178.38 71.97 178.38 72 178.38 72.04 178.4 72.07 178.4 72.1 178.41 72.15 178.41 72.22 178.4 72.23 178.39 72.24 178.38 72.25 178.38 72.31 178.36 72.35 178.32 72.4 178.32 72.34 178.19 72.34 178.19" fill="#b2aead"/>
  <polygon points="71.51 178.41 71.52 178.37 71.52 178.37 71.53 178.35 71.53 178.35 71.53 178.34 71.54 178.33 71.54 178.29 71.6 178.28 71.61 178.27 71.62 178.24 71.66 178.2 71.68 178.19 71.73 178.19 71.74 178.19 71.75 178.21 71.78 178.17 71.78 178.17 71.77 178.15 71.77 178.13 71.77 178.11 71.77 178.1 71.72 178.1 71.72 178.13 71.68 178.15 71.62 178.15 71.61 178.14 71.51 178.28 71.48 178.3 71.45 178.34 71.45 178.34 71.45 178.35 71.44 178.35 71.43 178.37 71.42 178.39 71.38 178.4 71.34 178.39 71.32 178.4 71.27 178.44 71.25 178.41 71.22 178.41 71.24 178.43 71.26 178.43 71.24 178.44 71.24 178.49 71.19 178.53 71.16 178.53 71.13 178.55 71.35 178.5 71.35 178.49 71.33 178.47 71.35 178.47 71.37 178.49 71.38 178.49 71.42 178.46 71.45 178.45 71.48 178.46 71.5 178.46 71.51 178.44 71.51 178.41" fill="#b2aead"/>
  <path d="M65.78,138.39c.36-.15.79-.2.92-.21-.15,0-.54.05-.92.21Z" fill="#b2aead"/>
  <polygon points="71.87 178.3 71.86 178.3 71.91 178.31 71.89 178.3 71.87 178.3" fill="#b2aead"/>
  <polygon points="71.27 178.13 71.26 178.12 71.28 178.14 71.27 178.13" fill="#b2aead"/>
  <path d="M66.47,148.92c0,.12-.15.23-.15.23-.02.02-.02.05-.02.08,0-.02,0-.04.02-.05,0,0,.16-.12.15-.26Z" fill="#b2aead"/>
  <polygon points="71.3 178.16 71.28 178.14 71.29 178.15 71.3 178.16" fill="#b2aead"/>
  <polygon points="72.31 178.13 72.3 178.11 72.31 178.13 72.31 178.13" fill="#b2aead"/>
  <path d="M65.61,190.1c44.14-31.11,59.91-79.26,60.6-131.79H5.01c.69,52.53,16.45,100.68,60.6,131.79ZM36.06,128.14c-.12,0-.36-.26-.36-.26-.3-.46.24-.29.24-.29,0,0,.12.12.25.21.12.08,0,.34-.13.34ZM40.89,131.79c-.41.3-.33-.08-.33-.08,0-.42.2-.34.2-.34.21.1.13.42.13.42ZM46.16,132.33c-.17-.45.14-.32.14-.32.21.6-.14.32-.14.32ZM69.24,180.22v.08l-.03.05h-.04l-.06.03-.07-.02h-.09l-.06.02-.12.04-.03.02h-.06l-.07-.06h-.05l-.07-.02-.15-.02h-.22l-.04-.02h-.11l-.06.03-.06.03h-.04v-.08l-.02-.03-.04-.22-.07-.51-.05-.34v-.02l-.04-.18.06.02v.02l.05.05.07.08.06.06.04.06v.02l-.04-.04h-.11v.06l.04.05.06.02.05.04.04.06.05.07.04.05.04.04.07.04.08.03.04.04.04.04.05.05h.06l.05.03.05.02.04.03h.04l.06.02.04.04.06.05.12.07.05.02.13.06.1.02.09-.02h.09v.02h-.06ZM69.86,180.25h0l-.03.02h-.14v.03h-.13l-.02.02h-.07v-.03l.03-.04h.08l.06-.03.02.02h.07l.07-.02h.05v.03h.01ZM72.44,178.29h0l-.03.02h-.01l-.08.05-.02.02h-.06v.02h-.01l-.18.08v.02l.02.02v.03h-.02v-.02h-.06l-.11.05h0v.02l.02.02h.02l.02.02v.02l-.09-.02-.03-.02h-.04s-.02.09-.02.09l-.04-.02h0l-.04-.05h-.01v.05s-.05-.02-.05-.02h0l-.04-.07-.02-.02v-.02h-.02v-.06h0l-.12.02h-.02v.05l-.06.03h-.03l-.04.02-.05.02-.02-.02v-.05h-.04l-.02.02h-.04l-.02-.02v-.02l-.04-.03h-.03l.03.03h-.02l-.08-.07v-.02h.05l-.06-.05-.04-.02-.04-.04-.04-.03-.03-.02v-.1l.03-.03v.07l.02.05h.01l.03-.03h.1v.08h.1v.05h.06l.02-.02.03-.02h-.07v-.02h0l.05-.06h.06s.04-.08.04-.08h.08v-.02h-.09.03v-.04h-.07v-.05l.03.02.05.02h0l-.04-.03-.02-.03h-.09.03v-.06h-.06v-.06l.03.03.05.03h.06l.06.04.06-.03v-.02h.1s.07.04.07.04h.05l.05-.02v-.04l.02-.03v.03l.05.02v.07l-.04.06-.04.03h0l.12-.04.02-.02v.02h.02v-.02l-.02-.03v-.07h.09v-.1h0l.03-.03.06.03h.06l.06.06h.01v.04h.05s.05-.01.05-.01h.1l.07.07h0v.02h-.05v.03h0v.02h.07l.06.05h0v.02h-.05v.02h.01v.02l.03.02.02.02-.02.02h.02ZM78.66,157.71c.04.7-.43,1.15-.43,1.15l-1,1.71c.04,2.52-1.41,3.08-1.41,3.08-1.04.25-1.94,1.2-1.98,1.36-.47,1.49-1.04,2.36-1.04,2.36-.04.07-.07.16-.11.23l-.02.04.1.06.14.11.09.09.07.06v.1l-.07.14-.06.09.04.12.13.13.14.05h.1l.02.09-.02.26-.07.12-.04.06-.08.08-.09.12-.13.11-.07.1-.05.12-.04.1-.11.1-.14.05-.28.08h-.1l-.05.02-.1.05-.12.03-.14.03-.14.02h-.19l-.16.05-.09.03h-.13l-.1.02-.11.02h-.3l-.14-.02-.16-.02-.07-.06-.06-.05-.03.09.04.22.09.08.04.06-.03.17-.05.09-.03-.02-.04.13-.02.14.02.12.04.13v.06l-.04.07-.07.07-.1.04-.09.02-.13.06h-.39l-.1-.02-.1-.06-.11-.05-.09-.03-.16-.03-.1-.1-.1.12v.19l.09.17v.11l.02.17.02.11.16.11.12.03-.04.06.06.04.12-.02.07-.03-.04-.07-.06-.03.17-.02.11-.06.08.09v.07l.04.15v.09l-.07.05-.1.03h-.09l-.08-.03v-.1l-.07-.05-.1-.02-.07.03-.06.06-.06.02-.05.04v.05l.18.06h.1l.08.03.05.02v.02l-.04.02-.04.03-.09.04-.16.08-.04.06-.03.08-.07.09v.1l.03.14v.24l-.03.09-.04.03-.07.03-.06.1.07.1v.04l-.03.06h-.14l-.07-.02h-.09l-.09.06-.07.06-.09.02-.1.04-.14.17-.04.07-.03.06-.04.08-.06.07v.14l.03.05.06.11.07.09.09.05.11.09.1.1.13.04.1.02h.12l.11-.02.06.06.05.09v.14l-.05.09-.03.03.04.09.03.08-.07.02v.09h-.06l-.06.04-.14.14-.08.05-.07.08-.06.03-.07.08-.04.06h-.02l-.1.1-.07.15v.1l.06-.06v.06l-.05.23-.02.11-.06.07-.08.05h-.08l-.06-.05-.09-.1-.03-.05.03.09v.06l.07.02.05.04v.03l-.02.02-.07.05-.09.06-.06.06-.07.32-.05.08h.05l.04-.02.09.18.04.1v.05h-.11l-.06.02.09.05.04-.02.06.02.07.09.07.11.16.14.04.02h-.07l-.11-.05h-.04l-.09-.02h-.17l-.1-.03-.08-.02h-.08l-.05.02h-.11l-.11.02h-.29l-.29.02h-.05l-.08-.02-.02-.02h-.02l-.05-.08h-.03v-.05l-.02-.07v-.08l-.05-.26-.03-.05-.02-.06-.05-.13-.02-.02-.04-.02h0v.04h-.06l-.09-.02h-.04s-.03.03-.03.03l-.03.02v.05h-.03v.02h-.04l-.04-.05v-.04s-.04-.05-.04-.05v-.02h-.03l-.04-.24v-.07l-.03-.1v-.11l.02-.12v-.03l.02-.06.04-.04.06-.16.03-.05.03-.05.05-.07.02-.03v-.3l.04-.02v-.03l-.02-.03v-.03l-.04-.03v-.02l-.03-.04v-.07h-.02l-.02-.09v-.06l.02-.03v-.03l.1-.14.02-.05.02-.05.03-.06v-.13l.04-.03v-.03l.03-.09v-.03l-.02-.05h.02l-.05-.22v-.08l-.04-.09.02-.05-.05-.21v-.08l.03-.04.04-.05v-.09l-.04-.02-.08-.06-.03-.02h-.04l-.03-.02h-.04l-.06-.09v-.02h.31l.02-.09-.02-.04v-.02l-.05-.05-.04-.02-.15-.02h-.06l-.02-.05v-.22s.01-.03.01-.03l-.03-.04v-.02l-.02-.06-.06-.08-.02-.03v-.1s-.04-.13-.04-.13v-.03l-.03-.02-.03-.02-.04-.04-.05-.3v-.03l.03-.15.06-.1h.02v-.05l.02-.03v-.04l-.02-.11-.03-.03-.08-.07-.03-.06-.03-.06v-.23s-.03-.03-.03-.03l.03-.26.02-.03v-.07l-.02-.08v-.1s-.01-.1-.01-.1l.03-.09.02-.14.03-.17.02-.06v-.13l.02-.04.04-.06.05-.04.04-.04.03-.09-.02-.11-.04-.06-.03-.06-.04-.13-.03-.04v-.08l-.06-.33.02-.03-.02-.17v-.15l.02-.07v-.06l.07-.08.03-.02h.07l.03-.02v-.08l.02-.02.07-.05.04-.03v-.06l-.05-.1v-.05l-.03-.03v-.08l-.04-.17.06-.04.02-.02.03-.03v-.08l.02-.17.03-.08v-.04l.05-.07.12-.2-.03-.15-.03-.17-.04-.11-.03-.06-.03-.06-.07-.05h-.01l-.02-.08.02-.06-.03-.1-.03-.05v-.02l-.06-.1-.09-.15-.04-.29-.02-.02-.09-.06-.02-.14v-.15l.02-.06h.01l.02-.05v-.02l.04-.08.05-.06v-.08h.02v-.08l.07-.07v-.11l.06-.03v-.27l-.03-.07v-.28l.02-.05v-.03l.05-.1.03-.08v-.02l.03-.18v-.08l.02-.08.03-.12.03-.02.05-.06.07-.09.04-.04.03-.02.05-.07.06-.2v-.06l.04-.02.1-.09.02-.02.05-.04.12-.05.04-.02h.03v-.05l-.03-.15-.03-.04v-.06l-.04-.05-.04-.12-.02-.28v-.03l-.07-.11v-.19l.07-.07v-.11l-.04-.1-.02-.07.02-.07h-.03s-.54-.31-.64-.38l-.27-.1c-.33-.22-.34-.6-.39-.74-.03-.15-.53-1.22-.53-1.22-.1-.36-.66-1.02-.89-1.27-.23-.26-.1-.36-.1-.36.06-.15-.13-.23-.13-.23,0-.28.17-.31.26-.29h.07v-.13c-.11.06-.24-.17-.24-.17.06-.47.7-.82.7-.82l.03-.34c.1-.06.27-.09.23-.32,0-.06,0-.12,0-.16l.02-.06c.04-.1.11-.15.11-.15l.13-.16.11-.28c.07-.2.16-.45.1-.71-.03-.13-.02-.38-.01-.6-.05-.03-.1-.07-.1-.07-.07-.12-.21-.07-.21-.07-.07,0-.11.1-.11.1,0,.09-.21.12-.21.12-.1.04.03.1.03.1.09.06.04.07.04.07,0,.04-.17.06-.17.06-.17-.07-.18-.2-.18-.2-.09-.09-.33-.06-.33-.06-.27-.03-.46.04-.46.04-.1.03-.11.02-.11.02l-.16-.02-.03.02c-.16-.02-.13-.13-.13-.13,0-.04-.04,0-.04,0,0,.04-.06,0-.06,0-.07-.07,0-.12,0-.12-.23-.32-.37-.38-.37-.38-.09.04.03.15.03.15l-.03.06c-.26-.16-.16-.44-.16-.44,0-.03,0-.07,0-.1-.02-.04,0-.04-.02-.06-.06-.16-.17-.31-.17-.31l-.19-.17c-.04-.1.04-.03.04-.03.11.03.1-.09.1-.09l-.02-.03.04-.03-.04.02c-.03-.13-.07-.1-.07-.1,0,0-.02,0-.03.02h0c-.06.03-.07.11-.07.11-.41-.02-.73-.2-.73-.2-.1-.05-.22-.08-.31-.15h0c-.16-.12-.26-.22-.31-.31l-.07-.17c-.07-.25-.29-.22-.29-.22-.23-.03-.8-.02-.8-.02-.57-.13-1.14-.38-1.14-.38h-.4c-.26-.35-.97-.54-.97-.54-.36-.04-.53-.13-.53-.13,0-.77-.21-1.4-.21-1.4-.23-.26-1.06-1.21-1.06-1.21.04-.36-.49-.45-.49-.45-.4-.32-.88-1.49-.88-1.49-.36-.28-.31.13-.31.13.04.58.57,1.23.8,1.49.21.28.3.73.44.86.13.13.34.54.44.72.09.19-.23.09-.4-.04-.19-.13-.63-.95-.63-.95-.17-.5-.61-.63-.61-.63-.09-.32-.21-.58-.21-.58-.13-.32-.57-1.21-.57-1.21,0,0-.23-.69-.57-.77,0,0-.36,0-.71-.58,0,0-.93-.99-1.05-2.16,0,0-.22-1.27.04-1.36,0,0,.27-.17.09-.58,0,0-.09-1.23-.09-1.53,0,0,.36.13.36-.13v-.36s-.09-.36-.4-.67c0,0-.57-.19-1.06-.73,0,0-.21-.63-.53-.8,0,0-.17-.19-.11-.48,0,0,.27-.88.19-1.05l-.09-.07c-.04.17-.08.3-.08.3-.27-.06-.19-.39-.14-.53-.07-.09-.15-.2-.21-.32-.07,0-.07-.09-.07-.09-.09-.07-.14-.18-.16-.29-.25-.39-.69-1.03-.94-1.25l-.22.39-.21-.2c-.06.04-.13.06-.19.07,0,0-.9-.77-1.18-.91l-.31-.04v-.19c-.44-.05-.7-.17-.7-.17-.08-.29-.61-.29-.61-.29-.41-.38-.45.29-.45.29-.04.22-.71.6-.71.6-.4.21-.32-.34-.32-.34.12-.04.16-.34.16-.34.12-.38.83-.42.83-.42.2-.08-.12-.25-.12-.25-.59-.04-.91.25-.91.25-.08.38-.53,1.01-.53,1.01-.25.14,0,.26,0,.26.36.29-.51.71-.51.71-.32.42-1.15,1.15-1.52,1.23s-.73.25-.73.25c.12-.29.53-.46.53-.46.24-.37.95-.87.95-.87.2-.26.28-.8.28-.8,0-.3-.4.2-.4.2-.37.34-.51-.08-.51-.08,0-.25-.2-.16-.2-.16-.2.29-.37.08-.37.08,0-.3-.16-.55-.16-.55h-.45c-.37-.26-.21-.72-.21-.72-.2-.04-.4-.16-.4-.16-.29-.3-.14-.42.36-.71.49-.3.37-.26.37-.26-.08-.38.53-.5.79-.67.24-.18.04-.3-.04-.46-.08-.18.16-.18.08-.34s-.61.16-.61.16c-.41.18-.87-.04-1.24-.29-.37-.26-.2-.5,0-.8s.65-.42.87-.34c.2.08.33.47.61.22.29-.26-.45-1.01-.79-1.35-.32-.34-.49-.38-.49-.68s.41-.41.75-.41.75-.89.79-1.1.28-.33.49-.37c.2-.05.16.12.69-.18.53-.29.95,0,.95,0,0,0,.53.26.75.38.2.12.28.34.45.38.16.04,0-.22.04-.34.04-.12.37.08.37.08.16,0,.37.12.37.12.08.26.49.22.49.22.24.2.65.16.65.16.37-.24.61.04.61.04v.18c.17.07.4.15.55.17,0,0,.7.45.84.58.13.13.34.17.66-.13,0,0,.66-.63,1.06-.58,0,0,.32-.23.36-.32,0,0,.17-.32.4-.09,0,0,.3.45.43-.13,0,0-.3-.55.19-.19,0,0,.48.58.53.82,0,0,.17.22.26-.09,0,0-.17-.64.27-.28,0,0,.04.13.74.23,0,0,.8.26,1.33.85,0,0,.31.32.27-.09,0,0-.1-.41.3.04,0,0,.53.13.09.77,0,0-.53.31.36.31,0,0,.48-.13.66.04,0,0,.19-.49.27-.35.09.13.49.8.61,1.21,0,0,0,.18.13-.17v-.64s.27-.3,0-.44c0,0-.26-.73.59-.64,0,0,.34-.22.39.23,0,0-.09.26.44.41,0,0,.32-.23.44.26,0,0,.13.45.57.04,0,0,.14-.26.49.04,0,0,.36.41.27-.54,0,0,0-.17.36-.09h.43l-.04.58s-.09.09.27.09c0,0,.79-.39.84-.54,0,0,.21-.31-.1-.35,0,0-.7-.23-.21-.73,0,0-.7-.04-.66-.9,0,0-.14-.39.3-.71,0,0,.04-.54.23-.5,0,0,.3-.28.34.09,0,0,.59.63.48.86,0,0,0,.37.19.45,0,0,0,.72-.19.8,0,0,.23.23.36.23s.31-.28.31.13c0,.67.44-.09.44-.09.13-.45.17-.09.17-.09l.13.85c.31.45.44,0,.44,0,.17-.63.4-.8.4-.8l-.08-.77s.53.19.66.09l.08.6c.04-.15.31.13.31.13.13.37-.23.31-.23.31-.57.28.14.69.14.69.22.3,0,.71,0,.71-.18,0-.36.54-.36.54,0,0-.31.23-.57,0l-.19.28s-.57-.19-.74-.09c0,0-.76-.23-.66.04l.74.39s.23-.13.04.28c0,0-.49.45-.44.99,0,0,0,.82-.21.82,0,0-.48-.23-.61-.15,0,0-.23.04-.1.28,0,0-.08.31-.43.36,0,0-1.01,1.17-.93,1.71,0,0,0,.67.44.71l.21-.04s.13.09.17.41c0,0,.4.13.63.72,0,0,.13.86.91.95,0,0,.71-.18.97,0,0,0,.44-.09.48.68,0,0,.04.44.19.58,0,0-.09.31.26.41,0,0,.14.17.18.39,0,0,.22.54.49.09,0,0,.26-.22.26-.58,0,0-.26-.22-.26-.54,0,0,.08-.71-.06-.76,0,0,.4-.13.48-.5,0,0,.27-.09.27-.54,0,0-.21-1.18-.4-1.4,0,0,.1-.39.31-1.04.04-.13-.04-.41-.19-.58,0,0-.09-.45.06-.49,0,0,.09-.63.53-.37l.97.04s.43-.04.61.37c0,0,.34.36.53.41,0,0,.17.17,0,.3l.13.32s-.17.5.04.82c0,0,.13.5.8.13,0,0,.61-.13.44-.82,0,0,.34-.26.53.54,0,0,.74,1.36.74,1.62v-.13s.23.69.4,1.23c0,0,.08.17.31,0h.44s.09-.04.17.44c0,0,.21,0,.36.32.13.32.04.86-.23.95,0,0-.36-.13-.57.32,0,0,.04.35-.53.44,0,0-1.06.15-1.58,0,0,0-.48.06-1.1.55,0,0-.58.8-.93,1.21,0,0,.66-.32.87-.67,0,0,.27-.36.89-.45,0,0,.4-.23.44.13,0,0-.13.36-.44.32v.13s.27-.13.27.17c0,0-.23.23.04.45,0,0,.4.58.7.63,0,0,.4.19.04.32,0,0-.97.45-1.1.36,0,0-.26-.36.23-.5,0,0,.57-.36.04-.32,0,0-.27.3-.59.23h0s.1.06-.17.19c0,0-.31.12-.56.19,0,0-.28.29-.37.47,0,0-.57.37-.21.45,0,0,.57.04.4.23-.19.18-.31.09-.58.09,0,0-.57.22-.74.09,0,0-.27.09-.04.31,0,0,.04.45.02.64-.02.17-.06.41-.13.38s-.08-.25-.08-.25l-.09-.2-.07.2-.24-.17s-.11.02.03.25c0,0,.17.13.13.39,0,0-.04.12-.36.12,0,0,0,.2.07.28l.04.22s.13.04.16.12c0,0,.01.12-.13.13,0,0-.23-.04-.23.23l-.08.1s-.73.68-1.21,1.18c0,0-.17.17-.16.49,0,0-.09.39.18.76,0,0,.57.63.34,1.36,0,0-.13.35-.44-.1,0,0-.61-.39-.66-1.21,0,0,.04-.54-.44-.54,0,0-1.41-.22-1.58-.04,0,0,.04.22-.97.22,0,0-.61-.13-.84.19l-.44.22-.3.45s.13.36-.04.41l.04.41c-.13.18,0,.72,0,.72.21.28.26.86.26.86,0,.26.19.31.19.31.14.15.46.2.78.25.33.04.5-.03.5-.03.08-.07.27-.1.27-.1.19-.06.19-.23.19-.23-.02-.15.04-.34.04-.34.04-.22.2-.12.2-.12.06.03.23-.02.23-.02.19-.09.6-.06.6-.06.21,0,.24.06.24.06.03.09-.04.18-.04.18-.03,0-.13.17-.13.17-.03.04-.06.13-.1.2-.07.13-.1.28-.1.28-.04.15.03.53.03.53,0,.09-.11.19-.11.19v.03s-.03.16.16.19v.02l.02-.02s.08.02.08.02c.09.02.22-.02.22-.02.06-.06.31.02.53.02.23.02.43.07.43.07.04.02.04.07.04.07v.11c0,.1,0,.18,0,.18-.14.2-.1.67-.1.67,0,.1-.09.25-.09.25-.11.18.03.36.03.36.04.06.09.16.14.22,0,0,.04.09.07.12.04.04.16.15.16.15,0,0,.01,0,.03.03h0l.28.16c.19.04.19.06.19.06,0,0,.14.07.23.06,0,0,.16-.06.34-.09l.17-.07s.04.03.14.04c0,0,.17-.04.29.08.01-.11.02-.19.02-.21.03-.06-.01-.19-.01-.19l.04-.12c-.1-.12-.01-.17-.01-.17l.33-.12.29-.39.14-.26.41-.04.2-.2s.1-.15.23-.15c0,0,.2-.03.26-.06,0,0,.21-.15.4-.15,0,0,.16,0,.11.09,0,0-.03.02-.06.04,0,0-.11.03-.22.14.05-.05.12-.1.2-.12,0,0-.03.07-.01.12l.04.04s.02.04-.01.07c0,0-.11.12,0,.16,0,0,.11-.02.08-.09,0,0-.06-.1-.01-.13,0,0,.06,0,.06-.06l.02-.03s.01-.07.04-.07c.03,0,.03-.06,0-.07-.03,0,.01-.09.06-.03,0,0-.04.03-.01.06,0,0,.1,0,.16.07,0,0,.09.26.33.38,0,0,.13.23.41.28,0,0,.43.07.67-.12,0,0,.4-.17.64-.09,0,0,.21.23.29.28.09.04.34.13.4.22.07.07.19.17.19.17.06.03.14.09.21.17.4.36.76.74.76.74.17.13.4.17.63.23.17.04.36.1.54.22.13.07.26.14.39.22.11.06.23.15.33.25.28.28.54.55.64.92,0,0,0,.23-.17.44,0,0-.4.29-.5.52,0,0-.19.31-.43.38,0,0,.34.04.7-.35,0,0,.4-.26.76-.34,0,0,.54.1.76.13,0,0,.41-.1.41.12,0,0-.04.31-.11.44,0,0,.28-.2.46-.13l1.27.41c.57-.06,1.33.6,1.33.6.98.2.71.96.71.96l-.12-.08ZM50.56,118.56c-.06-.54.27-.38.27-.38,0,0,0-.16.33-.23s.07.23.07.23l.2.07c.16-.38.39.1.39.1,0,.2.17.07.17.07.23-.38.4.03.4.03.3.26.4.31.4.31l-.04.16-.5.23c-.58.28-.68,1.12-.68,1.12,0,.36-.23.34-.23.34-.27-.1-.3.1-.3.1-.17.34-.47,0-.47,0,0-.31-.26-.44-.26-.44-.3-.2,0-.33,0-.33l.06-.41c.04-.41.24-.61.24-.61.13-.1-.04-.36-.04-.36h-.01ZM53.31,120.21c.3.09.21-.26.26-.58.04-.32.31.04.44.36.13.31.21.09.36-.13.13-.23.34.09.34.09l.31.45c-.04-.28.27-.6.27-.6.49-.13.57.86.57.86-.08.99.34,1.58.34,1.58.58,0,.67.19.8.23.6.2.17.5.17.5-.17-.15-.66.04-.66.04-.31.04-.04.22-.04.22.49-.04.26.28.26.28-.39.35-.53.09-.53.09-.17.13-.17.22-.34,0-.19-.23-.67-.13-.67-.13-.53.39-1.88.58-1.88.58,0-.41-.53-.63-.53-.63-.63-.15-.71-.45-.71-.45.04-.5.53-.28.53-.28.49-.22.71-.04.71-.04.48.22.39-.45.39-.45-.09-.37-1.1-.18-1.23-.18-.6,0-.71-.13-.71-.13-.09-.55.54-.32.54-.32.61-.04.39-.37.39-.37-.04.13-.53.04-.53.04-.83.04-.53-.5-.53-.5.19-.13.13-.5.13-.5.06-.45.89-.63,1.07-.85.17-.23.34.09.34.09,0,0-.17.63.14.71v.02ZM54.92,117.04c-.1-.48.43-.54.43-.54,0,0,0,.33.04.44.09.29.16.36.16.36.1.38.43.04.43.04.37.1,0,.88,0,.88-.16.26-.4.07-.4.07-.09.19-.23.06-.23.06-.1-.2-.23.07-.23.07-.2,0-.53.47-.86.36-.33-.1-.4-.03-.13-.2.26-.16.56-.26.56-.26.3-.41-.27-.1-.27-.1-.43.07-.33-.2-.33-.2,0,.31-.26.34-.26.34-.24.03-.33-.16-.33-.16-.47-.31,0-.45,0-.54,0-.39.03-.28.03-.28-.03-.67.53-.34.53-.34.03.34.23.06.4.1.16.03.2.36.2.47,0,.41.38-.36.38-.36-.23-.07-.13-.2-.13-.2h.01ZM57.22,119.26c-.3-.18-.17-.58-.17-.58,0-.45.66-.22.66-.22.23-.04.53-.13.53-.13l.1.26c.3.09.08.67.08.67-.23-.04-.4.32-.4.32,0,.32.49.13.49.13v.32c.13.17.09.95.09.95-.09.26-.48.41-.48.41-.7.26-.79-.45-.79-.45-.14-.32-.27-.41-.27-.41-.4-.09-.48-.63-.48-.63-.17-.64.31-.36.31-.36.17.26.34.26.34.26.31-.13,0-.54,0-.54h-.01ZM58.51,123.81c-.09-.13-.61,0-.61,0-.4,0-.61-.22-.61-.22-.06-.36.21-.28.21-.28,0-.22.4-.22.4-.22l.04-.41c.21-.17.36.54.36.54.13.09.21.58.21.58h0ZM60.73,120.92c0,.63-.44.35-.44.35l-.04-.76c-.17-.54-.09-.69-.09-.69.17-.22-.09-.44-.09-.44.13-.1.21-.37.21-.37.27-.58.31-.28.31-.28.04-.13.34-.13.34-.13.1.32.54.22.54.22.53,0,.17.41.17.41.04.37-.23.69-.23.69-.13.44-.49.44-.49.44-.47-.04-.21.55-.21.55h.02ZM62.87,127.65l-.48.31c-.31.23-.44-.13-.44-.13.04-.26-.4-.13-.4-.13l.13-.23c-.09-.5.4-.58.4-.58l.27-.35.04.26c.22-.04.66.36.66.36.27.09.49.45.49.45l-.21.17-.44-.13h-.02ZM63.27,128.35s-.14.09-.34.09-.34-.04-.34-.09c0-.06.16-.1.34-.1.2,0,.34.04.34.1ZM63.59,129.1c0-.19.06-.35.11-.35.07,0,.13.16.13.35s-.06.35-.13.35c-.06,0-.11-.16-.11-.35ZM64.75,127.79c.11,0,.21.12.21.26,0,.13-.1.25-.21.25s-.21-.12-.21-.25c0-.15.1-.26.21-.26ZM64.54,124.13c0-.45.27-.36.27-.36.49-.09.34.63.34.63,0,.28-.44.14-.44.14-.21-.04-.17-.41-.17-.41ZM69.83,150.71s-.08-.04-.08-.09c0-.06.04-.1.08-.1s.07.04.07.1c0,.04-.03.09-.07.09ZM69.88,150.98s-.04.09-.09.09c-.06,0-.1-.04-.1-.09,0-.06.04-.1.1-.1.04,0,.09.04.09.1ZM69.83,150.24c0-.07.01-.13.03-.13.01,0,.03.06.03.13,0,.06-.01.12-.03.12s-.03-.06-.03-.12ZM69.84,149.96c-.06,0-.1-.04-.1-.09,0-.06.04-.1.1-.1.04,0,.09.04.09.1,0,.04-.04.09-.09.09ZM69.58,149.39s-.04.07-.1.07-.1-.03-.1-.07.04-.09.1-.09.1.04.1.09ZM68.8,149.29c0,.06-.07.09-.16.09s-.16-.03-.16-.09c0-.04.07-.07.16-.07s.16.03.16.07ZM68.24,149.26l-.09.16-.04.09h-.24l-.17.03-.13-.09v-.12l.09-.07.16-.04h.21s.21.04.21.04ZM64.26,148.85l-.04-.1.17-.1.03-.1-.27-.03c-.33,0-.5-.22-.5-.22l-.36-.2c-.07,0-.5-.16-.5-.16-.14-.07-.36.07-.51.12-.16.04-.31-.09-.31-.09-.04-.23.47-.39.47-.39l.33-.04.66.16c.27.23.44.32.44.32l.27.04.73.22.08.09.46.23c.11.09-.01.25-.01.25h-.36c-.16.12-.77,0-.77,0h-.01ZM64.79,149.5c-.04.06-.17,0-.17,0l-.31-.03c-.07-.02-.13-.09-.13-.09-.03-.09.11-.09.11-.09l.17-.04.24.06s.13.12.09.19h0ZM64.09,146.21s.13-.09.29-.09.27.04.27.09-.11.07-.27.07-.29-.03-.29-.07ZM65.1,147.44s.06.16.06.28c0,.1-.14.06-.14.06l-.1-.25-.1-.17.14-.09.14.17ZM65.06,146.46c0-.17.03-.31.07-.31s.07.13.07.31c0,.16-.03.31-.07.31s-.07-.15-.07-.31ZM65.43,149.13h.16l.26.07c.23.04.16-.19.16-.19-.04-.17-.33-.12-.33-.12l-.13-.06.09-.12.21-.04.23.04.34.07v.02l.23.04.16.1.21.02-.13.07h.2l.14.1.03.16-.16.09-.24.03s-.2-.07-.21.03c-.03.09-.23.1-.23.1v-.03c0,.06-.12.07-.24.07-.14,0-.34-.2-.34-.2-.07-.09-.34-.09-.34-.09l-.13-.06.07-.12v.02ZM65.59,147.37s.03-.09.07-.09.08.04.08.09c0,.06-.04.1-.08.1s-.07-.04-.07-.1ZM66.04,148.26l.13.09.1.12-.24.04-.23-.1.09-.1.16-.04h0ZM65.97,147.39s.04-.06.09-.06.07.03.07.06-.03.06-.07.06-.09-.03-.09-.06ZM66.57,60.2h56.99c-.07,17.28-1.89,34.76-6.39,51.49h-50.59v-51.49h-.01ZM65.1,120.62c.26.06.06.6.06.6,0,.25-.1.41-.1.41l.37-.13c.1.44.53.17.53.17.7,0,.93.39.93.39.3.64.5.38.5.38.36.03.13.36.13.36-.13.31.23.07.23.07.2-.13.23.1.23.1.14.16.3.16.3.16l.03.31c.37,0,.24.28.24.28-.1.1,0,.23,0,.23.16.17,0,.3,0,.3l-.24.03c.04.1-.09.34-.09.34-.07.25.29.07.29.07l.27.26.4.15c.26.16.23.41.23.41-.03.19.23.03.23.03.17-.13.23.13.23.13.14.03.1.2.1.2l-.23.07c-.07.13.2.13.2.13.23.31-.2.36-.2.36-.13-.03-.5.25-.5.25-.36.26-.36.06-.36.06-.03-.13-.2-.5-.2-.5-.03-.45-.27-.48-.27-.48-.28,0-.13.57-.13.57,0,.48.27.48.27.48-.04.16.13.23.13.23.13-.03.53.48.53.48.27.19,0,.64,0,.64-.1.23-.17.03-.17.03-.06-.28-.73-.51-.73-.51-.23,0-.06.13-.06.13.13,0,.4.54.4.54.06.51-.43,0-.43,0-.07-.23-.34-.29-.34-.29-.53-.18-.46-.58-.46-.58l-.3-.06-.38-.4c.03.09-.28.2-.28.2-.63.06-.63-.41-.63-.41.16-.44.4-.31.4-.31.16.13.39-.07.39-.07.3-.23.24-.64.24-.64.29-.47.06-1.34.06-1.34-.06-.31-.43-.17-.43-.17.2-.16-.03-.26-.03-.26l-.47-.25c-.2,0-.46-.13-.46-.13-.13-.13-.13.03-.13.03l-.3-.03c-.6,0-1.1-.34-1.1-.34-.16-.13-.23.03-.23.03l-.1-.1.04-.1c0-.13-.47-.9-.47-.9-.2-.23-.07-.31-.07-.31,0-.41.4-1.05.4-1.05.6-.6.86-.26.86-.26-.28.44-.23.85-.23.85.07.85.6,1.34.6,1.34.17.17.1-.34.1-.34l-.37-.51c-.13-.29-.03-.85-.03-.85.17-.49.6-.49.6-.49h0ZM64.65,111.69H13.55c-4.51-16.73-6.32-34.21-6.39-51.49h57.49v51.49Z" fill="#b2aead"/>
  <polygon points="71.77 178.24 71.78 178.26 71.8 178.22 71.78 178.17 71.75 178.21 71.77 178.24" fill="#b2aead"/>
  <polygon points="72.35 178.17 72.34 178.15 72.31 178.13 72.34 178.19 72.35 178.17" fill="#b2aead"/>
</svg>