<?xml version="1.0" encoding="UTF-8"?>
<svg id="Capa_1" data-name="Capa 1" xmlns="http://www.w3.org/2000/svg" width="707.02" height="170.08" viewBox="0 0 707.02 170.08">
  <path d="M254.52,140.68c-1.98-2.8-4.77-4.84-8.36-6.12,5.79-2.92,8.68-7.58,8.68-13.97,0-5-1.8-9.04-5.39-12.15s-8.8-4.66-15.62-4.66h-29.41v65.03h30.41c7.37,0,12.98-1.63,16.85-4.89,3.87-3.26,5.8-7.84,5.8-13.75,0-3.53-.99-6.7-2.97-9.5h0ZM216.74,113.91h16.17c3.04,0,5.41.73,7.12,2.19,1.71,1.46,2.56,3.47,2.56,6.03,0,2.74-.84,4.89-2.51,6.44s-4.06,2.33-7.17,2.33h-16.17v-16.99ZM242.14,156.24c-1.83,1.55-4.48,2.33-7.95,2.33h-17.44v-17.99h17.44c7.13,0,10.69,3.01,10.69,9.04,0,2.86-.91,5.07-2.74,6.62Z" fill="#b2aead"/>
  <rect x="268.52" y="103.77" width="11.51" height="65.03" fill="#b2aead"/>
  <path d="M334.36,134.75c0-9.44-6.18-14.16-19.64-14.16s-20.52,5.35-21.19,16.07h11.32c.25-2.74,1.1-4.67,2.56-5.8,1.47-1.13,3.87-1.69,7.22-1.69,3.1,0,5.31.48,6.62,1.42,1.31.94,1.96,2.42,1.96,4.43,0,1.65-.52,2.88-1.55,3.7-1.04.82-2.74,1.39-5.12,1.69l-7.12.64c-12.05,1.21-18.08,6.12-18.08,14.7,0,4.44,1.53,7.92,4.61,10.41,3.08,2.49,7.2,3.74,12.38,3.74,6.94,0,11.99-2.28,15.16-6.85.3,2.86.73,4.78,1.28,5.75v.02h11.51c-1.28-1.83-1.92-4.81-1.92-8.95v-25.12ZM323.22,150.16c0,3.71-1.13,6.56-3.38,8.54-2.25,1.98-5.18,2.97-8.77,2.97-2.56,0-4.52-.56-5.89-1.69-1.37-1.12-2.05-2.69-2.05-4.7s.65-3.54,1.96-4.61,3.49-1.78,6.53-2.15l6.21-.73c2.5-.31,4.29-.95,5.39-1.92v4.29Z" fill="#b2aead"/>
  <path d="M383.63,145.87c-2.59-2.25-6.75-3.9-12.47-4.93l-5.94-.91c-2.8-.48-4.81-1.17-6.03-2.05-1.22-.88-1.83-2.12-1.83-3.7,0-3.65,2.74-5.48,8.22-5.48,3.23,0,5.67.59,7.31,1.78,1.65,1.19,2.53,3.18,2.65,5.98h10.87c-.42-10.65-7.36-15.98-20.82-15.98-6.21,0-11.02,1.26-14.43,3.79s-5.12,6.02-5.12,10.46c0,7.8,5.15,12.55,15.44,14.25l5.39.91c3.48.61,5.88,1.37,7.22,2.28,1.34.92,2.01,2.22,2.01,3.93,0,3.77-3.11,5.66-9.32,5.66-3.48,0-6.02-.61-7.63-1.83-1.62-1.22-2.58-3.29-2.88-6.21h-11.23c.6,10.84,7.79,16.26,21.55,16.26,6.64,0,11.79-1.28,15.44-3.84s5.48-6.21,5.48-10.96c0-4.02-1.29-7.16-3.88-9.41Z" fill="#b2aead"/>
  <path d="M451.7,103.77h-28.59v65.03h12.33v-22.74h16.26c7.24,0,12.89-1.91,16.94-5.71,4.05-3.81,6.07-8.88,6.07-15.39s-2.02-11.67-6.07-15.48c-4.05-3.81-9.69-5.71-16.94-5.71ZM459.42,132.77c-1.92,1.79-4.68,2.69-8.27,2.69h-15.71v-21.1h15.71c3.6,0,6.35.91,8.27,2.74,1.92,1.83,2.88,4.45,2.88,7.86s-.96,6.01-2.88,7.81Z" fill="#b2aead"/>
  <path d="M523.66,134.75c0-9.44-6.18-14.16-19.64-14.16s-20.52,5.35-21.19,16.07h11.32c.25-2.74,1.1-4.67,2.56-5.8,1.47-1.13,3.87-1.69,7.22-1.69,3.1,0,5.31.48,6.62,1.42,1.31.94,1.96,2.42,1.96,4.43,0,1.65-.52,2.88-1.55,3.7-1.04.82-2.74,1.39-5.12,1.69l-7.12.64c-12.05,1.21-18.08,6.12-18.08,14.7,0,4.44,1.54,7.91,4.61,10.41,3.08,2.49,7.2,3.74,12.38,3.74,6.94,0,11.99-2.28,15.16-6.85.3,2.86.73,4.78,1.28,5.75v.02s11.51,0,11.51,0c-1.28-1.83-1.92-4.81-1.92-8.95v-25.12ZM512.52,150.16c0,3.71-1.13,6.56-3.38,8.54h.01c-2.25,1.98-5.18,2.97-8.77,2.97-2.56,0-4.52-.56-5.89-1.69-1.37-1.12-2.06-2.69-2.06-4.7s.65-3.54,1.96-4.61c1.31-1.07,3.49-1.78,6.53-2.15l6.21-.73c2.5-.31,4.29-.95,5.39-1.92v4.29Z" fill="#b2aead"/>
  <path d="M572.93,145.87c-2.59-2.25-6.75-3.9-12.47-4.93l-5.94-.91c-2.8-.48-4.81-1.17-6.03-2.05-1.22-.88-1.83-2.12-1.83-3.7,0-3.65,2.74-5.48,8.22-5.48,3.23,0,5.67.59,7.31,1.78,1.65,1.19,2.53,3.18,2.65,5.98h10.87c-.42-10.65-7.36-15.98-20.82-15.98-6.21,0-11.02,1.26-14.43,3.79s-5.12,6.02-5.12,10.46c0,7.8,5.15,12.55,15.44,14.25l5.39.91c3.48.61,5.88,1.37,7.22,2.28,1.34.92,2.01,2.22,2.01,3.93,0,3.77-3.11,5.66-9.32,5.66-3.48,0-6.02-.61-7.63-1.83-1.62-1.22-2.58-3.29-2.88-6.21h-11.23c.6,10.84,7.79,16.26,21.55,16.26,6.64,0,11.79-1.28,15.44-3.84s5.48-6.21,5.48-10.96c0-4.02-1.29-7.16-3.88-9.41Z" fill="#b2aead"/>
  <path d="M615.76,157.99c-1.92,1.55-4.28,2.33-7.08,2.33-3.53,0-6.33-1.29-8.4-3.88-2.08-2.59-3.11-6.32-3.11-11.19s1.02-8.6,3.06-11.19c2.04-2.59,4.86-3.88,8.45-3.88,2.74,0,5.02.73,6.85,2.19,1.82,1.46,3.01,3.56,3.56,6.3h11.51c-.67-5.54-2.95-9.94-6.85-13.2-3.9-3.26-8.92-4.89-15.07-4.89-7.07,0-12.7,2.23-16.9,6.67-4.26,4.44-6.39,10.5-6.39,17.99s2.13,13.46,6.39,17.9h.01c4.33,4.52,9.96,6.77,16.9,6.77,6.09,0,11.14-1.69,15.16-5.07,4.02-3.38,6.33-7.9,6.94-13.56h-11.51c-.43,2.92-1.6,5.16-3.52,6.71Z" fill="#b2aead"/>
  <path d="M682.46,134.75c0-9.44-6.18-14.16-19.64-14.16s-20.52,5.35-21.19,16.07h11.32c.25-2.74,1.1-4.67,2.56-5.8,1.47-1.13,3.87-1.69,7.22-1.69,3.1,0,5.31.48,6.62,1.42,1.31.94,1.96,2.42,1.96,4.43,0,1.65-.52,2.88-1.55,3.7-1.04.82-2.74,1.39-5.12,1.69l-7.12.64c-12.05,1.21-18.08,6.12-18.08,14.7,0,4.44,1.54,7.91,4.61,10.41,3.08,2.49,7.2,3.74,12.38,3.74,6.94,0,11.99-2.28,15.16-6.85.3,2.86.73,4.78,1.28,5.75v.02h11.51c-1.28-1.83-1.92-4.81-1.92-8.95v-25.12ZM671.32,150.16c0,3.71-1.13,6.56-3.38,8.54h0c-2.25,1.98-5.18,2.97-8.77,2.97-2.56,0-4.52-.56-5.89-1.69-1.37-1.12-2.05-2.69-2.05-4.7s.65-3.54,1.96-4.61c1.31-1.07,3.49-1.78,6.53-2.15l6.21-.73c2.5-.31,4.29-.95,5.39-1.92v4.29Z" fill="#b2aead"/>
  <rect x="695.51" y="103.77" width="11.51" height="65.03" fill="#b2aead"/>
  <path d="M217.6,66.17c4.21,0,7.46-1.15,9.75-3.44s3.44-5.52,3.44-9.7v-21.09h-3.96v21.09c0,6.37-3.08,9.56-9.23,9.56s-9.23-3.19-9.23-9.56v-21.09h-3.96v21.09c0,4.18,1.15,7.41,3.44,9.7s5.54,3.44,9.75,3.44Z" fill="#b2aead"/>
  <path d="M269.19,31.93h-3.91v11.3c0,7.16.05,12.94.14,17.33-1.45-2.48-3.77-6.26-6.97-11.35l-11.11-17.28h-4.8v33.53h3.91v-11.3c0-7.16-.05-12.94-.14-17.33,1.44,2.48,3.77,6.26,6.97,11.35l11.11,17.28h4.8V31.93Z" fill="#b2aead"/>
  <rect x="281.43" y="31.93" width="3.96" height="33.53" fill="#b2aead"/>
  <path d="M311.84,65.46l12.43-33.53h-4.15l-7.63,21.24c-1.44,3.98-2.4,6.76-2.87,8.33-.5-1.56-1.46-4.34-2.87-8.33l-7.77-21.24h-4.19l12.62,33.53h4.43Z" fill="#b2aead"/>
  <polygon points="356.79 61.88 337.63 61.88 337.63 49.78 355.1 49.78 355.1 46.2 337.63 46.2 337.63 35.51 356.98 35.51 356.98 31.93 333.67 31.93 333.67 65.46 356.79 65.46 356.79 61.88" fill="#b2aead"/>
  <path d="M392.27,61.17l-.33-5.42c-.25-3.51-1.79-5.71-4.61-6.59,1.7-.56,3.04-1.54,4.03-2.94.99-1.4,1.48-3.12,1.48-5.16,0-2.88-1.02-5.13-3.08-6.73-2.05-1.6-4.81-2.4-8.26-2.4h-14.17v33.51h3.96v-14.31h10.92c2.07,0,3.56.48,4.47,1.44.91.96,1.42,2.57,1.51,4.83l.14,3.58c.03,1.97.39,3.47,1.08,4.47h4.1c-.66-.97-1.06-2.4-1.22-4.28h-.02ZM381.98,47.57h-10.69v-12.05h10.22c2.29,0,4.07.49,5.34,1.46,1.27.97,1.91,2.32,1.91,4.33s-.6,3.56-1.81,4.64c-1.21,1.08-2.87,1.62-4.97,1.62Z" fill="#b2aead"/>
  <path d="M428.72,56.39c0-2.51-.82-4.53-2.45-6.05-1.63-1.52-4.3-2.69-8-3.51l-2.97-.66c-3.08-.69-5.15-1.49-6.22-2.4-1.1-.91-1.65-2.18-1.65-3.81s.64-2.9,1.91-3.81c1.27-.91,3.09-1.37,5.44-1.37,3.11,0,5.34.56,6.71,1.67,1.37,1.11,2.14,2.86,2.33,5.25h4.05c-.03-1.45-.27-2.77-.73-3.96-.45-1.19-1.17-2.3-2.14-3.32-.97-1.02-2.33-1.82-4.07-2.38-1.74-.57-3.79-.85-6.14-.85-3.48,0-6.26.79-8.33,2.38-2.07,1.58-3.11,3.68-3.11,6.38s.84,4.8,2.54,6.29c1.7,1.49,4.24,2.63,7.63,3.41l2.97.66c3.01.66,5.12,1.44,6.33,2.33,1.21.89,1.81,2.14,1.81,3.74,0,2.04-.73,3.59-2.19,4.66-1.46,1.07-3.56,1.6-6.29,1.6-6.47,0-9.75-2.75-9.84-8.24h-4.1c.03,3.92,1.27,6.87,3.72,8.85h0c2.45,1.99,5.86,2.98,10.22,2.98,3.92,0,7-.88,9.23-2.64,2.23-1.75,3.34-4.16,3.34-7.2Z" fill="#b2aead"/>
  <rect x="439.07" y="31.93" width="3.96" height="33.53" fill="#b2aead"/>
  <path d="M478.62,36.36c-2.95-2.95-6.97-4.43-12.05-4.43h-11.3v33.53h11.3c5.05,0,9.07-1.49,12.05-4.47,2.92-2.98,4.38-7.01,4.38-12.29s-1.46-9.39-4.38-12.34ZM475.68,58.4c-2.12,2.32-5.15,3.48-9.11,3.48h0s-7.35.01-7.35.01v-26.37h7.35c3.95,0,6.99,1.16,9.11,3.48,2.12,2.32,3.18,5.56,3.18,9.7s-1.06,7.38-3.18,9.7Z" fill="#b2aead"/>
  <path d="M496.64,55.71h15.26l3.91,9.75h4.19l-13.56-33.53h-4.43l-13.37,33.53h4.14l3.86-9.75ZM504.18,36.22c3.29,8.41,5.34,13.57,6.12,15.49l.19.42h-12.43l.14-.37c1.76-4.4,3.75-9.58,5.98-15.54Z" fill="#b2aead"/>
  <path d="M552.29,60.99c2.92-2.98,4.38-7.01,4.38-12.29s-1.46-9.39-4.38-12.34c-2.95-2.95-6.97-4.43-12.05-4.43h-11.3v33.53h11.3c5.05,0,9.07-1.49,12.05-4.47ZM532.89,35.52h7.35c3.95,0,6.99,1.16,9.11,3.48,2.12,2.32,3.18,5.56,3.18,9.7s-1.06,7.38-3.18,9.7c-2.12,2.32-5.15,3.48-9.11,3.48h0s-7.35.01-7.35.01v-26.37Z" fill="#b2aead"/>
  <path d="M0,170.08h170.08v-101.64l-20.04-20.04,20.04-20.04V0H0v170.08ZM88.48,31.18h14.82c3.76,0,6.69.99,8.79,2.96,2.1,1.97,3.15,4.65,3.15,8.03s-1.05,6.01-3.15,7.98c-2.1,1.97-5.03,2.96-8.79,2.96h-8.43v11.79h-6.39V31.18ZM54.9,31.18h15.25c3.54,0,6.24.8,8.1,2.42,1.86,1.61,2.79,3.71,2.79,6.3,0,3.32-1.5,5.73-4.5,7.25,1.86.66,3.31,1.72,4.33,3.17h.01c1.03,1.45,1.54,3.09,1.54,4.93,0,3.06-1,5.44-3.01,7.13-2.01,1.69-4.92,2.53-8.74,2.53h-15.77V31.18ZM19.29,31.18h6.39v21.08c0,2.56.66,4.5,1.99,5.83,1.33,1.33,3.24,1.99,5.73,1.99s4.41-.66,5.73-1.99c1.32-1.33,1.99-3.27,1.99-5.83v-21.08h6.39v21.03c0,4.29-1.25,7.6-3.74,9.92-2.49,2.32-5.95,3.48-10.37,3.48s-7.84-1.18-10.35-3.53c0,0,0,0,0,0h-.01s0,0,0,0c-2.5-2.35-3.76-5.64-3.76-9.87v-21.03Z" fill="#b2aead"/>
  <path d="M75.88,54.96c0-3.13-1.85-4.69-5.54-4.69h-9.05v9.33h9.05c1.8,0,3.17-.4,4.12-1.21.95-.8,1.42-1.95,1.42-3.43Z" fill="#b2aead"/>
  <path d="M107.31,46.22c.99-.93,1.49-2.28,1.49-4.05s-.5-3.13-1.49-4.07c-1-.95-2.42-1.42-4.29-1.42h-8.15v10.94h8.15c1.86,0,3.29-.47,4.29-1.4Z" fill="#b2aead"/>
  <path d="M73.4,44.04c.87-.81,1.3-1.92,1.3-3.34,0-1.33-.44-2.37-1.33-3.12-.89-.75-2.12-1.14-3.69-1.14,0,0-8.38,0-8.38,0v8.81h8.38c1.61,0,2.85-.4,3.72-1.21Z" fill="#b2aead"/>
</svg>