<?xml version="1.0" encoding="UTF-8"?>
<svg id="Layer_1" data-name="Layer 1" xmlns="http://www.w3.org/2000/svg" width="200" height="200" viewBox="0 0 200 200">
  <polygon points="74.66 138.11 77.33 138.11 76.05 134.83 74.66 138.11" fill="#b2aead"/>
  <path d="M156.2,74.01l.26-.13c-.17.08-.26.13-.26.13Z" fill="#b2aead"/>
  <path d="M167.41,154.7c-.76,2.97-2.36,7.97-4.31,14.06l-.3.94h9.56l-.26-.77c-2.43-7.16-3.91-11.49-4.64-14.23h-.04Z" fill="#b2aead"/>
  <path d="M79.01,121.43h-1.64v6.92c0,.27.01.36.31.36h1.35c2.15,0,2.89-1.74,2.89-3.82,0-1.73-.71-3.47-2.9-3.47Z" fill="#b2aead"/>
  <path d="M95.49,128.72h1.35c2.15,0,2.89-1.74,2.89-3.82,0-1.73-.71-3.47-2.9-3.47h-1.64v6.92c0,.27.01.36.31.36Z" fill="#b2aead"/>
  <path d="M18.51,141.01h1.35c2.15,0,2.89-1.73,2.89-3.81,0-1.73-.71-3.47-2.9-3.47h-1.64v6.92c0,.28.01.36.31.36Z" fill="#b2aead"/>
  <polygon points="87.86 122.54 86.47 125.82 89.14 125.82 87.86 122.54" fill="#b2aead"/>
  <path d="M58.5,125.24c.91-.01,1.59-.52,1.59-2.02s-.93-1.78-1.7-1.78h-1.21v3.78c.25.03.84.04,1.32.03Z" fill="#b2aead"/>
  <path d="M131.92,71.26c5.83,6.36,13.04,10.08,21.64,10.76,10.33.82,19.18-2.58,26.5-9.93,1.43-1.43,2.1-3.1,2.1-5.14-.03-14.81-.03-29.61-.02-44.42q0-1.02-1.01-1.02h-50.04c-.51,0-.86,0-.86.72.02,14.96.02,29.93.02,44.89,0,1.55.59,3.03,1.67,4.15ZM147.9,78.62h-.49s-.02-.02-.02-.03c.06-.13.08-.27.06-.41l-.03-1.2-.71,1.63c-.05.01-.11.01-.16,0l-.73-1.6-.03,1.17c-.01.14,0,.28.05.41,0,.02,0,.03-.01.03h-.26s-.02-.01-.01-.03c.05-.13.08-.28.08-.42l.05-1.37c-.03-.07-.07-.13-.12-.19-.01-.01,0-.03,0-.03h.42s.05,0,.07.05l.69,1.52.61-1.42c.07-.14.08-.15.15-.15h.33s.02.01.01.03c-.06.15-.08.31-.06.47l.04,1.1c0,.26.03.36.07.41.01.01.01.03-.01.03ZM150.31,76.75l-.04.19s-.02,0-.03,0c0,0-.01,0-.01,0,0,0-.01,0-.01,0-.07-.08-.15-.15-.25-.2-.1-.05-.2-.07-.31-.07-.42,0-.64.36-.64.93s.24.86.68.86c.21,0,.42-.06.59-.19.02,0,.02.16,0,.18-.2.15-.45.23-.7.21-.58,0-1.03-.35-1.03-1.05-.01-.14,0-.29.06-.42.05-.13.13-.26.23-.36.1-.1.22-.18.36-.23.14-.05.28-.07.42-.06.21,0,.43.03.63.11.06.03.07.04.05.11ZM153.2,78.62h-.48s-.03-.02-.02-.03c.06-.13.08-.27.06-.41l-.03-1.2-.71,1.63c-.05.01-.11.01-.16,0l-.73-1.6-.03,1.17c-.01.14,0,.28.05.41.01.02,0,.03-.01.03h-.26s-.02-.01-.01-.03c.05-.13.08-.28.08-.42l.05-1.37c-.03-.07-.07-.13-.12-.19-.01-.01-.01-.03,0-.03h.42s.05,0,.07.05l.7,1.52.61-1.42c.06-.14.08-.15.15-.15h.34s.02.01.01.03c-.06.15-.08.31-.06.47l.03,1.1c0,.26.03.36.07.41,0,.01,0,.03-.02.03ZM155.25,78.56s-.01.03-.02.04c-.01.01-.03.02-.04.01h-1.22s-.03,0-.01-.02c.05-.13.07-.27.06-.41v-1.15c.01-.14,0-.28-.06-.41-.01-.01-.01-.03.01-.03h.48s.03.01.02.03c-.05.13-.07.27-.06.41v1.35c0,.1,0,.1.09.1h.26c.2-.01.38-.09.52-.24.02-.02.06-.01.06,0l-.07.31ZM157.71,78.61h-.55s-.03-.01-.03-.03c-.03-.14-.09-.26-.18-.37l-.3-.44-.34.47c-.13.17-.16.3-.15.35,0,0,0,0,0,.01,0,0,0,0,0,.01,0,0,0,0-.01,0,0,0,0,0-.01,0h-.36s-.02-.02,0-.03c.12-.1.23-.22.32-.35l.46-.61-.45-.65c-.09-.13-.18-.26-.29-.37,0-.01-.01-.03.01-.03h.52s.03,0,.03.02h0c.03.14.09.27.18.37l.29.4.28-.42c.14-.21.18-.29.16-.35,0-.01,0-.03.03-.03h.35s.02.01,0,.03c-.13.1-.24.22-.33.35l-.41.56.47.7c.09.13.19.26.31.37.01.01.01.03,0,.03ZM160.14,78.61h-.54s-.03-.01-.03-.03c-.03-.14-.1-.26-.19-.37l-.31-.44-.34.47c-.09.1-.14.22-.15.35,0,0,0,0,0,0h0s0,0,0,0c0,0,0,0,0,0,0,0,0,0,0,0h0s0,0,0,0h0s0,0,0,0c0,0,0,0-.01,0h-.36s-.02-.02,0-.03c.12-.1.23-.22.32-.35l.46-.61-.44-.65c-.09-.13-.18-.26-.3-.37,0-.01-.01-.03.01-.03h.52s.03,0,.03.02h0c.03.14.09.27.18.38l.27.4.28-.42c.14-.21.18-.29.16-.35,0-.01,0-.03.03-.03h.35s.02.01,0,.03c-.13.1-.24.22-.33.35l-.41.56.47.7c.09.13.19.26.31.37.01.01.01.03,0,.03ZM162.63,76.61c-.12.14-.21.3-.27.48l-.63,1.55h-.25l-.65-1.52c-.06-.17-.14-.34-.24-.49-.01-.01,0-.03.01-.03h.49s.03,0,.03.03c0,.17.05.34.14.5l.47,1.11.44-1.14c.07-.15.1-.31.1-.48,0-.01,0-.03.03-.03h.33s.02.01,0,.03ZM163.71,78.62h-.49s-.03-.02-.02-.03c.05-.13.07-.27.06-.41v-1.15c.01-.14,0-.28-.06-.41,0-.01,0-.03.02-.03h.48s.03.01.02.03c-.06.13-.08.27-.07.41v1.15c0,.14.01.28.07.41,0,.01,0,.03-.02.03ZM164.99,78.59s.01.03-.02.03h-.49s-.03-.02-.02-.03c.05-.13.07-.27.06-.41v-1.15c.01-.14,0-.28-.06-.41,0-.01,0-.03.02-.03h.49s.03.01.02.03c-.05.13-.08.27-.06.41v1.15c-.01.14,0,.28.06.41ZM166.24,78.59s0,.03-.02.03h-.48s-.03-.02-.02-.03c.05-.13.07-.27.06-.41v-1.15c.01-.14,0-.28-.06-.41-.01-.01-.01-.03.02-.03h.49s.03.01.02.03c-.06.13-.08.27-.07.41v1.15c-.02.14,0,.28.06.41ZM158.12,73.91l-1.92.56-1.92-.56c-4.07-.57-8.22.35-11.68,2.57l2.05-4.17s5.85-2.33,11.54,1.7c5.69-4.03,11.55-1.7,11.55-1.7l2.04,4.18c-3.46-2.23-7.59-3.14-11.67-2.58ZM145.96,70.82l.37-1.16s4.98-1.21,9.87,3.5c4.89-4.71,9.88-3.5,9.88-3.5l.37,1.16c-5.44-1.44-10.24,2.34-10.24,2.34,0,0-4.8-3.79-10.24-2.34ZM132.37,42.08s.02-.08.05-.11c.02-.03.06-.06.1-.07.04-.01.08-.02.12-.01.04,0,.08.03.11.05,4.44,3.76,9.35,5.4,14.72,4.93-4.62-.45-8.79-2.49-12.52-6.14-.65-.64-1.09-1.47-1.25-2.36-.17-.9-.06-1.82.31-2.66.33-.76.72-1.56,1.16-2.39.02-.04.05-.07.09-.09.04-.02.08-.03.13-.02.05,0,.09.02.12.05s.06.07.07.11c1.04,4.06,3.98,7.62,8.82,10.67-4.55-3.51-6.9-7.67-7.04-12.49-.02-.61.09-1.23.32-1.8.23-.57.57-1.09,1.01-1.52,1.55-1.48,3.27-2.8,5.1-3.91.04-.03.08-.04.13-.04.05,0,.09.02.12.05.03.03.05.07.05.12s-.01.09-.04.13c-5.09,8.11.4,17.89,6.43,18.96.42.1.84.17,1.26.21-.12-2.1,1.02-4.73,2.36-6.57-1.26-.26-3.32-1.66-3.62-3.36,1.91,1.25,3.83,1.28,5.64,1.3,2.38.04,4.58.07,6.37,2.84-.01,0-.09,0-.22,0-.97,0-4.76.04-4.41,2.4.14.98,1.17,1.64,2.13,2.26l.1.06.09.06c.35.24.74.53,1.13.85.64,0,1.71-.36,1.71-.36,5.58-1.96,10.12-11.06,5.34-18.67-.03-.04-.05-.08-.04-.13,0-.05.02-.09.05-.12.03-.03.08-.05.12-.05.05,0,.09.01.13.05,1.84,1.12,3.55,2.43,5.1,3.91.44.43.79.95,1.01,1.52.23.57.34,1.18.32,1.8-.14,4.81-2.48,8.97-7.04,12.49,4.84-3.05,7.78-6.61,8.82-10.67.01-.04.04-.08.07-.11s.08-.05.12-.05c.04,0,.09,0,.13.02.04.02.07.05.09.09.44.83.83,1.63,1.16,2.39.37.83.48,1.76.31,2.66s-.61,1.72-1.26,2.36c-3.72,3.65-7.9,5.69-12.52,6.14,5.37.48,10.28-1.17,14.72-4.93.03-.03.07-.05.11-.05.04,0,.08,0,.12.01.04.01.07.04.1.07.03.03.04.07.05.11.09.66.15,1.28.18,1.85.07,1.02-.22,2.04-.82,2.87-.6.83-1.47,1.43-2.47,1.68-4.67,1.22-9.27,1.3-13.78.23,4.55,2.3,9.86,3.03,15.95,2.18.04,0,.07,0,.11,0,.04.01.07.03.09.06.03.03.04.06.05.09,0,.04.01.07,0,.11,0,.02-.01.03-.01.05l-.02.06s-.02.06-.03.09c-.29,1.02-.94,1.9-1.82,2.49s-1.94.84-2.99.72c-4.02-.42-7.91-1.63-11.46-3.56h-.01c-.18-.1-.33-.18-.53-.3-.2-.11-.4-.23-.6-.35l.03.03c.07.08.15.16.23.24l.06.06s.05.05.08.08c.05.05.09.09.14.14h0s.04.05.04.05c.08.08.16.16.25.23l.03.03c.06.05.11.1.17.15.04.03.07.06.11.09,2.71,2.3,7.2,4.32,13.47,6.05.2.07.18.14.13.32h0s-.01.02-.01.02c-.57.92-1.45,1.6-2.48,1.91-1.03.31-2.15.23-3.13-.22-3.13-1.46-5.78-3.17-7.96-5.14-.03-.02-.05-.05-.08-.07-.02-.01-.03-.03-.05-.04l-.27-.25c-.11-.1-.22-.21-.32-.31l-.17-.16c-.14-.14-.27-.27-.4-.41l-.12-.13c-.14-.15-.28-.3-.42-.46l-.07-.08c-.15-.17-.3-.34-.44-.51h0s.04.11.04.11l.07.15.04.09.03.07s.03.06.04.09c.07.13.13.27.2.4l.04.07c.07.13.14.26.22.39l.02.03c.08.14.17.28.26.42l.04.06c.05.07.09.14.13.2.05.07.1.15.15.22.1.15.21.3.32.45.11.15.23.3.34.45h.01c.12.16.24.31.37.46,1.41,1.65,3.3,3.26,5.66,4.83.02.01.04.03.05.06,0,0,0,0,0,0,0,0,0,0,0,0,0,0,0,0,0,.01h0s0,.03,0,.05c0,.02-.03.04-.05.06-.02.01-.05.02-.07.01-2.25-.28-4.41-1.27-6.48-2.96l-.1-.08c-.11-.09-.22-.19-.33-.29l-.04-.03-.4-.37-.02-.02c-.14-.13-.27-.26-.4-.39l-.07-.07c-.12-.12-.25-.24-.37-.37l-.03-.03-.38-.41-.1-.11c-.13-.14-.26-.28-.38-.43l-.46,1.01c-.07.15-.1.32-.08.48.02.16.07.32.17.46l6.31,9.14s.02.04.02.06c0,.02,0,.04,0,.06,0,0,0,.02-.01.03h0s0,.01,0,.02h0s0,.01,0,.01c-.01.02-.03.03-.05.04h-.02c-.49.23-1.05.26-1.57.09-.52-.16-.95-.51-1.23-.97l-.42-.7-3.21-5.31,2.42,5.52,1,2.29s0,0,0,.01c0,0,0,0,0,0,0,0,0,0,0,.01,0,0,0,.02,0,.03,0,.02,0,.04-.02.06,0,.02-.02.04-.04.05-.02.01-.03.02-.06.03l-.66.15c-.55.13-1.14.03-1.63-.25-.49-.29-.85-.76-1.01-1.3l-1.9-6.6.3,2.76.64,6.05c0,1.26-1.77,2.7-1.77,2.7,0,0-1.76-1.39-1.76-2.7l.93-8.82-1.91,6.64c-.16.56-.53,1.03-1.03,1.32-.5.29-1.1.37-1.66.23-.2-.05-.41-.11-.61-.16,0,0-.02,0-.02,0-.01,0-.02-.01-.03-.02-.01-.01-.03-.03-.04-.05,0-.02-.01-.04-.01-.06,0-.02,0-.04.01-.06l3.43-7.81-3.63,6.01c-.28.46-.72.8-1.23.97-.51.16-1.07.13-1.56-.08h-.02s-.02-.02-.03-.03c0,0-.02-.01-.02-.02-.01-.02-.02-.04-.03-.06,0-.02,0-.04,0-.06,0-.01,0-.02,0-.03,0,0,0-.02.01-.03l6.3-9.14c.1-.14.15-.29.17-.46.02-.16-.01-.33-.08-.48l-.46-1.01c-2.85,3.31-5.89,5.17-9.12,5.57-.03,0-.05,0-.07-.01-.02-.01-.04-.03-.05-.06,0-.02-.01-.05,0-.07,0-.02.03-.04.05-.06,4.07-2.7,6.73-5.53,8-8.49-2.52,3.02-5.96,5.55-10.33,7.57-.98.45-2.09.52-3.12.21-1.03-.31-1.91-.99-2.47-1.91v-.02c-.07-.18-.08-.26.12-.33,7.24-1.99,12.1-4.37,14.6-7.14-3.86,2.32-8.18,3.77-12.66,4.22-1.04.11-2.08-.14-2.95-.73-.87-.58-1.5-1.45-1.79-2.46-.02-.08-.05-.16-.07-.24,0-.04-.01-.07,0-.11,0-.03.02-.05.03-.07,0,0,.01-.02.02-.03.03-.03.06-.05.09-.06.03-.01.07-.02.11-.01,6.09.84,11.4.12,15.95-2.18-4.51,1.07-9.1.99-13.78-.23-.99-.26-1.87-.85-2.47-1.68-.6-.83-.89-1.85-.83-2.87.04-.57.1-1.19.18-1.85Z" fill="#b2aead"/>
  <path d="M0,0v200h200V0H0ZM93.79,121.11c-.04-.05-.04-.09.05-.09h3.06c2.93,0,4.17,1.8,4.17,3.87,0,2.34-1.28,4.26-4.17,4.26h-3.06c-.09,0-.09-.04-.05-.1.15-.21.23-.8.23-1.67v-4.61c0-.86-.08-1.47-.23-1.67ZM84.15,129.05c.24-.24.59-.82,1.07-1.91l2.74-6.15h.48l2.43,6.09c.33.84.71,1.61.99,1.95.04.05.03.13-.05.13h-1.5c-.11,0-.12-.04-.12-.13.04-.33-.24-1.09-.57-1.95l-.32-.83h-3l-.39.9c-.41.96-.52,1.72-.44,1.91,0,.05,0,.1-.11.1h-1.18c-.08,0-.09-.05-.03-.1ZM71.8,121.11c-.04-.05-.04-.09.05-.09h1.51c.09,0,.09.04.05.09-.15.21-.23.81-.23,1.67v4.62c0,.86.09,1.47.23,1.67.04.05.04.1-.05.1h-1.52c-.09,0-.09-.05-.05-.1.15-.21.23-.8.23-1.67v-4.62c0-.86-.08-1.47-.23-1.67ZM64.3,128.55l.04-.69s.07-.03.11-.03.08.01.11.03c.37.56,1.12,1.03,2.14,1.03,1.31,0,1.98-.66,1.98-1.63,0-1.07-.91-1.4-2-1.77-1.31-.46-2.23-1.14-2.23-2.44,0-1.38,1.07-2.2,2.81-2.2,1.07,0,1.67.17,2.06.32.23.1.25.15.21.44l-.08.57s-.06.04-.1.04c-.04,0-.07,0-.1-.03-.36-.54-1.06-.89-2-.89-1.11,0-1.7.54-1.7,1.43,0,.99.72,1.38,1.74,1.74,1.48.51,2.49,1.08,2.49,2.44,0,1.65-1.36,2.44-3.07,2.44-1.01,0-1.75-.16-2.16-.36-.23-.11-.23-.14-.21-.42ZM63.07,133.5l2.94,6.36,2.63-6c.25-.54.28-.55.59-.55h.91c.08,0,.09.05.05.1-.2.27-.24.99-.21,1.85l.13,4.42c.03.99.09,1.47.27,1.67.04.05.04.1-.05.1h-1.54c-.09,0-.09-.05-.05-.1.15-.21.25-.67.23-1.67l-.12-4.97-2.98,6.7c-.06.03-.13.04-.19.04s-.13-.01-.19-.04l-3.05-6.63-.12,4.88c-.03.91.09,1.48.2,1.67.03.06.03.1-.03.1h-1c-.05,0-.04-.04-.01-.1.11-.18.24-.77.26-1.66l.19-5.57c-.11-.25-.26-.49-.44-.69-.04-.04-.03-.09.04-.09h1.24c.19,0,.21,0,.31.18ZM55.79,121.11c-.04-.05-.04-.09.05-.09h2.65c.97,0,2.87.24,2.87,2.13,0,1.37-1.11,1.95-1.7,2.18.26.42.63.99,1.16,1.71.93,1.21,1.51,1.73,1.98,2,.09.05.09.1.03.13-.13.02-.26.04-.39.04-.42,0-.84-.1-1.21-.31-.63-.35-1.23-1.05-1.62-1.59-.41-.56-.73-1.09-1.03-1.58h0s0,0,0,0h0s0,0,0,0h0s-.05-.08-.05-.08c-.45.02-.9.02-1.35-.01v1.76c0,.86.07,1.46.21,1.67.04.05.04.1-.05.1h-1.5c-.09,0-.09-.05-.05-.1.15-.21.23-.8.23-1.67v-4.62c0-.86-.08-1.47-.23-1.67ZM54.31,133.4c-.04-.05-.04-.09.05-.09h4.6c.21,0,.25.02.25.22v.77s-.09.04-.15,0c-.28-.28-.96-.58-1.62-.58h-1.75v3.38h1.71c.41,0,.8-.12,1.04-.19h0c.09-.03.16-.05.2-.05h.02s.01,0,.02,0c.01,0,.02.01.03.02v.87s-.02.02-.03.02c-.01,0-.02,0-.04,0-.4-.14-.82-.22-1.24-.24h-1.71v3.05c0,.39.01.41.37.41h1.34c.75-.03,1.46-.31,2.02-.81.09-.06.21-.04.2.03l-.27,1c0,.06-.04.12-.09.16-.05.04-.11.06-.17.06h-4.74c-.09,0-.09-.05-.05-.1.15-.21.23-.8.23-1.67v-4.61c0-.86-.08-1.46-.23-1.67ZM48.62,121.11c-.04-.05-.04-.09.05-.09h4.59c.21,0,.25.01.25.22v.77s-.04.03-.07.03-.06,0-.08-.03c-.28-.28-.96-.58-1.62-.58h-1.76v3.38h1.71c.41,0,.8-.12,1.04-.19h0c.09-.03.16-.05.2-.05h.01s0,0,0,0h0s0,0,0,0c0,0,0,0,.01,0,0,0,.01,0,.02.02v.87s-.02.02-.03.02c-.01,0-.02,0-.04,0-.4-.14-.82-.22-1.24-.24h-1.71v3.06c0,.38.01.41.36.41h1.35c.75-.03,1.46-.31,2.02-.81.09-.07.21-.04.2.02l-.27,1c0,.06-.04.12-.08.16-.05.04-.11.06-.17.06h-4.74c-.09,0-.09-.05-.05-.1.15-.21.23-.8.23-1.67v-4.61c0-.86-.08-1.47-.23-1.67ZM35.35,121.11c-.04-.05-.04-.09.05-.09h1.51c.09,0,.09.04.05.09-.15.21-.23.81-.23,1.67v4.62c0,.86.08,1.47.23,1.67.04.05.04.1-.05.1h-1.51c-.09,0-.09-.05-.05-.1.15-.21.23-.8.23-1.67v-4.62c0-.86-.08-1.47-.23-1.67ZM33.41,133.4c-.04-.05-.04-.09.05-.09h1.5c.09,0,.09.04.05.09-.15.21-.21.81-.21,1.67v5.52c0,.39.01.41.37.41h1.18c.75-.03,1.47-.31,2.04-.81.08-.06.21-.04.2.03l-.27,1c0,.06-.04.12-.09.16-.05.04-.11.06-.18.06h-4.59c-.09.01-.09-.04-.05-.09.15-.21.23-.8.23-1.67v-4.61c0-.86-.08-1.46-.23-1.67ZM25.59,121.05s0,0,0-.01c0,0,0,0,.01-.01,0,0,.01,0,.02,0h0s0,0,0,0h1.31c.16,0,.2.01.28.11l4.78,6v-4.34c0-.94-.15-1.48-.28-1.68-.03-.04-.03-.09.03-.09h1.08s.02,0,.03.01c0,0,0,0,0,0h0s0,0,0,0c0,0,0,0,0,.01,0,0,0,.02,0,.03,0,.01-.01.02-.02.02-.15.22-.28.76-.28,1.68v6.36c-.14.04-.29.04-.43-.01l-5.4-6.72v4.96c0,.94.15,1.48.28,1.67.03.05.03.1-.03.1h-1.08s-.07-.05-.03-.1c.15-.22.29-.74.29-1.67v-5.61s-.11-.12-.2-.23h0c-.15-.18-.34-.39-.4-.43,0,0-.01-.02-.01-.03,0-.01,0-.02,0-.03ZM26.24,133.4c-.04-.05-.04-.09.05-.09h4.59c.21,0,.25.02.25.22v.77s-.04.02-.07.02-.06,0-.08-.02c-.28-.28-.96-.58-1.62-.58h-1.75v3.38h1.71c.41,0,.8-.12,1.04-.19.09-.03.16-.05.2-.05.01,0,.02,0,.04,0,.01,0,.02.01.03.02v.87s0,0,0,0c0,0-.01.01-.02.01,0,0-.01,0-.02,0,0,0-.01,0-.02,0-.4-.14-.82-.22-1.24-.24h-1.71v3.05c0,.39.01.41.36.41h1.35c.75-.03,1.46-.31,2.02-.81.09-.06.21-.04.2.03l-.26,1c0,.06-.04.12-.09.16-.05.04-.11.06-.17.06h-4.75c-.09,0-.09-.05-.05-.1.15-.21.23-.8.23-1.67v-4.61c0-.86-.08-1.46-.23-1.67ZM16.76,121.02h1.5c.09,0,.09.04.05.09-.15.21-.21.81-.21,1.67v3.83c0,1.22.6,2.06,2.18,2.06s2.36-.71,2.36-2.18v-3.69c0-.94-.16-1.48-.29-1.68-.03-.04-.01-.09.04-.09h1.08s.05.05.01.09c-.15.22-.28.76-.28,1.68v3.7c0,1.57-.84,2.84-3.03,2.84-2.74,0-3.23-1.54-3.23-2.78v-3.78c0-.86-.08-1.47-.23-1.67-.04-.05-.04-.09.05-.09ZM16.81,133.4c-.04-.05-.04-.09.05-.09h3.06c2.93,0,4.17,1.8,4.17,3.87,0,2.34-1.28,4.26-4.17,4.26h-3.06c-.09.01-.09-.04-.05-.09.15-.21.23-.8.23-1.67v-4.61c0-.86-.08-1.46-.23-1.67ZM43.58,169.66c0,11.19-6.3,14.16-13.41,14.16s-13.37-3.15-13.37-13.96v-19.8h6.15v19.92c0,6.9,3.57,8.87,7.31,8.87,4.33,0,7.18-2.26,7.18-8.87v-19.92h6.14v19.6ZM43.04,129.19h-.59l-2.64-6.09-.07-.16-.07-.16c-.31-.72-.59-1.38-.84-1.67-.04-.04-.01-.09.05-.09h1.52c.09,0,.09.04.09.09-.05.33.12.93.56,1.95l2,4.69,1.9-4.71c.39-.95.51-1.74.44-1.93-.01-.05.01-.09.09-.09h1.18c.07,0,.08.05.03.09-.24.26-.57.81-1.06,1.93l-2.61,6.15ZM45.85,137.45c0-2.79,1.78-4.32,4.05-4.32,1.19,0,1.96.2,2.39.4.21.12.27.16.2.44l-.13.62s-.06.04-.1.04c-.04,0-.07,0-.1-.03-.31-.42-.98-1.01-2.26-1.01-1.79,0-2.7,1.48-2.7,3.87s1.06,3.56,2.87,3.56c1.14,0,1.85-.33,2.36-.71.07-.05.07.45,0,.5-.49.44-1.26.82-2.63.82-2.15,0-3.95-1.35-3.95-4.17ZM64.44,183.82c-10.15,0-15.05-7.5-15.05-16.96s5-17.29,15.33-17.29c8.35,0,12.55,4.96,13.41,10.53h-6.12c-.85-2.93-2.81-5.56-7.49-5.56-6.3,0-8.78,5.8-8.78,12.1,0,5.94,2.24,12.2,8.97,12.2,4.75,0,6.46-3.08,7.29-5.47h6.15c-1.36,6.03-5.79,10.44-13.7,10.44ZM80.01,141.44h-1.49c-.11,0-.12-.04-.12-.13.04-.33-.24-1.09-.58-1.95l-.32-.83h-3.01l-.39.9c-.41.96-.52,1.72-.44,1.92.01.05,0,.1-.11.1h-1.18c-.08,0-.09-.05-.03-.1.24-.24.59-.82,1.07-1.92l2.74-6.15h.48l2.44,6.09c.33.83.71,1.61.99,1.95.04.05.03.13-.05.13ZM79.09,129.15h-3.06c-.1,0-.1-.04-.05-.1.15-.21.23-.8.23-1.67v-4.61c0-.86-.08-1.47-.23-1.67-.04-.05-.04-.09.05-.09h3.06c2.93,0,4.17,1.8,4.17,3.87,0,2.34-1.28,4.26-4.17,4.26ZM106.76,183.38h-22.65v-33.32h22.5v5.18h-16.54v8.18h15.83v5.17h-15.83v9.6h17.43l-.74,5.18ZM147.29,183.37h-5.93v-13.08c0-5.86.07-12.2.22-15.88h-.21c-1.35,5.77-4.78,16.45-7.9,26.21l-.59,1.84-.29.91h-5.28c-.59-2.06-1.26-4.38-1.96-6.81-2.33-8.08-5.01-17.37-6.12-22.23h-.19c.27,3.89.4,10.93.4,16.64v12.4h-5.63v-33.32h9.12c2.95,9.26,6.37,21.01,7.41,25.74h.06c.79-3.98,4.98-16.67,8.09-25.74h8.81v33.32ZM176.74,183.37l-3.01-8.48h-12.3l-2.88,8.48h-6.04l11.27-33.32h7.65l11.76,33.32h-6.46ZM183.2,21.25v42.56c0,1.68-.03,3.36-.19,5.03-.11,1.26-.74,2.37-1.6,3.3-5.49,5.93-12.22,9.59-20.24,10.68-9.64,1.32-18.33-1.06-25.97-7.1-1.57-1.25-2.99-2.71-4.35-4.19-1.15-1.24-1.61-2.8-1.61-4.5,0-15.32,0-30.65-.02-45.97-.01-1.31-.01-2.62-.01-3.97v-.51h54v4.68Z" fill="#b2aead"/>
</svg>