<?xml version="1.0" encoding="UTF-8"?>
<svg id="Layer_1" data-name="Layer 1" xmlns="http://www.w3.org/2000/svg" width="272.07" height="36.26" viewBox="0 0 272.07 36.26">
  <path d="M263.59,20.87h3.36l5.1,14.18h-3.06l-.94-2.97h-5.48l-.94,2.97h-3.06l5.02-14.18h0ZM265.31,23.7l-1.96,6.03h3.92l-1.96-6.03h0ZM248.07,35.06v-14.18h2.9v11.52h6.89v2.66h-9.79ZM236.02,35.06v-14.18h2.97v11.52h6.9v2.66h-9.87ZM222.61,35.06v-14.18h10.27v2.44h-7.36v3.06h6.74v2.42h-6.74v3.61h7.76v2.66h-10.67ZM213.3,35.06v-11.67h-4.24v-2.52h11.29v2.52h-4.16v11.67h-2.89ZM196.19,35.06v-14.18h2.9v14.18h-2.9ZM181.22,35.06v-14.18h5.49c2.19,0,3.83.56,4.85,1.73,1.11,1.17,1.64,2.98,1.64,5.33,0,1.34-.22,2.43-.62,3.45-.4,1.02-.94,1.8-1.73,2.36-.55.46-1.18.78-1.88,1.01-.71.16-1.73.31-3.05.31h-4.71,0ZM184.05,32.47h2.35c1.33,0,2.34-.38,2.9-1.09.62-.71.94-1.8.94-3.45,0-1.56-.32-2.74-.86-3.44-.54-.78-1.41-1.09-2.66-1.09h-2.67v9.08h0ZM157.14,27.93c0-2.27.63-4.07,1.88-5.41,1.25-1.33,2.9-2.03,5.01-2.03s3.85.7,5.1,2.03c1.26,1.33,1.88,3.14,1.88,5.41s-.63,4.16-1.88,5.48c-1.25,1.33-2.98,2.05-5.1,2.05s-3.76-.71-5.01-2.05c-1.26-1.32-1.88-3.21-1.88-5.48h0ZM160.12,27.93c0,1.58.32,2.82,1.03,3.68.69.86,1.64,1.25,2.89,1.25s2.28-.39,2.98-1.25c.71-.86,1.01-2.11,1.01-3.68s-.31-2.74-1.01-3.6-1.72-1.32-2.98-1.32-2.2.46-2.89,1.32c-.71.87-1.03,2.05-1.03,3.6h0ZM148.45,35.06v-11.67h-4.23v-2.52h11.29v2.52h-4.15v11.67h-2.91ZM135.69,20.87h3.36l5.09,14.18h-3.05l-.95-2.97h-5.48l-.95,2.97h-3.05l5.02-14.18h0ZM137.41,23.7l-2.04,6.03h3.99l-1.95-6.03h0ZM117.66,20.8h2.99v8.93c0,1.1.14,1.88.62,2.36.39.54,1.09.77,2.03.77,1.03,0,1.73-.23,2.12-.77.47-.48.71-1.26.71-2.36v-8.93h2.89v9.25c0,1.72-.46,3.05-1.49,3.99-.94.94-2.35,1.41-4.15,1.41s-3.29-.47-4.23-1.41c-1.03-.94-1.5-2.27-1.5-3.99v-9.25h.01ZM114.84,30.12c-.08,1.65-.7,2.9-1.87,3.84-1.1,1.02-2.59,1.49-4.4,1.49-2.12,0-3.75-.71-4.92-1.97-1.1-1.33-1.73-3.21-1.73-5.56s.63-4.22,1.8-5.47c1.18-1.34,2.9-1.97,5.08-1.97,1.81,0,3.3.47,4.32,1.34,1.02.86,1.64,2.11,1.72,3.76h-2.9c-.08-.86-.47-1.4-.94-1.88-.54-.39-1.25-.62-2.2-.62-1.24,0-2.26.38-2.89,1.24-.71.87-1.02,2.05-1.02,3.6s.31,2.74,1.02,3.61c.63.87,1.57,1.25,2.82,1.25.86,0,1.64-.23,2.18-.69.55-.4.95-1.11,1.11-1.97,0,0,2.82,0,2.82,0ZM87.89,35.06v-14.18h6.9c1.49,0,2.66.31,3.37.95.78.7,1.18,1.72,1.18,3.06,0,.85-.24,1.56-.55,2.18-.4.56-.94.95-1.57,1.18.63.23,1.02.54,1.33,1.02.24.39.4,1.1.4,2.04l.08,1.73h0c0,.85.24,1.4.55,1.56v.47h-3.21c-.08-.23-.15-.47-.23-.78,0-.31-.08-.63-.08-1.02v-1.49c-.08-.86-.24-1.49-.55-1.8-.31-.32-.78-.47-1.56-.47h-3.15v5.56h-2.91ZM90.79,27.06h3.46c.71,0,1.25-.16,1.65-.46.31-.32.54-.78.54-1.41s-.23-1.09-.54-1.42c-.32-.31-.86-.46-1.49-.46h-3.61v3.75h-.01ZM71.13,27.93c0-2.27.62-4.07,1.88-5.41,1.25-1.33,2.98-2.03,5.09-2.03s3.75.7,5.01,2.03,1.88,3.14,1.88,5.41-.62,4.16-1.88,5.48c-1.26,1.33-2.89,2.05-5.01,2.05s-3.84-.71-5.09-2.05c-1.26-1.32-1.88-3.21-1.88-5.48h0ZM74.11,27.93c0,1.58.39,2.82,1.1,3.68.7.86,1.64,1.25,2.9,1.25s2.19-.39,2.89-1.25c.71-.86,1.1-2.11,1.1-3.68s-.39-2.74-1.1-3.6c-.7-.86-1.64-1.32-2.89-1.32s-2.2.46-2.9,1.32c-.71.87-1.1,2.05-1.1,3.6h0ZM62.44,35.06v-11.67h-4.23v-2.52h11.37v2.52h-4.23v11.67h-2.91Z" fill="#b2aead" fill-rule="evenodd"/>
  <path d="M178.84,14.5V.32h5.41c1.95,0,3.44.63,4.54,1.81,1.02,1.17,1.56,2.89,1.56,5.09,0,2.35-.54,4.08-1.64,5.4-1.1,1.26-2.58,1.88-4.55,1.88h-5.33.01ZM184.09,1.96h-3.29v10.81h3.29c1.41,0,2.51-.47,3.21-1.33.71-.94,1.1-2.35,1.1-4.15s-.39-2.97-1.1-3.92c-.78-.93-1.8-1.41-3.21-1.41h0ZM164.2,14.5l5.25-14.18h2.11l5.25,14.18h-2.04l-1.49-4.23h-5.65l-1.48,4.23h-1.96,0ZM168.27,8.63h4.4l-2.2-6.27-2.2,6.27h0ZM151.43,14.5V.32h5.4c1.96,0,3.45.63,4.55,1.81,1,1.17,1.56,2.89,1.56,5.09,0,2.35-.56,4.08-1.65,5.4-1.1,1.26-2.59,1.88-4.54,1.88h-5.33,0ZM156.68,1.96h-3.29v10.81h3.29c1.41,0,2.5-.47,3.21-1.33.71-.94,1.1-2.35,1.1-4.15s-.39-2.97-1.1-3.92c-.78-.93-1.8-1.41-3.21-1.41h0ZM145.86,14.5V.32h1.96v14.18h-1.96ZM131.92,9.88h1.8c.08,1.02.4,1.81,1.02,2.43.71.62,1.57.94,2.67.94s1.95-.23,2.58-.7c.69-.47,1.01-1.1,1.01-1.88,0-1.1-1.26-1.96-3.6-2.51-.17,0-.24,0-.32-.07-1.96-.47-3.21-.94-3.84-1.49-.63-.55-.95-1.4-.95-2.43,0-1.26.47-2.27,1.41-3.05.96-.72,2.22-1.12,3.71-1.12s2.81.4,3.69,1.19c.93.77,1.4,1.95,1.4,3.29l-1.88.08c-.08-1.03-.4-1.73-.94-2.2-.62-.55-1.41-.78-2.35-.78-1.01,0-1.71.23-2.27.62-.63.39-.85.94-.85,1.64,0,1.1,1.17,1.88,3.52,2.43.31.08.55.16.79.24h.15c1.55.39,2.59.78,3.05,1.17.39.39.71.79.87,1.18.23.47.32,1.01.32,1.56,0,1.33-.48,2.42-1.49,3.29-.95.79-2.27,1.18-3.92,1.18s-3.06-.39-4.08-1.32c-.93-.86-1.41-2.12-1.49-3.69h0ZM118.92.32h5.48c.86,0,1.57.08,1.95.16.48.07.79.23,1.18.39.55.32,1.02.78,1.34,1.33.32.62.47,1.25.47,2.12,0,.7-.15,1.4-.47,1.95-.31.47-.86.94-1.49,1.26.55.16.94.39,1.18.77.24.32.39.95.46,1.81l.17,2.34c0,.56.07.86.15,1.18.15.24.24.4.47.48v.39h-2.19c-.24-.31-.32-.94-.4-1.88v-.08l-.15-1.8c0-.95-.25-1.57-.55-1.88-.39-.24-1.26-.39-2.59-.39h-3.13v6.03h-1.87V.32h0ZM120.79,2.04v4.77h3.3c1.17,0,2.04-.23,2.5-.54.48-.39.78-1.02.78-1.95,0-.87-.24-1.42-.7-1.81-.47-.31-1.33-.47-2.58-.47,0,0-3.3,0-3.3,0ZM105.75,14.5V.32h10.12v1.81h-8.15v4.23h7.52v1.64h-7.52v4.78h8.3v1.73h-10.27ZM96.74,14.5L91.66.32h2.03l4.08,11.91,3.92-11.91h2.03l-5.01,14.18h-1.96ZM87.66,14.5V.32h1.88v14.18h-1.88ZM72.86,14.5V.32h2.03l6.66,10.35c.16.23.23.38.39.63.08.15.16.38.23.53V.32h1.88v14.18h-2.12l-6.74-10.42c-.15-.15-.24-.32-.32-.47-.08-.16-.15-.39-.23-.56v11.44h-1.8.02ZM58.2,9.17V.32h1.96v8.85c0,1.34.31,2.28.86,2.91.63.7,1.48,1.02,2.74,1.02s2.11-.32,2.74-1.02c.63-.63.87-1.57.87-2.91V.32h1.95v8.85c0,1.88-.47,3.29-1.48,4.31-.94.94-2.44,1.41-4.31,1.41-1.72,0-3.05-.47-4-1.41-.86-.93-1.33-2.43-1.33-4.31Z" fill="#b2aead" fill-rule="evenodd"/>
  <path d="M.02.63v35.63h50.86V.63H.02ZM1.87,2.27h12.4L1.87,28.7V2.27ZM1.87,34.56L16.58,2.27h9.17l-14.7,32.29H1.87ZM13.55,34.56L28.17,2.27h9.3l-14.78,32.29h-9.15ZM49.01,34.56h-12.4l12.4-26.43v26.43ZM34.3,34.56h-9.17L39.84,2.27h9.17l-14.7,32.29h0Z" fill="#b2aead" fill-rule="evenodd"/>
</svg>