<?xml version="1.0" encoding="UTF-8"?>
<svg id="Layer_1" data-name="Layer 1" xmlns="http://www.w3.org/2000/svg" width="500" height="500" xmlns:xlink="http://www.w3.org/1999/xlink" viewBox="0 0 500 500">
  <defs>
    <linearGradient id="linear-gradient" x1="392.98" y1="424.75" x2="460.87" y2="224.54" gradientUnits="userSpaceOnUse">
      <stop offset="0" stop-color="#6e52a1"/>
      <stop offset="1" stop-color="#00bee9"/>
    </linearGradient>
    <linearGradient id="linear-gradient-2" x1="149.19" y1="454.53" x2="353.17" y2="454.53" gradientUnits="userSpaceOnUse">
      <stop offset="0" stop-color="#d54296"/>
      <stop offset="1" stop-color="#6e52a1"/>
    </linearGradient>
    <linearGradient id="linear-gradient-3" x1="50.83" y1="181.63" x2="226.7" y2="58.06" gradientUnits="userSpaceOnUse">
      <stop offset="0" stop-color="#f06047"/>
      <stop offset="1" stop-color="#b9d534"/>
    </linearGradient>
    <linearGradient id="linear-gradient-4" x1="41.33" y1="229.44" x2="107.09" y2="427.88" gradientUnits="userSpaceOnUse">
      <stop offset="0" stop-color="#f06047"/>
      <stop offset="1" stop-color="#d54296"/>
    </linearGradient>
    <linearGradient id="linear-gradient-5" x1="279.03" y1="58.57" x2="441.71" y2="179.92" gradientUnits="userSpaceOnUse">
      <stop offset="0" stop-color="#b9d534"/>
      <stop offset="1" stop-color="#00bee9"/>
    </linearGradient>
  </defs>
  <path d="M406.33,385.64c-1.78,0-3.58-.52-5.16-1.61-4.12-2.85-5.15-8.5-2.3-12.62,20.24-29.25,31.31-63.58,32-99.29.1-5.01,4.26-8.95,9.25-8.9,5.01.1,8.99,4.24,8.9,9.25-.76,39.29-12.94,77.07-35.22,109.27-1.76,2.55-4.59,3.91-7.47,3.91Z" fill="url(#linear-gradient)"/>
  <path d="M250,467.65c-19.58,0-38.94-2.85-57.55-8.46-4.8-1.45-7.51-6.51-6.07-11.31,1.45-4.8,6.51-7.51,11.31-6.07,16.91,5.1,34.51,7.69,52.31,7.69s35.4-2.59,52.31-7.69c4.8-1.45,9.86,1.27,11.31,6.07,1.45,4.8-1.27,9.86-6.07,11.31-18.61,5.61-37.98,8.46-57.55,8.46Z" fill="url(#linear-gradient-2)"/>
  <path d="M99,162.27c-1.92,0-3.86-.61-5.51-1.87-3.98-3.05-4.74-8.74-1.69-12.72,23.8-31.1,55.82-54.33,92.59-67.16,4.73-1.65,9.9.85,11.56,5.58,1.65,4.73-.85,9.91-5.58,11.56-33.42,11.66-62.52,32.77-84.16,61.05-1.79,2.33-4.48,3.56-7.21,3.56Z" fill="url(#linear-gradient-3)"/>
  <path d="M93.66,385.64c-2.88,0-5.71-1.36-7.47-3.91-22.28-32.18-34.46-69.97-35.22-109.27-.1-5.01,3.89-9.15,8.9-9.25,4.99-.03,9.15,3.89,9.25,8.9.69,35.72,11.76,70.05,32,99.29,2.85,4.12,1.82,9.77-2.3,12.62-1.58,1.09-3.38,1.61-5.16,1.61Z" fill="url(#linear-gradient-4)"/>
  <path d="M401,162.27c-2.73,0-5.43-1.23-7.21-3.56-21.64-28.28-50.74-49.39-84.16-61.05-4.73-1.65-7.23-6.83-5.58-11.56,1.65-4.73,6.83-7.22,11.56-5.58,36.78,12.83,68.79,36.06,92.59,67.16,3.05,3.98,2.29,9.67-1.69,12.72-1.65,1.26-3.58,1.87-5.51,1.87Z" fill="url(#linear-gradient-5)"/>
  <path d="M250,13.83c-32.59,0-59.55,24.11-64.02,55.47.47-.03.93-.06,1.4-.06h0c8.43,0,15.97,5.35,18.75,13.31,3.61,10.34-1.87,21.68-12.2,25.29-.45.16-.88.33-1.33.49,10.78,20.72,32.43,34.87,57.4,34.87s46.62-14.16,57.4-34.87c-.44-.16-.88-.33-1.33-.49-10.34-3.61-15.81-14.95-12.2-25.29,2.78-7.96,10.31-13.31,18.75-13.31h0c.47,0,.94.03,1.4.06-4.48-31.36-31.43-55.47-64.02-55.47ZM250,94.68c-8.93,0-16.17-7.24-16.17-16.17s7.24-16.17,16.17-16.17,16.17,7.24,16.17,16.17-7.24,16.17-16.17,16.17Z" fill="#b9d534"/>
  <path d="M139.23,356.8c-10.62,0-20.64,2.58-29.48,7.11.3.45.59.91.9,1.35,3.02,4.36,4.16,9.64,3.21,14.85-.95,5.22-3.87,9.75-8.23,12.77-3.34,2.31-7.24,3.53-11.29,3.53-4.66,0-9.11-1.64-12.62-4.53-4.57,8.87-7.17,18.93-7.17,29.59,0,35.73,28.96,64.69,64.69,64.69,17.88,0,34.07-7.26,45.78-18.99-7.26-4.67-10.9-13.75-8.28-22.42,2.55-8.45,10.19-14.12,19.01-14.12,1.94,0,3.87.28,5.74.85.53.16,1.06.29,1.6.45.55-3.4.85-6.89.85-10.45,0-35.73-28.96-64.69-64.69-64.69ZM138.56,437.66c-8.93,0-16.17-7.24-16.17-16.17s7.24-16.17,16.17-16.17,16.17,7.24,16.17,16.17-7.24,16.17-16.17,16.17Z" fill="#d54296"/>
  <path d="M115.72,164.08c-.31.4-.63.78-.94,1.19-3.79,4.95-9.54,7.79-15.77,7.79-4.39,0-8.56-1.41-12.06-4.09-7.24-5.54-9.58-15.13-6.33-23.2-3.55-.6-7.2-.94-10.93-.94-35.73,0-64.69,28.96-64.69,64.69,0,25.35,14.59,47.28,35.82,57.89,2.15-8.44,9.71-14.79,18.84-14.97h.08s.08,0,.08,0h.08s.03,0,.03,0c10.81,0,19.77,8.73,19.98,19.47,0,.5.04.99.06,1.48,30.85-4.92,54.43-31.64,54.43-63.87,0-17.71-7.13-33.76-18.66-45.44ZM69.69,225.69c-8.93,0-16.17-7.24-16.17-16.17s7.24-16.17,16.17-16.17,16.17,7.24,16.17,16.17-7.24,16.17-16.17,16.17Z" fill="#f06047"/>
  <path d="M418.95,391.89c-3.51,2.89-7.96,4.53-12.62,4.53-4.05,0-7.96-1.22-11.29-3.53-4.36-3.02-7.29-7.55-8.23-12.77-.95-5.22.19-10.49,3.21-14.85.31-.45.6-.9.9-1.35-8.84-4.54-18.86-7.11-29.48-7.11-35.73,0-64.69,28.96-64.69,64.69,0,3.56.3,7.05.85,10.45.53-.15,1.06-.29,1.59-.45,1.87-.56,3.8-.85,5.74-.85h0c8.82,0,16.46,5.68,19,14.12,1.53,5.08.99,10.45-1.51,15.12-1.62,3.02-3.95,5.51-6.76,7.31,11.71,11.72,27.89,18.98,45.77,18.98,35.73,0,64.69-28.96,64.69-64.69,0-10.67-2.6-20.73-7.17-29.6ZM361.44,437.66c-8.93,0-16.17-7.24-16.17-16.17s7.24-16.17,16.17-16.17,16.17,7.24,16.17,16.17-7.24,16.17-16.17,16.17Z" fill="#6e52a1"/>
  <path d="M430.31,144.83c-3.72,0-7.37.33-10.92.94,1.28,3.15,1.74,6.59,1.28,10.05-.7,5.26-3.4,9.93-7.62,13.15-3.49,2.67-7.66,4.09-12.06,4.09-6.24,0-11.99-2.84-15.78-7.79-.31-.4-.63-.79-.94-1.18-11.53,11.68-18.66,27.73-18.66,45.44,0,32.23,23.58,58.95,54.42,63.87.01-.49.05-.99.06-1.48.21-10.73,9.15-19.47,19.93-19.47h.22s.04,0,.04,0h.04c5.3.1,10.25,2.27,13.92,6.09,2.43,2.52,4.09,5.57,4.92,8.88,21.23-10.61,35.81-32.54,35.81-57.88,0-35.73-28.96-64.69-64.69-64.69ZM430.31,225.69c-8.93,0-16.17-7.24-16.17-16.17s7.24-16.17,16.17-16.17,16.17,7.24,16.17,16.17-7.24,16.17-16.17,16.17Z" fill="#00bee9"/>
</svg>